0
SECTION
2
HEADER
9
$ACADVER
1
AC1009
9
$MEASUREMENT
70
1
0
ENDSEC
0
SECTION
2
ENTITIES
0
POLYLINE
8
CUT
66
1
70
1
0
VERTEX
8
CUT
10
0.0000
20
0.0000
30
0
0
VERTEX
8
CUT
10
0.0000
20
3.0000
30
0
0
VERTEX
8
CUT
10
15.6967
20
3.0000
30
0
0
VERTEX
8
CUT
10
15.6967
20
0.0000
30
0
0
VERTEX
8
CUT
10
31.3033
20
0.0000
30
0
0
VERTEX
8
CUT
10
31.3033
20
3.0000
30
0
0
VERTEX
8
CUT
10
47.0300
20
3.0000
30
0
0
VERTEX
8
CUT
10
47.0300
20
0.0000
30
0
0
VERTEX
8
CUT
10
62.6367
20
0.0000
30
0
0
VERTEX
8
CUT
10
62.6367
20
3.0000
30
0
0
VERTEX
8
CUT
10
78.3633
20
3.0000
30
0
0
VERTEX
8
CUT
10
78.3633
20
0.0000
30
0
0
VERTEX
8
CUT
10
93.9700
20
0.0000
30
0
0
VERTEX
8
CUT
10
93.9700
20
3.0000
30
0
0
VERTEX
8
CUT
10
109.6967
20
3.0000
30
0
0
VERTEX
8
CUT
10
109.6967
20
0.0000
30
0
0
VERTEX
8
CUT
10
125.3033
20
0.0000
30
0
0
VERTEX
8
CUT
10
125.3033
20
3.0000
30
0
0
VERTEX
8
CUT
10
141.0300
20
3.0000
30
0
0
VERTEX
8
CUT
10
141.0300
20
0.0000
30
0
0
VERTEX
8
CUT
10
156.6367
20
0.0000
30
0
0
VERTEX
8
CUT
10
156.6367
20
3.0000
30
0
0
VERTEX
8
CUT
10
172.3633
20
3.0000
30
0
0
VERTEX
8
CUT
10
172.3633
20
0.0000
30
0
0
VERTEX
8
CUT
10
187.9700
20
0.0000
30
0
0
VERTEX
8
CUT
10
187.9700
20
3.0000
30
0
0
VERTEX
8
CUT
10
203.6967
20
3.0000
30
0
0
VERTEX
8
CUT
10
203.6967
20
0.0000
30
0
0
VERTEX
8
CUT
10
219.3033
20
0.0000
30
0
0
VERTEX
8
CUT
10
219.3033
20
3.0000
30
0
0
VERTEX
8
CUT
10
235.0300
20
3.0000
30
0
0
VERTEX
8
CUT
10
235.0300
20
0.0000
30
0
0
VERTEX
8
CUT
10
250.6367
20
0.0000
30
0
0
VERTEX
8
CUT
10
250.6367
20
3.0000
30
0
0
VERTEX
8
CUT
10
266.3633
20
3.0000
30
0
0
VERTEX
8
CUT
10
266.3633
20
0.0000
30
0
0
VERTEX
8
CUT
10
281.9700
20
0.0000
30
0
0
VERTEX
8
CUT
10
281.9700
20
3.0000
30
0
0
VERTEX
8
CUT
10
297.6967
20
3.0000
30
0
0
VERTEX
8
CUT
10
297.6967
20
0.0000
30
0
0
VERTEX
8
CUT
10
313.3033
20
0.0000
30
0
0
VERTEX
8
CUT
10
313.3033
20
3.0000
30
0
0
VERTEX
8
CUT
10
329.0000
20
3.0000
30
0
0
VERTEX
8
CUT
10
326.0000
20
0.0000
30
0
0
VERTEX
8
CUT
10
326.0000
20
15.8762
30
0
0
VERTEX
8
CUT
10
329.0000
20
15.8762
30
0
0
VERTEX
8
CUT
10
329.0000
20
31.6623
30
0
0
VERTEX
8
CUT
10
326.0000
20
31.6623
30
0
0
VERTEX
8
CUT
10
326.0000
20
47.5685
30
0
0
VERTEX
8
CUT
10
329.0000
20
47.5685
30
0
0
VERTEX
8
CUT
10
329.0000
20
63.3546
30
0
0
VERTEX
8
CUT
10
326.0000
20
63.3546
30
0
0
VERTEX
8
CUT
10
326.0000
20
79.2608
30
0
0
VERTEX
8
CUT
10
329.0000
20
79.2608
30
0
0
VERTEX
8
CUT
10
329.0000
20
95.0469
30
0
0
VERTEX
8
CUT
10
326.0000
20
95.0469
30
0
0
VERTEX
8
CUT
10
326.0000
20
110.9531
30
0
0
VERTEX
8
CUT
10
329.0000
20
110.9531
30
0
0
VERTEX
8
CUT
10
329.0000
20
126.7392
30
0
0
VERTEX
8
CUT
10
326.0000
20
126.7392
30
0
0
VERTEX
8
CUT
10
326.0000
20
142.6454
30
0
0
VERTEX
8
CUT
10
329.0000
20
142.6454
30
0
0
VERTEX
8
CUT
10
329.0000
20
158.4315
30
0
0
VERTEX
8
CUT
10
326.0000
20
158.4315
30
0
0
VERTEX
8
CUT
10
326.0000
20
174.3377
30
0
0
VERTEX
8
CUT
10
329.0000
20
174.3377
30
0
0
VERTEX
8
CUT
10
329.0000
20
190.1238
30
0
0
VERTEX
8
CUT
10
326.0000
20
190.1238
30
0
0
VERTEX
8
CUT
10
326.0000
20
206.0000
30
0
0
VERTEX
8
CUT
10
329.0000
20
203.0000
30
0
0
VERTEX
8
CUT
10
313.3033
20
203.0000
30
0
0
VERTEX
8
CUT
10
313.3033
20
206.0000
30
0
0
VERTEX
8
CUT
10
297.6967
20
206.0000
30
0
0
VERTEX
8
CUT
10
297.6967
20
203.0000
30
0
0
VERTEX
8
CUT
10
281.9700
20
203.0000
30
0
0
VERTEX
8
CUT
10
281.9700
20
206.0000
30
0
0
VERTEX
8
CUT
10
266.3633
20
206.0000
30
0
0
VERTEX
8
CUT
10
266.3633
20
203.0000
30
0
0
VERTEX
8
CUT
10
250.6367
20
203.0000
30
0
0
VERTEX
8
CUT
10
250.6367
20
206.0000
30
0
0
VERTEX
8
CUT
10
235.0300
20
206.0000
30
0
0
VERTEX
8
CUT
10
235.0300
20
203.0000
30
0
0
VERTEX
8
CUT
10
219.3033
20
203.0000
30
0
0
VERTEX
8
CUT
10
219.3033
20
206.0000
30
0
0
VERTEX
8
CUT
10
203.6967
20
206.0000
30
0
0
VERTEX
8
CUT
10
203.6967
20
203.0000
30
0
0
VERTEX
8
CUT
10
187.9700
20
203.0000
30
0
0
VERTEX
8
CUT
10
187.9700
20
206.0000
30
0
0
VERTEX
8
CUT
10
172.3633
20
206.0000
30
0
0
VERTEX
8
CUT
10
172.3633
20
203.0000
30
0
0
VERTEX
8
CUT
10
156.6367
20
203.0000
30
0
0
VERTEX
8
CUT
10
156.6367
20
206.0000
30
0
0
VERTEX
8
CUT
10
141.0300
20
206.0000
30
0
0
VERTEX
8
CUT
10
141.0300
20
203.0000
30
0
0
VERTEX
8
CUT
10
125.3033
20
203.0000
30
0
0
VERTEX
8
CUT
10
125.3033
20
206.0000
30
0
0
VERTEX
8
CUT
10
109.6967
20
206.0000
30
0
0
VERTEX
8
CUT
10
109.6967
20
203.0000
30
0
0
VERTEX
8
CUT
10
93.9700
20
203.0000
30
0
0
VERTEX
8
CUT
10
93.9700
20
206.0000
30
0
0
VERTEX
8
CUT
10
78.3633
20
206.0000
30
0
0
VERTEX
8
CUT
10
78.3633
20
203.0000
30
0
0
VERTEX
8
CUT
10
62.6367
20
203.0000
30
0
0
VERTEX
8
CUT
10
62.6367
20
206.0000
30
0
0
VERTEX
8
CUT
10
47.0300
20
206.0000
30
0
0
VERTEX
8
CUT
10
47.0300
20
203.0000
30
0
0
VERTEX
8
CUT
10
31.3033
20
203.0000
30
0
0
VERTEX
8
CUT
10
31.3033
20
206.0000
30
0
0
VERTEX
8
CUT
10
15.6967
20
206.0000
30
0
0
VERTEX
8
CUT
10
15.6967
20
203.0000
30
0
0
VERTEX
8
CUT
10
0.0000
20
203.0000
30
0
0
VERTEX
8
CUT
10
3.0000
20
206.0000
30
0
0
VERTEX
8
CUT
10
3.0000
20
190.1238
30
0
0
VERTEX
8
CUT
10
0.0000
20
190.1238
30
0
0
VERTEX
8
CUT
10
0.0000
20
174.3377
30
0
0
VERTEX
8
CUT
10
3.0000
20
174.3377
30
0
0
VERTEX
8
CUT
10
3.0000
20
158.4315
30
0
0
VERTEX
8
CUT
10
0.0000
20
158.4315
30
0
0
VERTEX
8
CUT
10
0.0000
20
142.6454
30
0
0
VERTEX
8
CUT
10
3.0000
20
142.6454
30
0
0
VERTEX
8
CUT
10
3.0000
20
126.7392
30
0
0
VERTEX
8
CUT
10
0.0000
20
126.7392
30
0
0
VERTEX
8
CUT
10
0.0000
20
110.9531
30
0
0
VERTEX
8
CUT
10
3.0000
20
110.9531
30
0
0
VERTEX
8
CUT
10
3.0000
20
95.0469
30
0
0
VERTEX
8
CUT
10
0.0000
20
95.0469
30
0
0
VERTEX
8
CUT
10
0.0000
20
79.2608
30
0
0
VERTEX
8
CUT
10
3.0000
20
79.2608
30
0
0
VERTEX
8
CUT
10
3.0000
20
63.3546
30
0
0
VERTEX
8
CUT
10
0.0000
20
63.3546
30
0
0
VERTEX
8
CUT
10
0.0000
20
47.5685
30
0
0
VERTEX
8
CUT
10
3.0000
20
47.5685
30
0
0
VERTEX
8
CUT
10
3.0000
20
31.6623
30
0
0
VERTEX
8
CUT
10
0.0000
20
31.6623
30
0
0
VERTEX
8
CUT
10
0.0000
20
15.8762
30
0
0
VERTEX
8
CUT
10
3.0000
20
15.8762
30
0
0
VERTEX
8
CUT
10
3.0000
20
0.0000
30
0
0
SEQEND
8
CUT
0
CIRCLE
8
CUT
10
317.9120
20
28.3520
30
0
40
1.7000
0
CIRCLE
8
CUT
10
11.0800
20
194.9760
30
0
40
1.7000
0
CIRCLE
8
CUT
10
288.9560
20
156.6220
30
0
40
1.7000
0
CIRCLE
8
CUT
10
164.4960
20
193.9600
30
0
40
1.9000
0
CIRCLE
8
CUT
10
280.0660
20
102.3930
30
0
40
1.9000
0
POLYLINE
8
CUT
66
1
70
1
0
VERTEX
8
CUT
10
143.0000
20
128.0000
30
0
0
VERTEX
8
CUT
10
142.9266
20
128.4635
30
0
0
VERTEX
8
CUT
10
142.7135
20
128.8817
30
0
0
VERTEX
8
CUT
10
142.3817
20
129.2135
30
0
0
VERTEX
8
CUT
10
141.9635
20
129.4266
30
0
0
VERTEX
8
CUT
10
141.5000
20
129.5000
30
0
0
VERTEX
8
CUT
10
40.5000
20
129.5000
30
0
0
VERTEX
8
CUT
10
40.0365
20
129.4266
30
0
0
VERTEX
8
CUT
10
39.6183
20
129.2135
30
0
0
VERTEX
8
CUT
10
39.2865
20
128.8817
30
0
0
VERTEX
8
CUT
10
39.0734
20
128.4635
30
0
0
VERTEX
8
CUT
10
39.0000
20
128.0000
30
0
0
VERTEX
8
CUT
10
39.0000
20
128.0000
30
0
0
VERTEX
8
CUT
10
39.0734
20
127.5365
30
0
0
VERTEX
8
CUT
10
39.2865
20
127.1183
30
0
0
VERTEX
8
CUT
10
39.6183
20
126.7865
30
0
0
VERTEX
8
CUT
10
40.0365
20
126.5734
30
0
0
VERTEX
8
CUT
10
40.5000
20
126.5000
30
0
0
VERTEX
8
CUT
10
141.5000
20
126.5000
30
0
0
VERTEX
8
CUT
10
141.9635
20
126.5734
30
0
0
VERTEX
8
CUT
10
142.3817
20
126.7865
30
0
0
VERTEX
8
CUT
10
142.7135
20
127.1183
30
0
0
VERTEX
8
CUT
10
142.9266
20
127.5365
30
0
0
VERTEX
8
CUT
10
143.0000
20
128.0000
30
0
0
SEQEND
8
CUT
0
POLYLINE
8
CUT
66
1
70
1
0
VERTEX
8
CUT
10
143.0000
20
136.0000
30
0
0
VERTEX
8
CUT
10
142.9266
20
136.4635
30
0
0
VERTEX
8
CUT
10
142.7135
20
136.8817
30
0
0
VERTEX
8
CUT
10
142.3817
20
137.2135
30
0
0
VERTEX
8
CUT
10
141.9635
20
137.4266
30
0
0
VERTEX
8
CUT
10
141.5000
20
137.5000
30
0
0
VERTEX
8
CUT
10
40.5000
20
137.5000
30
0
0
VERTEX
8
CUT
10
40.0365
20
137.4266
30
0
0
VERTEX
8
CUT
10
39.6183
20
137.2135
30
0
0
VERTEX
8
CUT
10
39.2865
20
136.8817
30
0
0
VERTEX
8
CUT
10
39.0734
20
136.4635
30
0
0
VERTEX
8
CUT
10
39.0000
20
136.0000
30
0
0
VERTEX
8
CUT
10
39.0000
20
136.0000
30
0
0
VERTEX
8
CUT
10
39.0734
20
135.5365
30
0
0
VERTEX
8
CUT
10
39.2865
20
135.1183
30
0
0
VERTEX
8
CUT
10
39.6183
20
134.7865
30
0
0
VERTEX
8
CUT
10
40.0365
20
134.5734
30
0
0
VERTEX
8
CUT
10
40.5000
20
134.5000
30
0
0
VERTEX
8
CUT
10
141.5000
20
134.5000
30
0
0
VERTEX
8
CUT
10
141.9635
20
134.5734
30
0
0
VERTEX
8
CUT
10
142.3817
20
134.7865
30
0
0
VERTEX
8
CUT
10
142.7135
20
135.1183
30
0
0
VERTEX
8
CUT
10
142.9266
20
135.5365
30
0
0
VERTEX
8
CUT
10
143.0000
20
136.0000
30
0
0
SEQEND
8
CUT
0
POLYLINE
8
CUT
66
1
70
1
0
VERTEX
8
CUT
10
143.0000
20
144.0000
30
0
0
VERTEX
8
CUT
10
142.9266
20
144.4635
30
0
0
VERTEX
8
CUT
10
142.7135
20
144.8817
30
0
0
VERTEX
8
CUT
10
142.3817
20
145.2135
30
0
0
VERTEX
8
CUT
10
141.9635
20
145.4266
30
0
0
VERTEX
8
CUT
10
141.5000
20
145.5000
30
0
0
VERTEX
8
CUT
10
40.5000
20
145.5000
30
0
0
VERTEX
8
CUT
10
40.0365
20
145.4266
30
0
0
VERTEX
8
CUT
10
39.6183
20
145.2135
30
0
0
VERTEX
8
CUT
10
39.2865
20
144.8817
30
0
0
VERTEX
8
CUT
10
39.0734
20
144.4635
30
0
0
VERTEX
8
CUT
10
39.0000
20
144.0000
30
0
0
VERTEX
8
CUT
10
39.0000
20
144.0000
30
0
0
VERTEX
8
CUT
10
39.0734
20
143.5365
30
0
0
VERTEX
8
CUT
10
39.2865
20
143.1183
30
0
0
VERTEX
8
CUT
10
39.6183
20
142.7865
30
0
0
VERTEX
8
CUT
10
40.0365
20
142.5734
30
0
0
VERTEX
8
CUT
10
40.5000
20
142.5000
30
0
0
VERTEX
8
CUT
10
141.5000
20
142.5000
30
0
0
VERTEX
8
CUT
10
141.9635
20
142.5734
30
0
0
VERTEX
8
CUT
10
142.3817
20
142.7865
30
0
0
VERTEX
8
CUT
10
142.7135
20
143.1183
30
0
0
VERTEX
8
CUT
10
142.9266
20
143.5365
30
0
0
VERTEX
8
CUT
10
143.0000
20
144.0000
30
0
0
SEQEND
8
CUT
0
POLYLINE
8
CUT
66
1
70
1
0
VERTEX
8
CUT
10
143.0000
20
152.0000
30
0
0
VERTEX
8
CUT
10
142.9266
20
152.4635
30
0
0
VERTEX
8
CUT
10
142.7135
20
152.8817
30
0
0
VERTEX
8
CUT
10
142.3817
20
153.2135
30
0
0
VERTEX
8
CUT
10
141.9635
20
153.4266
30
0
0
VERTEX
8
CUT
10
141.5000
20
153.5000
30
0
0
VERTEX
8
CUT
10
40.5000
20
153.5000
30
0
0
VERTEX
8
CUT
10
40.0365
20
153.4266
30
0
0
VERTEX
8
CUT
10
39.6183
20
153.2135
30
0
0
VERTEX
8
CUT
10
39.2865
20
152.8817
30
0
0
VERTEX
8
CUT
10
39.0734
20
152.4635
30
0
0
VERTEX
8
CUT
10
39.0000
20
152.0000
30
0
0
VERTEX
8
CUT
10
39.0000
20
152.0000
30
0
0
VERTEX
8
CUT
10
39.0734
20
151.5365
30
0
0
VERTEX
8
CUT
10
39.2865
20
151.1183
30
0
0
VERTEX
8
CUT
10
39.6183
20
150.7865
30
0
0
VERTEX
8
CUT
10
40.0365
20
150.5734
30
0
0
VERTEX
8
CUT
10
40.5000
20
150.5000
30
0
0
VERTEX
8
CUT
10
141.5000
20
150.5000
30
0
0
VERTEX
8
CUT
10
141.9635
20
150.5734
30
0
0
VERTEX
8
CUT
10
142.3817
20
150.7865
30
0
0
VERTEX
8
CUT
10
142.7135
20
151.1183
30
0
0
VERTEX
8
CUT
10
142.9266
20
151.5365
30
0
0
VERTEX
8
CUT
10
143.0000
20
152.0000
30
0
0
SEQEND
8
CUT
0
POLYLINE
8
CUT
66
1
70
1
0
VERTEX
8
CUT
10
143.0000
20
160.0000
30
0
0
VERTEX
8
CUT
10
142.9266
20
160.4635
30
0
0
VERTEX
8
CUT
10
142.7135
20
160.8817
30
0
0
VERTEX
8
CUT
10
142.3817
20
161.2135
30
0
0
VERTEX
8
CUT
10
141.9635
20
161.4266
30
0
0
VERTEX
8
CUT
10
141.5000
20
161.5000
30
0
0
VERTEX
8
CUT
10
40.5000
20
161.5000
30
0
0
VERTEX
8
CUT
10
40.0365
20
161.4266
30
0
0
VERTEX
8
CUT
10
39.6183
20
161.2135
30
0
0
VERTEX
8
CUT
10
39.2865
20
160.8817
30
0
0
VERTEX
8
CUT
10
39.0734
20
160.4635
30
0
0
VERTEX
8
CUT
10
39.0000
20
160.0000
30
0
0
VERTEX
8
CUT
10
39.0000
20
160.0000
30
0
0
VERTEX
8
CUT
10
39.0734
20
159.5365
30
0
0
VERTEX
8
CUT
10
39.2865
20
159.1183
30
0
0
VERTEX
8
CUT
10
39.6183
20
158.7865
30
0
0
VERTEX
8
CUT
10
40.0365
20
158.5734
30
0
0
VERTEX
8
CUT
10
40.5000
20
158.5000
30
0
0
VERTEX
8
CUT
10
141.5000
20
158.5000
30
0
0
VERTEX
8
CUT
10
141.9635
20
158.5734
30
0
0
VERTEX
8
CUT
10
142.3817
20
158.7865
30
0
0
VERTEX
8
CUT
10
142.7135
20
159.1183
30
0
0
VERTEX
8
CUT
10
142.9266
20
159.5365
30
0
0
VERTEX
8
CUT
10
143.0000
20
160.0000
30
0
0
SEQEND
8
CUT
0
POLYLINE
8
CUT
66
1
70
1
0
VERTEX
8
CUT
10
143.0000
20
168.0000
30
0
0
VERTEX
8
CUT
10
142.9266
20
168.4635
30
0
0
VERTEX
8
CUT
10
142.7135
20
168.8817
30
0
0
VERTEX
8
CUT
10
142.3817
20
169.2135
30
0
0
VERTEX
8
CUT
10
141.9635
20
169.4266
30
0
0
VERTEX
8
CUT
10
141.5000
20
169.5000
30
0
0
VERTEX
8
CUT
10
40.5000
20
169.5000
30
0
0
VERTEX
8
CUT
10
40.0365
20
169.4266
30
0
0
VERTEX
8
CUT
10
39.6183
20
169.2135
30
0
0
VERTEX
8
CUT
10
39.2865
20
168.8817
30
0
0
VERTEX
8
CUT
10
39.0734
20
168.4635
30
0
0
VERTEX
8
CUT
10
39.0000
20
168.0000
30
0
0
VERTEX
8
CUT
10
39.0000
20
168.0000
30
0
0
VERTEX
8
CUT
10
39.0734
20
167.5365
30
0
0
VERTEX
8
CUT
10
39.2865
20
167.1183
30
0
0
VERTEX
8
CUT
10
39.6183
20
166.7865
30
0
0
VERTEX
8
CUT
10
40.0365
20
166.5734
30
0
0
VERTEX
8
CUT
10
40.5000
20
166.5000
30
0
0
VERTEX
8
CUT
10
141.5000
20
166.5000
30
0
0
VERTEX
8
CUT
10
141.9635
20
166.5734
30
0
0
VERTEX
8
CUT
10
142.3817
20
166.7865
30
0
0
VERTEX
8
CUT
10
142.7135
20
167.1183
30
0
0
VERTEX
8
CUT
10
142.9266
20
167.5365
30
0
0
VERTEX
8
CUT
10
143.0000
20
168.0000
30
0
0
SEQEND
8
CUT
0
POLYLINE
8
CUT
66
1
70
1
0
VERTEX
8
CUT
10
143.0000
20
176.0000
30
0
0
VERTEX
8
CUT
10
142.9266
20
176.4635
30
0
0
VERTEX
8
CUT
10
142.7135
20
176.8817
30
0
0
VERTEX
8
CUT
10
142.3817
20
177.2135
30
0
0
VERTEX
8
CUT
10
141.9635
20
177.4266
30
0
0
VERTEX
8
CUT
10
141.5000
20
177.5000
30
0
0
VERTEX
8
CUT
10
40.5000
20
177.5000
30
0
0
VERTEX
8
CUT
10
40.0365
20
177.4266
30
0
0
VERTEX
8
CUT
10
39.6183
20
177.2135
30
0
0
VERTEX
8
CUT
10
39.2865
20
176.8817
30
0
0
VERTEX
8
CUT
10
39.0734
20
176.4635
30
0
0
VERTEX
8
CUT
10
39.0000
20
176.0000
30
0
0
VERTEX
8
CUT
10
39.0000
20
176.0000
30
0
0
VERTEX
8
CUT
10
39.0734
20
175.5365
30
0
0
VERTEX
8
CUT
10
39.2865
20
175.1183
30
0
0
VERTEX
8
CUT
10
39.6183
20
174.7865
30
0
0
VERTEX
8
CUT
10
40.0365
20
174.5734
30
0
0
VERTEX
8
CUT
10
40.5000
20
174.5000
30
0
0
VERTEX
8
CUT
10
141.5000
20
174.5000
30
0
0
VERTEX
8
CUT
10
141.9635
20
174.5734
30
0
0
VERTEX
8
CUT
10
142.3817
20
174.7865
30
0
0
VERTEX
8
CUT
10
142.7135
20
175.1183
30
0
0
VERTEX
8
CUT
10
142.9266
20
175.5365
30
0
0
VERTEX
8
CUT
10
143.0000
20
176.0000
30
0
0
SEQEND
8
CUT
0
ENDSEC
0
EOF
