0
SECTION
2
HEADER
9
$ACADVER
1
AC1009
9
$MEASUREMENT
70
1
0
ENDSEC
0
SECTION
2
ENTITIES
0
POLYLINE
8
CUT
66
1
70
1
0
VERTEX
8
CUT
10
0.0000
20
0.0000
30
0
0
VERTEX
8
CUT
10
0.0000
20
3.0000
30
0
0
VERTEX
8
CUT
10
15.6967
20
3.0000
30
0
0
VERTEX
8
CUT
10
15.6967
20
0.0000
30
0
0
VERTEX
8
CUT
10
31.3033
20
0.0000
30
0
0
VERTEX
8
CUT
10
31.3033
20
3.0000
30
0
0
VERTEX
8
CUT
10
47.0300
20
3.0000
30
0
0
VERTEX
8
CUT
10
47.0300
20
0.0000
30
0
0
VERTEX
8
CUT
10
62.6367
20
0.0000
30
0
0
VERTEX
8
CUT
10
62.6367
20
3.0000
30
0
0
VERTEX
8
CUT
10
78.3633
20
3.0000
30
0
0
VERTEX
8
CUT
10
78.3633
20
0.0000
30
0
0
VERTEX
8
CUT
10
93.9700
20
0.0000
30
0
0
VERTEX
8
CUT
10
93.9700
20
3.0000
30
0
0
VERTEX
8
CUT
10
109.6967
20
3.0000
30
0
0
VERTEX
8
CUT
10
109.6967
20
0.0000
30
0
0
VERTEX
8
CUT
10
125.3033
20
0.0000
30
0
0
VERTEX
8
CUT
10
125.3033
20
3.0000
30
0
0
VERTEX
8
CUT
10
141.0300
20
3.0000
30
0
0
VERTEX
8
CUT
10
141.0300
20
0.0000
30
0
0
VERTEX
8
CUT
10
156.6367
20
0.0000
30
0
0
VERTEX
8
CUT
10
156.6367
20
3.0000
30
0
0
VERTEX
8
CUT
10
172.3633
20
3.0000
30
0
0
VERTEX
8
CUT
10
172.3633
20
0.0000
30
0
0
VERTEX
8
CUT
10
187.9700
20
0.0000
30
0
0
VERTEX
8
CUT
10
187.9700
20
3.0000
30
0
0
VERTEX
8
CUT
10
203.6967
20
3.0000
30
0
0
VERTEX
8
CUT
10
203.6967
20
0.0000
30
0
0
VERTEX
8
CUT
10
219.3033
20
0.0000
30
0
0
VERTEX
8
CUT
10
219.3033
20
3.0000
30
0
0
VERTEX
8
CUT
10
235.0300
20
3.0000
30
0
0
VERTEX
8
CUT
10
235.0300
20
0.0000
30
0
0
VERTEX
8
CUT
10
250.6367
20
0.0000
30
0
0
VERTEX
8
CUT
10
250.6367
20
3.0000
30
0
0
VERTEX
8
CUT
10
266.3633
20
3.0000
30
0
0
VERTEX
8
CUT
10
266.3633
20
0.0000
30
0
0
VERTEX
8
CUT
10
281.9700
20
0.0000
30
0
0
VERTEX
8
CUT
10
281.9700
20
3.0000
30
0
0
VERTEX
8
CUT
10
297.6967
20
3.0000
30
0
0
VERTEX
8
CUT
10
297.6967
20
0.0000
30
0
0
VERTEX
8
CUT
10
313.3033
20
0.0000
30
0
0
VERTEX
8
CUT
10
313.3033
20
3.0000
30
0
0
VERTEX
8
CUT
10
329.0000
20
3.0000
30
0
0
VERTEX
8
CUT
10
326.0000
20
0.0000
30
0
0
VERTEX
8
CUT
10
326.0000
20
15.8762
30
0
0
VERTEX
8
CUT
10
329.0000
20
15.8762
30
0
0
VERTEX
8
CUT
10
329.0000
20
31.6623
30
0
0
VERTEX
8
CUT
10
326.0000
20
31.6623
30
0
0
VERTEX
8
CUT
10
326.0000
20
47.5685
30
0
0
VERTEX
8
CUT
10
329.0000
20
47.5685
30
0
0
VERTEX
8
CUT
10
329.0000
20
63.3546
30
0
0
VERTEX
8
CUT
10
326.0000
20
63.3546
30
0
0
VERTEX
8
CUT
10
326.0000
20
79.2608
30
0
0
VERTEX
8
CUT
10
329.0000
20
79.2608
30
0
0
VERTEX
8
CUT
10
329.0000
20
95.0469
30
0
0
VERTEX
8
CUT
10
326.0000
20
95.0469
30
0
0
VERTEX
8
CUT
10
326.0000
20
110.9531
30
0
0
VERTEX
8
CUT
10
329.0000
20
110.9531
30
0
0
VERTEX
8
CUT
10
329.0000
20
126.7392
30
0
0
VERTEX
8
CUT
10
326.0000
20
126.7392
30
0
0
VERTEX
8
CUT
10
326.0000
20
142.6454
30
0
0
VERTEX
8
CUT
10
329.0000
20
142.6454
30
0
0
VERTEX
8
CUT
10
329.0000
20
158.4315
30
0
0
VERTEX
8
CUT
10
326.0000
20
158.4315
30
0
0
VERTEX
8
CUT
10
326.0000
20
174.3377
30
0
0
VERTEX
8
CUT
10
329.0000
20
174.3377
30
0
0
VERTEX
8
CUT
10
329.0000
20
190.1238
30
0
0
VERTEX
8
CUT
10
326.0000
20
190.1238
30
0
0
VERTEX
8
CUT
10
326.0000
20
206.0000
30
0
0
VERTEX
8
CUT
10
329.0000
20
203.0000
30
0
0
VERTEX
8
CUT
10
313.3033
20
203.0000
30
0
0
VERTEX
8
CUT
10
313.3033
20
206.0000
30
0
0
VERTEX
8
CUT
10
297.6967
20
206.0000
30
0
0
VERTEX
8
CUT
10
297.6967
20
203.0000
30
0
0
VERTEX
8
CUT
10
281.9700
20
203.0000
30
0
0
VERTEX
8
CUT
10
281.9700
20
206.0000
30
0
0
VERTEX
8
CUT
10
266.3633
20
206.0000
30
0
0
VERTEX
8
CUT
10
266.3633
20
203.0000
30
0
0
VERTEX
8
CUT
10
250.6367
20
203.0000
30
0
0
VERTEX
8
CUT
10
250.6367
20
206.0000
30
0
0
VERTEX
8
CUT
10
235.0300
20
206.0000
30
0
0
VERTEX
8
CUT
10
235.0300
20
203.0000
30
0
0
VERTEX
8
CUT
10
219.3033
20
203.0000
30
0
0
VERTEX
8
CUT
10
219.3033
20
206.0000
30
0
0
VERTEX
8
CUT
10
203.6967
20
206.0000
30
0
0
VERTEX
8
CUT
10
203.6967
20
203.0000
30
0
0
VERTEX
8
CUT
10
187.9700
20
203.0000
30
0
0
VERTEX
8
CUT
10
187.9700
20
206.0000
30
0
0
VERTEX
8
CUT
10
172.3633
20
206.0000
30
0
0
VERTEX
8
CUT
10
172.3633
20
203.0000
30
0
0
VERTEX
8
CUT
10
156.6367
20
203.0000
30
0
0
VERTEX
8
CUT
10
156.6367
20
206.0000
30
0
0
VERTEX
8
CUT
10
141.0300
20
206.0000
30
0
0
VERTEX
8
CUT
10
141.0300
20
203.0000
30
0
0
VERTEX
8
CUT
10
125.3033
20
203.0000
30
0
0
VERTEX
8
CUT
10
125.3033
20
206.0000
30
0
0
VERTEX
8
CUT
10
109.6967
20
206.0000
30
0
0
VERTEX
8
CUT
10
109.6967
20
203.0000
30
0
0
VERTEX
8
CUT
10
93.9700
20
203.0000
30
0
0
VERTEX
8
CUT
10
93.9700
20
206.0000
30
0
0
VERTEX
8
CUT
10
78.3633
20
206.0000
30
0
0
VERTEX
8
CUT
10
78.3633
20
203.0000
30
0
0
VERTEX
8
CUT
10
62.6367
20
203.0000
30
0
0
VERTEX
8
CUT
10
62.6367
20
206.0000
30
0
0
VERTEX
8
CUT
10
47.0300
20
206.0000
30
0
0
VERTEX
8
CUT
10
47.0300
20
203.0000
30
0
0
VERTEX
8
CUT
10
31.3033
20
203.0000
30
0
0
VERTEX
8
CUT
10
31.3033
20
206.0000
30
0
0
VERTEX
8
CUT
10
15.6967
20
206.0000
30
0
0
VERTEX
8
CUT
10
15.6967
20
203.0000
30
0
0
VERTEX
8
CUT
10
0.0000
20
203.0000
30
0
0
VERTEX
8
CUT
10
3.0000
20
206.0000
30
0
0
VERTEX
8
CUT
10
3.0000
20
190.1238
30
0
0
VERTEX
8
CUT
10
0.0000
20
190.1238
30
0
0
VERTEX
8
CUT
10
0.0000
20
174.3377
30
0
0
VERTEX
8
CUT
10
3.0000
20
174.3377
30
0
0
VERTEX
8
CUT
10
3.0000
20
158.4315
30
0
0
VERTEX
8
CUT
10
0.0000
20
158.4315
30
0
0
VERTEX
8
CUT
10
0.0000
20
142.6454
30
0
0
VERTEX
8
CUT
10
3.0000
20
142.6454
30
0
0
VERTEX
8
CUT
10
3.0000
20
126.7392
30
0
0
VERTEX
8
CUT
10
0.0000
20
126.7392
30
0
0
VERTEX
8
CUT
10
0.0000
20
110.9531
30
0
0
VERTEX
8
CUT
10
3.0000
20
110.9531
30
0
0
VERTEX
8
CUT
10
3.0000
20
95.0469
30
0
0
VERTEX
8
CUT
10
0.0000
20
95.0469
30
0
0
VERTEX
8
CUT
10
0.0000
20
79.2608
30
0
0
VERTEX
8
CUT
10
3.0000
20
79.2608
30
0
0
VERTEX
8
CUT
10
3.0000
20
63.3546
30
0
0
VERTEX
8
CUT
10
0.0000
20
63.3546
30
0
0
VERTEX
8
CUT
10
0.0000
20
47.5685
30
0
0
VERTEX
8
CUT
10
3.0000
20
47.5685
30
0
0
VERTEX
8
CUT
10
3.0000
20
31.6623
30
0
0
VERTEX
8
CUT
10
0.0000
20
31.6623
30
0
0
VERTEX
8
CUT
10
0.0000
20
15.8762
30
0
0
VERTEX
8
CUT
10
3.0000
20
15.8762
30
0
0
VERTEX
8
CUT
10
3.0000
20
0.0000
30
0
0
SEQEND
8
CUT
0
POLYLINE
8
CUT
66
1
70
1
0
VERTEX
8
CUT
10
117.0000
20
40.0000
30
0
0
VERTEX
8
CUT
10
116.9266
20
40.4635
30
0
0
VERTEX
8
CUT
10
116.7135
20
40.8817
30
0
0
VERTEX
8
CUT
10
116.3817
20
41.2135
30
0
0
VERTEX
8
CUT
10
115.9635
20
41.4266
30
0
0
VERTEX
8
CUT
10
115.5000
20
41.5000
30
0
0
VERTEX
8
CUT
10
56.5000
20
41.5000
30
0
0
VERTEX
8
CUT
10
56.0365
20
41.4266
30
0
0
VERTEX
8
CUT
10
55.6183
20
41.2135
30
0
0
VERTEX
8
CUT
10
55.2865
20
40.8817
30
0
0
VERTEX
8
CUT
10
55.0734
20
40.4635
30
0
0
VERTEX
8
CUT
10
55.0000
20
40.0000
30
0
0
VERTEX
8
CUT
10
55.0000
20
40.0000
30
0
0
VERTEX
8
CUT
10
55.0734
20
39.5365
30
0
0
VERTEX
8
CUT
10
55.2865
20
39.1183
30
0
0
VERTEX
8
CUT
10
55.6183
20
38.7865
30
0
0
VERTEX
8
CUT
10
56.0365
20
38.5734
30
0
0
VERTEX
8
CUT
10
56.5000
20
38.5000
30
0
0
VERTEX
8
CUT
10
115.5000
20
38.5000
30
0
0
VERTEX
8
CUT
10
115.9635
20
38.5734
30
0
0
VERTEX
8
CUT
10
116.3817
20
38.7865
30
0
0
VERTEX
8
CUT
10
116.7135
20
39.1183
30
0
0
VERTEX
8
CUT
10
116.9266
20
39.5365
30
0
0
VERTEX
8
CUT
10
117.0000
20
40.0000
30
0
0
SEQEND
8
CUT
0
POLYLINE
8
CUT
66
1
70
1
0
VERTEX
8
CUT
10
117.0000
20
47.0000
30
0
0
VERTEX
8
CUT
10
116.9266
20
47.4635
30
0
0
VERTEX
8
CUT
10
116.7135
20
47.8817
30
0
0
VERTEX
8
CUT
10
116.3817
20
48.2135
30
0
0
VERTEX
8
CUT
10
115.9635
20
48.4266
30
0
0
VERTEX
8
CUT
10
115.5000
20
48.5000
30
0
0
VERTEX
8
CUT
10
56.5000
20
48.5000
30
0
0
VERTEX
8
CUT
10
56.0365
20
48.4266
30
0
0
VERTEX
8
CUT
10
55.6183
20
48.2135
30
0
0
VERTEX
8
CUT
10
55.2865
20
47.8817
30
0
0
VERTEX
8
CUT
10
55.0734
20
47.4635
30
0
0
VERTEX
8
CUT
10
55.0000
20
47.0000
30
0
0
VERTEX
8
CUT
10
55.0000
20
47.0000
30
0
0
VERTEX
8
CUT
10
55.0734
20
46.5365
30
0
0
VERTEX
8
CUT
10
55.2865
20
46.1183
30
0
0
VERTEX
8
CUT
10
55.6183
20
45.7865
30
0
0
VERTEX
8
CUT
10
56.0365
20
45.5734
30
0
0
VERTEX
8
CUT
10
56.5000
20
45.5000
30
0
0
VERTEX
8
CUT
10
115.5000
20
45.5000
30
0
0
VERTEX
8
CUT
10
115.9635
20
45.5734
30
0
0
VERTEX
8
CUT
10
116.3817
20
45.7865
30
0
0
VERTEX
8
CUT
10
116.7135
20
46.1183
30
0
0
VERTEX
8
CUT
10
116.9266
20
46.5365
30
0
0
VERTEX
8
CUT
10
117.0000
20
47.0000
30
0
0
SEQEND
8
CUT
0
POLYLINE
8
CUT
66
1
70
1
0
VERTEX
8
CUT
10
117.0000
20
54.0000
30
0
0
VERTEX
8
CUT
10
116.9266
20
54.4635
30
0
0
VERTEX
8
CUT
10
116.7135
20
54.8817
30
0
0
VERTEX
8
CUT
10
116.3817
20
55.2135
30
0
0
VERTEX
8
CUT
10
115.9635
20
55.4266
30
0
0
VERTEX
8
CUT
10
115.5000
20
55.5000
30
0
0
VERTEX
8
CUT
10
56.5000
20
55.5000
30
0
0
VERTEX
8
CUT
10
56.0365
20
55.4266
30
0
0
VERTEX
8
CUT
10
55.6183
20
55.2135
30
0
0
VERTEX
8
CUT
10
55.2865
20
54.8817
30
0
0
VERTEX
8
CUT
10
55.0734
20
54.4635
30
0
0
VERTEX
8
CUT
10
55.0000
20
54.0000
30
0
0
VERTEX
8
CUT
10
55.0000
20
54.0000
30
0
0
VERTEX
8
CUT
10
55.0734
20
53.5365
30
0
0
VERTEX
8
CUT
10
55.2865
20
53.1183
30
0
0
VERTEX
8
CUT
10
55.6183
20
52.7865
30
0
0
VERTEX
8
CUT
10
56.0365
20
52.5734
30
0
0
VERTEX
8
CUT
10
56.5000
20
52.5000
30
0
0
VERTEX
8
CUT
10
115.5000
20
52.5000
30
0
0
VERTEX
8
CUT
10
115.9635
20
52.5734
30
0
0
VERTEX
8
CUT
10
116.3817
20
52.7865
30
0
0
VERTEX
8
CUT
10
116.7135
20
53.1183
30
0
0
VERTEX
8
CUT
10
116.9266
20
53.5365
30
0
0
VERTEX
8
CUT
10
117.0000
20
54.0000
30
0
0
SEQEND
8
CUT
0
POLYLINE
8
CUT
66
1
70
1
0
VERTEX
8
CUT
10
117.0000
20
61.0000
30
0
0
VERTEX
8
CUT
10
116.9266
20
61.4635
30
0
0
VERTEX
8
CUT
10
116.7135
20
61.8817
30
0
0
VERTEX
8
CUT
10
116.3817
20
62.2135
30
0
0
VERTEX
8
CUT
10
115.9635
20
62.4266
30
0
0
VERTEX
8
CUT
10
115.5000
20
62.5000
30
0
0
VERTEX
8
CUT
10
56.5000
20
62.5000
30
0
0
VERTEX
8
CUT
10
56.0365
20
62.4266
30
0
0
VERTEX
8
CUT
10
55.6183
20
62.2135
30
0
0
VERTEX
8
CUT
10
55.2865
20
61.8817
30
0
0
VERTEX
8
CUT
10
55.0734
20
61.4635
30
0
0
VERTEX
8
CUT
10
55.0000
20
61.0000
30
0
0
VERTEX
8
CUT
10
55.0000
20
61.0000
30
0
0
VERTEX
8
CUT
10
55.0734
20
60.5365
30
0
0
VERTEX
8
CUT
10
55.2865
20
60.1183
30
0
0
VERTEX
8
CUT
10
55.6183
20
59.7865
30
0
0
VERTEX
8
CUT
10
56.0365
20
59.5734
30
0
0
VERTEX
8
CUT
10
56.5000
20
59.5000
30
0
0
VERTEX
8
CUT
10
115.5000
20
59.5000
30
0
0
VERTEX
8
CUT
10
115.9635
20
59.5734
30
0
0
VERTEX
8
CUT
10
116.3817
20
59.7865
30
0
0
VERTEX
8
CUT
10
116.7135
20
60.1183
30
0
0
VERTEX
8
CUT
10
116.9266
20
60.5365
30
0
0
VERTEX
8
CUT
10
117.0000
20
61.0000
30
0
0
SEQEND
8
CUT
0
POLYLINE
8
CUT
66
1
70
1
0
VERTEX
8
CUT
10
117.0000
20
68.0000
30
0
0
VERTEX
8
CUT
10
116.9266
20
68.4635
30
0
0
VERTEX
8
CUT
10
116.7135
20
68.8817
30
0
0
VERTEX
8
CUT
10
116.3817
20
69.2135
30
0
0
VERTEX
8
CUT
10
115.9635
20
69.4266
30
0
0
VERTEX
8
CUT
10
115.5000
20
69.5000
30
0
0
VERTEX
8
CUT
10
56.5000
20
69.5000
30
0
0
VERTEX
8
CUT
10
56.0365
20
69.4266
30
0
0
VERTEX
8
CUT
10
55.6183
20
69.2135
30
0
0
VERTEX
8
CUT
10
55.2865
20
68.8817
30
0
0
VERTEX
8
CUT
10
55.0734
20
68.4635
30
0
0
VERTEX
8
CUT
10
55.0000
20
68.0000
30
0
0
VERTEX
8
CUT
10
55.0000
20
68.0000
30
0
0
VERTEX
8
CUT
10
55.0734
20
67.5365
30
0
0
VERTEX
8
CUT
10
55.2865
20
67.1183
30
0
0
VERTEX
8
CUT
10
55.6183
20
66.7865
30
0
0
VERTEX
8
CUT
10
56.0365
20
66.5734
30
0
0
VERTEX
8
CUT
10
56.5000
20
66.5000
30
0
0
VERTEX
8
CUT
10
115.5000
20
66.5000
30
0
0
VERTEX
8
CUT
10
115.9635
20
66.5734
30
0
0
VERTEX
8
CUT
10
116.3817
20
66.7865
30
0
0
VERTEX
8
CUT
10
116.7135
20
67.1183
30
0
0
VERTEX
8
CUT
10
116.9266
20
67.5365
30
0
0
VERTEX
8
CUT
10
117.0000
20
68.0000
30
0
0
SEQEND
8
CUT
0
POLYLINE
8
CUT
66
1
70
1
0
VERTEX
8
CUT
10
117.0000
20
75.0000
30
0
0
VERTEX
8
CUT
10
116.9266
20
75.4635
30
0
0
VERTEX
8
CUT
10
116.7135
20
75.8817
30
0
0
VERTEX
8
CUT
10
116.3817
20
76.2135
30
0
0
VERTEX
8
CUT
10
115.9635
20
76.4266
30
0
0
VERTEX
8
CUT
10
115.5000
20
76.5000
30
0
0
VERTEX
8
CUT
10
56.5000
20
76.5000
30
0
0
VERTEX
8
CUT
10
56.0365
20
76.4266
30
0
0
VERTEX
8
CUT
10
55.6183
20
76.2135
30
0
0
VERTEX
8
CUT
10
55.2865
20
75.8817
30
0
0
VERTEX
8
CUT
10
55.0734
20
75.4635
30
0
0
VERTEX
8
CUT
10
55.0000
20
75.0000
30
0
0
VERTEX
8
CUT
10
55.0000
20
75.0000
30
0
0
VERTEX
8
CUT
10
55.0734
20
74.5365
30
0
0
VERTEX
8
CUT
10
55.2865
20
74.1183
30
0
0
VERTEX
8
CUT
10
55.6183
20
73.7865
30
0
0
VERTEX
8
CUT
10
56.0365
20
73.5734
30
0
0
VERTEX
8
CUT
10
56.5000
20
73.5000
30
0
0
VERTEX
8
CUT
10
115.5000
20
73.5000
30
0
0
VERTEX
8
CUT
10
115.9635
20
73.5734
30
0
0
VERTEX
8
CUT
10
116.3817
20
73.7865
30
0
0
VERTEX
8
CUT
10
116.7135
20
74.1183
30
0
0
VERTEX
8
CUT
10
116.9266
20
74.5365
30
0
0
VERTEX
8
CUT
10
117.0000
20
75.0000
30
0
0
SEQEND
8
CUT
0
POLYLINE
8
CUT
66
1
70
1
0
VERTEX
8
CUT
10
117.0000
20
82.0000
30
0
0
VERTEX
8
CUT
10
116.9266
20
82.4635
30
0
0
VERTEX
8
CUT
10
116.7135
20
82.8817
30
0
0
VERTEX
8
CUT
10
116.3817
20
83.2135
30
0
0
VERTEX
8
CUT
10
115.9635
20
83.4266
30
0
0
VERTEX
8
CUT
10
115.5000
20
83.5000
30
0
0
VERTEX
8
CUT
10
56.5000
20
83.5000
30
0
0
VERTEX
8
CUT
10
56.0365
20
83.4266
30
0
0
VERTEX
8
CUT
10
55.6183
20
83.2135
30
0
0
VERTEX
8
CUT
10
55.2865
20
82.8817
30
0
0
VERTEX
8
CUT
10
55.0734
20
82.4635
30
0
0
VERTEX
8
CUT
10
55.0000
20
82.0000
30
0
0
VERTEX
8
CUT
10
55.0000
20
82.0000
30
0
0
VERTEX
8
CUT
10
55.0734
20
81.5365
30
0
0
VERTEX
8
CUT
10
55.2865
20
81.1183
30
0
0
VERTEX
8
CUT
10
55.6183
20
80.7865
30
0
0
VERTEX
8
CUT
10
56.0365
20
80.5734
30
0
0
VERTEX
8
CUT
10
56.5000
20
80.5000
30
0
0
VERTEX
8
CUT
10
115.5000
20
80.5000
30
0
0
VERTEX
8
CUT
10
115.9635
20
80.5734
30
0
0
VERTEX
8
CUT
10
116.3817
20
80.7865
30
0
0
VERTEX
8
CUT
10
116.7135
20
81.1183
30
0
0
VERTEX
8
CUT
10
116.9266
20
81.5365
30
0
0
VERTEX
8
CUT
10
117.0000
20
82.0000
30
0
0
SEQEND
8
CUT
0
POLYLINE
8
CUT
66
1
70
1
0
VERTEX
8
CUT
10
117.0000
20
89.0000
30
0
0
VERTEX
8
CUT
10
116.9266
20
89.4635
30
0
0
VERTEX
8
CUT
10
116.7135
20
89.8817
30
0
0
VERTEX
8
CUT
10
116.3817
20
90.2135
30
0
0
VERTEX
8
CUT
10
115.9635
20
90.4266
30
0
0
VERTEX
8
CUT
10
115.5000
20
90.5000
30
0
0
VERTEX
8
CUT
10
56.5000
20
90.5000
30
0
0
VERTEX
8
CUT
10
56.0365
20
90.4266
30
0
0
VERTEX
8
CUT
10
55.6183
20
90.2135
30
0
0
VERTEX
8
CUT
10
55.2865
20
89.8817
30
0
0
VERTEX
8
CUT
10
55.0734
20
89.4635
30
0
0
VERTEX
8
CUT
10
55.0000
20
89.0000
30
0
0
VERTEX
8
CUT
10
55.0000
20
89.0000
30
0
0
VERTEX
8
CUT
10
55.0734
20
88.5365
30
0
0
VERTEX
8
CUT
10
55.2865
20
88.1183
30
0
0
VERTEX
8
CUT
10
55.6183
20
87.7865
30
0
0
VERTEX
8
CUT
10
56.0365
20
87.5734
30
0
0
VERTEX
8
CUT
10
56.5000
20
87.5000
30
0
0
VERTEX
8
CUT
10
115.5000
20
87.5000
30
0
0
VERTEX
8
CUT
10
115.9635
20
87.5734
30
0
0
VERTEX
8
CUT
10
116.3817
20
87.7865
30
0
0
VERTEX
8
CUT
10
116.7135
20
88.1183
30
0
0
VERTEX
8
CUT
10
116.9266
20
88.5365
30
0
0
VERTEX
8
CUT
10
117.0000
20
89.0000
30
0
0
SEQEND
8
CUT
0
POLYLINE
8
CUT
66
1
70
1
0
VERTEX
8
CUT
10
211.0000
20
121.0000
30
0
0
VERTEX
8
CUT
10
210.9266
20
121.4635
30
0
0
VERTEX
8
CUT
10
210.7135
20
121.8817
30
0
0
VERTEX
8
CUT
10
210.3817
20
122.2135
30
0
0
VERTEX
8
CUT
10
209.9635
20
122.4266
30
0
0
VERTEX
8
CUT
10
209.5000
20
122.5000
30
0
0
VERTEX
8
CUT
10
142.5000
20
122.5000
30
0
0
VERTEX
8
CUT
10
142.0365
20
122.4266
30
0
0
VERTEX
8
CUT
10
141.6183
20
122.2135
30
0
0
VERTEX
8
CUT
10
141.2865
20
121.8817
30
0
0
VERTEX
8
CUT
10
141.0734
20
121.4635
30
0
0
VERTEX
8
CUT
10
141.0000
20
121.0000
30
0
0
VERTEX
8
CUT
10
141.0000
20
121.0000
30
0
0
VERTEX
8
CUT
10
141.0734
20
120.5365
30
0
0
VERTEX
8
CUT
10
141.2865
20
120.1183
30
0
0
VERTEX
8
CUT
10
141.6183
20
119.7865
30
0
0
VERTEX
8
CUT
10
142.0365
20
119.5734
30
0
0
VERTEX
8
CUT
10
142.5000
20
119.5000
30
0
0
VERTEX
8
CUT
10
209.5000
20
119.5000
30
0
0
VERTEX
8
CUT
10
209.9635
20
119.5734
30
0
0
VERTEX
8
CUT
10
210.3817
20
119.7865
30
0
0
VERTEX
8
CUT
10
210.7135
20
120.1183
30
0
0
VERTEX
8
CUT
10
210.9266
20
120.5365
30
0
0
VERTEX
8
CUT
10
211.0000
20
121.0000
30
0
0
SEQEND
8
CUT
0
POLYLINE
8
CUT
66
1
70
1
0
VERTEX
8
CUT
10
211.0000
20
129.0000
30
0
0
VERTEX
8
CUT
10
210.9266
20
129.4635
30
0
0
VERTEX
8
CUT
10
210.7135
20
129.8817
30
0
0
VERTEX
8
CUT
10
210.3817
20
130.2135
30
0
0
VERTEX
8
CUT
10
209.9635
20
130.4266
30
0
0
VERTEX
8
CUT
10
209.5000
20
130.5000
30
0
0
VERTEX
8
CUT
10
142.5000
20
130.5000
30
0
0
VERTEX
8
CUT
10
142.0365
20
130.4266
30
0
0
VERTEX
8
CUT
10
141.6183
20
130.2135
30
0
0
VERTEX
8
CUT
10
141.2865
20
129.8817
30
0
0
VERTEX
8
CUT
10
141.0734
20
129.4635
30
0
0
VERTEX
8
CUT
10
141.0000
20
129.0000
30
0
0
VERTEX
8
CUT
10
141.0000
20
129.0000
30
0
0
VERTEX
8
CUT
10
141.0734
20
128.5365
30
0
0
VERTEX
8
CUT
10
141.2865
20
128.1183
30
0
0
VERTEX
8
CUT
10
141.6183
20
127.7865
30
0
0
VERTEX
8
CUT
10
142.0365
20
127.5734
30
0
0
VERTEX
8
CUT
10
142.5000
20
127.5000
30
0
0
VERTEX
8
CUT
10
209.5000
20
127.5000
30
0
0
VERTEX
8
CUT
10
209.9635
20
127.5734
30
0
0
VERTEX
8
CUT
10
210.3817
20
127.7865
30
0
0
VERTEX
8
CUT
10
210.7135
20
128.1183
30
0
0
VERTEX
8
CUT
10
210.9266
20
128.5365
30
0
0
VERTEX
8
CUT
10
211.0000
20
129.0000
30
0
0
SEQEND
8
CUT
0
POLYLINE
8
CUT
66
1
70
1
0
VERTEX
8
CUT
10
211.0000
20
137.0000
30
0
0
VERTEX
8
CUT
10
210.9266
20
137.4635
30
0
0
VERTEX
8
CUT
10
210.7135
20
137.8817
30
0
0
VERTEX
8
CUT
10
210.3817
20
138.2135
30
0
0
VERTEX
8
CUT
10
209.9635
20
138.4266
30
0
0
VERTEX
8
CUT
10
209.5000
20
138.5000
30
0
0
VERTEX
8
CUT
10
142.5000
20
138.5000
30
0
0
VERTEX
8
CUT
10
142.0365
20
138.4266
30
0
0
VERTEX
8
CUT
10
141.6183
20
138.2135
30
0
0
VERTEX
8
CUT
10
141.2865
20
137.8817
30
0
0
VERTEX
8
CUT
10
141.0734
20
137.4635
30
0
0
VERTEX
8
CUT
10
141.0000
20
137.0000
30
0
0
VERTEX
8
CUT
10
141.0000
20
137.0000
30
0
0
VERTEX
8
CUT
10
141.0734
20
136.5365
30
0
0
VERTEX
8
CUT
10
141.2865
20
136.1183
30
0
0
VERTEX
8
CUT
10
141.6183
20
135.7865
30
0
0
VERTEX
8
CUT
10
142.0365
20
135.5734
30
0
0
VERTEX
8
CUT
10
142.5000
20
135.5000
30
0
0
VERTEX
8
CUT
10
209.5000
20
135.5000
30
0
0
VERTEX
8
CUT
10
209.9635
20
135.5734
30
0
0
VERTEX
8
CUT
10
210.3817
20
135.7865
30
0
0
VERTEX
8
CUT
10
210.7135
20
136.1183
30
0
0
VERTEX
8
CUT
10
210.9266
20
136.5365
30
0
0
VERTEX
8
CUT
10
211.0000
20
137.0000
30
0
0
SEQEND
8
CUT
0
POLYLINE
8
CUT
66
1
70
1
0
VERTEX
8
CUT
10
211.0000
20
145.0000
30
0
0
VERTEX
8
CUT
10
210.9266
20
145.4635
30
0
0
VERTEX
8
CUT
10
210.7135
20
145.8817
30
0
0
VERTEX
8
CUT
10
210.3817
20
146.2135
30
0
0
VERTEX
8
CUT
10
209.9635
20
146.4266
30
0
0
VERTEX
8
CUT
10
209.5000
20
146.5000
30
0
0
VERTEX
8
CUT
10
142.5000
20
146.5000
30
0
0
VERTEX
8
CUT
10
142.0365
20
146.4266
30
0
0
VERTEX
8
CUT
10
141.6183
20
146.2135
30
0
0
VERTEX
8
CUT
10
141.2865
20
145.8817
30
0
0
VERTEX
8
CUT
10
141.0734
20
145.4635
30
0
0
VERTEX
8
CUT
10
141.0000
20
145.0000
30
0
0
VERTEX
8
CUT
10
141.0000
20
145.0000
30
0
0
VERTEX
8
CUT
10
141.0734
20
144.5365
30
0
0
VERTEX
8
CUT
10
141.2865
20
144.1183
30
0
0
VERTEX
8
CUT
10
141.6183
20
143.7865
30
0
0
VERTEX
8
CUT
10
142.0365
20
143.5734
30
0
0
VERTEX
8
CUT
10
142.5000
20
143.5000
30
0
0
VERTEX
8
CUT
10
209.5000
20
143.5000
30
0
0
VERTEX
8
CUT
10
209.9635
20
143.5734
30
0
0
VERTEX
8
CUT
10
210.3817
20
143.7865
30
0
0
VERTEX
8
CUT
10
210.7135
20
144.1183
30
0
0
VERTEX
8
CUT
10
210.9266
20
144.5365
30
0
0
VERTEX
8
CUT
10
211.0000
20
145.0000
30
0
0
SEQEND
8
CUT
0
POLYLINE
8
CUT
66
1
70
1
0
VERTEX
8
CUT
10
211.0000
20
153.0000
30
0
0
VERTEX
8
CUT
10
210.9266
20
153.4635
30
0
0
VERTEX
8
CUT
10
210.7135
20
153.8817
30
0
0
VERTEX
8
CUT
10
210.3817
20
154.2135
30
0
0
VERTEX
8
CUT
10
209.9635
20
154.4266
30
0
0
VERTEX
8
CUT
10
209.5000
20
154.5000
30
0
0
VERTEX
8
CUT
10
142.5000
20
154.5000
30
0
0
VERTEX
8
CUT
10
142.0365
20
154.4266
30
0
0
VERTEX
8
CUT
10
141.6183
20
154.2135
30
0
0
VERTEX
8
CUT
10
141.2865
20
153.8817
30
0
0
VERTEX
8
CUT
10
141.0734
20
153.4635
30
0
0
VERTEX
8
CUT
10
141.0000
20
153.0000
30
0
0
VERTEX
8
CUT
10
141.0000
20
153.0000
30
0
0
VERTEX
8
CUT
10
141.0734
20
152.5365
30
0
0
VERTEX
8
CUT
10
141.2865
20
152.1183
30
0
0
VERTEX
8
CUT
10
141.6183
20
151.7865
30
0
0
VERTEX
8
CUT
10
142.0365
20
151.5734
30
0
0
VERTEX
8
CUT
10
142.5000
20
151.5000
30
0
0
VERTEX
8
CUT
10
209.5000
20
151.5000
30
0
0
VERTEX
8
CUT
10
209.9635
20
151.5734
30
0
0
VERTEX
8
CUT
10
210.3817
20
151.7865
30
0
0
VERTEX
8
CUT
10
210.7135
20
152.1183
30
0
0
VERTEX
8
CUT
10
210.9266
20
152.5365
30
0
0
VERTEX
8
CUT
10
211.0000
20
153.0000
30
0
0
SEQEND
8
CUT
0
POLYLINE
8
CUT
66
1
70
1
0
VERTEX
8
CUT
10
211.0000
20
161.0000
30
0
0
VERTEX
8
CUT
10
210.9266
20
161.4635
30
0
0
VERTEX
8
CUT
10
210.7135
20
161.8817
30
0
0
VERTEX
8
CUT
10
210.3817
20
162.2135
30
0
0
VERTEX
8
CUT
10
209.9635
20
162.4266
30
0
0
VERTEX
8
CUT
10
209.5000
20
162.5000
30
0
0
VERTEX
8
CUT
10
142.5000
20
162.5000
30
0
0
VERTEX
8
CUT
10
142.0365
20
162.4266
30
0
0
VERTEX
8
CUT
10
141.6183
20
162.2135
30
0
0
VERTEX
8
CUT
10
141.2865
20
161.8817
30
0
0
VERTEX
8
CUT
10
141.0734
20
161.4635
30
0
0
VERTEX
8
CUT
10
141.0000
20
161.0000
30
0
0
VERTEX
8
CUT
10
141.0000
20
161.0000
30
0
0
VERTEX
8
CUT
10
141.0734
20
160.5365
30
0
0
VERTEX
8
CUT
10
141.2865
20
160.1183
30
0
0
VERTEX
8
CUT
10
141.6183
20
159.7865
30
0
0
VERTEX
8
CUT
10
142.0365
20
159.5734
30
0
0
VERTEX
8
CUT
10
142.5000
20
159.5000
30
0
0
VERTEX
8
CUT
10
209.5000
20
159.5000
30
0
0
VERTEX
8
CUT
10
209.9635
20
159.5734
30
0
0
VERTEX
8
CUT
10
210.3817
20
159.7865
30
0
0
VERTEX
8
CUT
10
210.7135
20
160.1183
30
0
0
VERTEX
8
CUT
10
210.9266
20
160.5365
30
0
0
VERTEX
8
CUT
10
211.0000
20
161.0000
30
0
0
SEQEND
8
CUT
0
POLYLINE
8
CUT
66
1
70
1
0
VERTEX
8
CUT
10
211.0000
20
169.0000
30
0
0
VERTEX
8
CUT
10
210.9266
20
169.4635
30
0
0
VERTEX
8
CUT
10
210.7135
20
169.8817
30
0
0
VERTEX
8
CUT
10
210.3817
20
170.2135
30
0
0
VERTEX
8
CUT
10
209.9635
20
170.4266
30
0
0
VERTEX
8
CUT
10
209.5000
20
170.5000
30
0
0
VERTEX
8
CUT
10
142.5000
20
170.5000
30
0
0
VERTEX
8
CUT
10
142.0365
20
170.4266
30
0
0
VERTEX
8
CUT
10
141.6183
20
170.2135
30
0
0
VERTEX
8
CUT
10
141.2865
20
169.8817
30
0
0
VERTEX
8
CUT
10
141.0734
20
169.4635
30
0
0
VERTEX
8
CUT
10
141.0000
20
169.0000
30
0
0
VERTEX
8
CUT
10
141.0000
20
169.0000
30
0
0
VERTEX
8
CUT
10
141.0734
20
168.5365
30
0
0
VERTEX
8
CUT
10
141.2865
20
168.1183
30
0
0
VERTEX
8
CUT
10
141.6183
20
167.7865
30
0
0
VERTEX
8
CUT
10
142.0365
20
167.5734
30
0
0
VERTEX
8
CUT
10
142.5000
20
167.5000
30
0
0
VERTEX
8
CUT
10
209.5000
20
167.5000
30
0
0
VERTEX
8
CUT
10
209.9635
20
167.5734
30
0
0
VERTEX
8
CUT
10
210.3817
20
167.7865
30
0
0
VERTEX
8
CUT
10
210.7135
20
168.1183
30
0
0
VERTEX
8
CUT
10
210.9266
20
168.5365
30
0
0
VERTEX
8
CUT
10
211.0000
20
169.0000
30
0
0
SEQEND
8
CUT
0
POLYLINE
8
CUT
66
1
70
1
0
VERTEX
8
CUT
10
211.0000
20
177.0000
30
0
0
VERTEX
8
CUT
10
210.9266
20
177.4635
30
0
0
VERTEX
8
CUT
10
210.7135
20
177.8817
30
0
0
VERTEX
8
CUT
10
210.3817
20
178.2135
30
0
0
VERTEX
8
CUT
10
209.9635
20
178.4266
30
0
0
VERTEX
8
CUT
10
209.5000
20
178.5000
30
0
0
VERTEX
8
CUT
10
142.5000
20
178.5000
30
0
0
VERTEX
8
CUT
10
142.0365
20
178.4266
30
0
0
VERTEX
8
CUT
10
141.6183
20
178.2135
30
0
0
VERTEX
8
CUT
10
141.2865
20
177.8817
30
0
0
VERTEX
8
CUT
10
141.0734
20
177.4635
30
0
0
VERTEX
8
CUT
10
141.0000
20
177.0000
30
0
0
VERTEX
8
CUT
10
141.0000
20
177.0000
30
0
0
VERTEX
8
CUT
10
141.0734
20
176.5365
30
0
0
VERTEX
8
CUT
10
141.2865
20
176.1183
30
0
0
VERTEX
8
CUT
10
141.6183
20
175.7865
30
0
0
VERTEX
8
CUT
10
142.0365
20
175.5734
30
0
0
VERTEX
8
CUT
10
142.5000
20
175.5000
30
0
0
VERTEX
8
CUT
10
209.5000
20
175.5000
30
0
0
VERTEX
8
CUT
10
209.9635
20
175.5734
30
0
0
VERTEX
8
CUT
10
210.3817
20
175.7865
30
0
0
VERTEX
8
CUT
10
210.7135
20
176.1183
30
0
0
VERTEX
8
CUT
10
210.9266
20
176.5365
30
0
0
VERTEX
8
CUT
10
211.0000
20
177.0000
30
0
0
SEQEND
8
CUT
0
POLYLINE
8
CUT
66
1
70
1
0
VERTEX
8
CUT
10
251.0000
20
182.5000
30
0
0
VERTEX
8
CUT
10
250.9511
20
182.8090
30
0
0
VERTEX
8
CUT
10
250.8090
20
183.0878
30
0
0
VERTEX
8
CUT
10
250.5878
20
183.3090
30
0
0
VERTEX
8
CUT
10
250.3090
20
183.4511
30
0
0
VERTEX
8
CUT
10
250.0000
20
183.5000
30
0
0
VERTEX
8
CUT
10
224.0000
20
183.5000
30
0
0
VERTEX
8
CUT
10
223.6910
20
183.4511
30
0
0
VERTEX
8
CUT
10
223.4122
20
183.3090
30
0
0
VERTEX
8
CUT
10
223.1910
20
183.0878
30
0
0
VERTEX
8
CUT
10
223.0489
20
182.8090
30
0
0
VERTEX
8
CUT
10
223.0000
20
182.5000
30
0
0
VERTEX
8
CUT
10
223.0000
20
169.5000
30
0
0
VERTEX
8
CUT
10
223.0489
20
169.1910
30
0
0
VERTEX
8
CUT
10
223.1910
20
168.9122
30
0
0
VERTEX
8
CUT
10
223.4122
20
168.6910
30
0
0
VERTEX
8
CUT
10
223.6910
20
168.5489
30
0
0
VERTEX
8
CUT
10
224.0000
20
168.5000
30
0
0
VERTEX
8
CUT
10
250.0000
20
168.5000
30
0
0
VERTEX
8
CUT
10
250.3090
20
168.5489
30
0
0
VERTEX
8
CUT
10
250.5878
20
168.6910
30
0
0
VERTEX
8
CUT
10
250.8090
20
168.9122
30
0
0
VERTEX
8
CUT
10
250.9511
20
169.1910
30
0
0
VERTEX
8
CUT
10
251.0000
20
169.5000
30
0
0
SEQEND
8
CUT
0
CIRCLE
8
CUT
10
278.0000
20
176.0000
30
0
40
3.7500
0
CIRCLE
8
CUT
10
298.0000
20
176.0000
30
0
40
1.6000
0
ENDSEC
0
EOF
