0
SECTION
2
HEADER
9
$ACADVER
1
AC1009
9
$MEASUREMENT
70
1
0
ENDSEC
0
SECTION
2
ENTITIES
0
POLYLINE
8
CUT
66
1
70
1
0
VERTEX
8
CUT
10
0.0000
20
0.0000
30
0
0
VERTEX
8
CUT
10
15.6367
20
0.0000
30
0
0
VERTEX
8
CUT
10
15.6367
20
3.0000
30
0
0
VERTEX
8
CUT
10
31.3633
20
3.0000
30
0
0
VERTEX
8
CUT
10
31.3633
20
0.0000
30
0
0
VERTEX
8
CUT
10
46.9700
20
0.0000
30
0
0
VERTEX
8
CUT
10
46.9700
20
3.0000
30
0
0
VERTEX
8
CUT
10
62.6967
20
3.0000
30
0
0
VERTEX
8
CUT
10
62.6967
20
0.0000
30
0
0
VERTEX
8
CUT
10
78.3033
20
0.0000
30
0
0
VERTEX
8
CUT
10
78.3033
20
3.0000
30
0
0
VERTEX
8
CUT
10
94.0300
20
3.0000
30
0
0
VERTEX
8
CUT
10
94.0300
20
0.0000
30
0
0
VERTEX
8
CUT
10
109.6367
20
0.0000
30
0
0
VERTEX
8
CUT
10
109.6367
20
3.0000
30
0
0
VERTEX
8
CUT
10
125.3633
20
3.0000
30
0
0
VERTEX
8
CUT
10
125.3633
20
0.0000
30
0
0
VERTEX
8
CUT
10
140.9700
20
0.0000
30
0
0
VERTEX
8
CUT
10
140.9700
20
3.0000
30
0
0
VERTEX
8
CUT
10
156.6967
20
3.0000
30
0
0
VERTEX
8
CUT
10
156.6967
20
0.0000
30
0
0
VERTEX
8
CUT
10
172.3033
20
0.0000
30
0
0
VERTEX
8
CUT
10
172.3033
20
3.0000
30
0
0
VERTEX
8
CUT
10
188.0300
20
3.0000
30
0
0
VERTEX
8
CUT
10
188.0300
20
0.0000
30
0
0
VERTEX
8
CUT
10
203.6367
20
0.0000
30
0
0
VERTEX
8
CUT
10
203.6367
20
3.0000
30
0
0
VERTEX
8
CUT
10
219.3633
20
3.0000
30
0
0
VERTEX
8
CUT
10
219.3633
20
0.0000
30
0
0
VERTEX
8
CUT
10
234.9700
20
0.0000
30
0
0
VERTEX
8
CUT
10
234.9700
20
3.0000
30
0
0
VERTEX
8
CUT
10
250.6967
20
3.0000
30
0
0
VERTEX
8
CUT
10
250.6967
20
0.0000
30
0
0
VERTEX
8
CUT
10
266.3033
20
0.0000
30
0
0
VERTEX
8
CUT
10
266.3033
20
3.0000
30
0
0
VERTEX
8
CUT
10
282.0300
20
3.0000
30
0
0
VERTEX
8
CUT
10
282.0300
20
0.0000
30
0
0
VERTEX
8
CUT
10
297.6367
20
0.0000
30
0
0
VERTEX
8
CUT
10
297.6367
20
3.0000
30
0
0
VERTEX
8
CUT
10
313.3633
20
3.0000
30
0
0
VERTEX
8
CUT
10
313.3633
20
0.0000
30
0
0
VERTEX
8
CUT
10
329.0000
20
0.0000
30
0
0
VERTEX
8
CUT
10
326.0000
20
0.0000
30
0
0
VERTEX
8
CUT
10
326.0000
20
14.4300
30
0
0
VERTEX
8
CUT
10
329.0000
20
14.4300
30
0
0
VERTEX
8
CUT
10
329.0000
20
28.7700
30
0
0
VERTEX
8
CUT
10
326.0000
20
28.7700
30
0
0
VERTEX
8
CUT
10
326.0000
20
43.2300
30
0
0
VERTEX
8
CUT
10
329.0000
20
43.2300
30
0
0
VERTEX
8
CUT
10
329.0000
20
57.5700
30
0
0
VERTEX
8
CUT
10
326.0000
20
57.5700
30
0
0
VERTEX
8
CUT
10
326.0000
20
72.0000
30
0
0
VERTEX
8
CUT
10
329.0000
20
72.0000
30
0
0
VERTEX
8
CUT
10
313.3633
20
72.0000
30
0
0
VERTEX
8
CUT
10
313.3633
20
69.0000
30
0
0
VERTEX
8
CUT
10
297.6367
20
69.0000
30
0
0
VERTEX
8
CUT
10
297.6367
20
72.0000
30
0
0
VERTEX
8
CUT
10
282.0300
20
72.0000
30
0
0
VERTEX
8
CUT
10
282.0300
20
69.0000
30
0
0
VERTEX
8
CUT
10
266.3033
20
69.0000
30
0
0
VERTEX
8
CUT
10
266.3033
20
72.0000
30
0
0
VERTEX
8
CUT
10
250.6967
20
72.0000
30
0
0
VERTEX
8
CUT
10
250.6967
20
69.0000
30
0
0
VERTEX
8
CUT
10
234.9700
20
69.0000
30
0
0
VERTEX
8
CUT
10
234.9700
20
72.0000
30
0
0
VERTEX
8
CUT
10
219.3633
20
72.0000
30
0
0
VERTEX
8
CUT
10
219.3633
20
69.0000
30
0
0
VERTEX
8
CUT
10
203.6367
20
69.0000
30
0
0
VERTEX
8
CUT
10
203.6367
20
72.0000
30
0
0
VERTEX
8
CUT
10
188.0300
20
72.0000
30
0
0
VERTEX
8
CUT
10
188.0300
20
69.0000
30
0
0
VERTEX
8
CUT
10
172.3033
20
69.0000
30
0
0
VERTEX
8
CUT
10
172.3033
20
72.0000
30
0
0
VERTEX
8
CUT
10
156.6967
20
72.0000
30
0
0
VERTEX
8
CUT
10
156.6967
20
69.0000
30
0
0
VERTEX
8
CUT
10
140.9700
20
69.0000
30
0
0
VERTEX
8
CUT
10
140.9700
20
72.0000
30
0
0
VERTEX
8
CUT
10
125.3633
20
72.0000
30
0
0
VERTEX
8
CUT
10
125.3633
20
69.0000
30
0
0
VERTEX
8
CUT
10
109.6367
20
69.0000
30
0
0
VERTEX
8
CUT
10
109.6367
20
72.0000
30
0
0
VERTEX
8
CUT
10
94.0300
20
72.0000
30
0
0
VERTEX
8
CUT
10
94.0300
20
69.0000
30
0
0
VERTEX
8
CUT
10
78.3033
20
69.0000
30
0
0
VERTEX
8
CUT
10
78.3033
20
72.0000
30
0
0
VERTEX
8
CUT
10
62.6967
20
72.0000
30
0
0
VERTEX
8
CUT
10
62.6967
20
69.0000
30
0
0
VERTEX
8
CUT
10
46.9700
20
69.0000
30
0
0
VERTEX
8
CUT
10
46.9700
20
72.0000
30
0
0
VERTEX
8
CUT
10
31.3633
20
72.0000
30
0
0
VERTEX
8
CUT
10
31.3633
20
69.0000
30
0
0
VERTEX
8
CUT
10
15.6367
20
69.0000
30
0
0
VERTEX
8
CUT
10
15.6367
20
72.0000
30
0
0
VERTEX
8
CUT
10
0.0000
20
72.0000
30
0
0
VERTEX
8
CUT
10
3.0000
20
72.0000
30
0
0
VERTEX
8
CUT
10
3.0000
20
57.5700
30
0
0
VERTEX
8
CUT
10
0.0000
20
57.5700
30
0
0
VERTEX
8
CUT
10
0.0000
20
43.2300
30
0
0
VERTEX
8
CUT
10
3.0000
20
43.2300
30
0
0
VERTEX
8
CUT
10
3.0000
20
28.7700
30
0
0
VERTEX
8
CUT
10
0.0000
20
28.7700
30
0
0
VERTEX
8
CUT
10
0.0000
20
14.4300
30
0
0
VERTEX
8
CUT
10
3.0000
20
14.4300
30
0
0
VERTEX
8
CUT
10
3.0000
20
0.0000
30
0
0
SEQEND
8
CUT
0
POLYLINE
8
CUT
66
1
70
1
0
VERTEX
8
CUT
10
26.5100
20
32.1000
30
0
0
VERTEX
8
CUT
10
26.4121
20
32.7180
30
0
0
VERTEX
8
CUT
10
26.1280
20
33.2756
30
0
0
VERTEX
8
CUT
10
25.6856
20
33.7180
30
0
0
VERTEX
8
CUT
10
25.1280
20
34.0021
30
0
0
VERTEX
8
CUT
10
24.5100
20
34.1000
30
0
0
VERTEX
8
CUT
10
10.5100
20
34.1000
30
0
0
VERTEX
8
CUT
10
9.8920
20
34.0021
30
0
0
VERTEX
8
CUT
10
9.3344
20
33.7180
30
0
0
VERTEX
8
CUT
10
8.8920
20
33.2756
30
0
0
VERTEX
8
CUT
10
8.6079
20
32.7180
30
0
0
VERTEX
8
CUT
10
8.5100
20
32.1000
30
0
0
VERTEX
8
CUT
10
8.5100
20
21.1000
30
0
0
VERTEX
8
CUT
10
8.6079
20
20.4820
30
0
0
VERTEX
8
CUT
10
8.8920
20
19.9244
30
0
0
VERTEX
8
CUT
10
9.3344
20
19.4820
30
0
0
VERTEX
8
CUT
10
9.8920
20
19.1979
30
0
0
VERTEX
8
CUT
10
10.5100
20
19.1000
30
0
0
VERTEX
8
CUT
10
24.5100
20
19.1000
30
0
0
VERTEX
8
CUT
10
25.1280
20
19.1979
30
0
0
VERTEX
8
CUT
10
25.6856
20
19.4820
30
0
0
VERTEX
8
CUT
10
26.1280
20
19.9244
30
0
0
VERTEX
8
CUT
10
26.4121
20
20.4820
30
0
0
VERTEX
8
CUT
10
26.5100
20
21.1000
30
0
0
SEQEND
8
CUT
0
POLYLINE
8
CUT
66
1
70
1
0
VERTEX
8
CUT
10
53.8780
20
29.3500
30
0
0
VERTEX
8
CUT
10
53.8291
20
29.6590
30
0
0
VERTEX
8
CUT
10
53.6870
20
29.9378
30
0
0
VERTEX
8
CUT
10
53.4658
20
30.1590
30
0
0
VERTEX
8
CUT
10
53.1870
20
30.3011
30
0
0
VERTEX
8
CUT
10
52.8780
20
30.3500
30
0
0
VERTEX
8
CUT
10
38.8780
20
30.3500
30
0
0
VERTEX
8
CUT
10
38.5690
20
30.3011
30
0
0
VERTEX
8
CUT
10
38.2902
20
30.1590
30
0
0
VERTEX
8
CUT
10
38.0690
20
29.9378
30
0
0
VERTEX
8
CUT
10
37.9269
20
29.6590
30
0
0
VERTEX
8
CUT
10
37.8780
20
29.3500
30
0
0
VERTEX
8
CUT
10
37.8780
20
23.8500
30
0
0
VERTEX
8
CUT
10
37.9269
20
23.5410
30
0
0
VERTEX
8
CUT
10
38.0690
20
23.2622
30
0
0
VERTEX
8
CUT
10
38.2902
20
23.0410
30
0
0
VERTEX
8
CUT
10
38.5690
20
22.8989
30
0
0
VERTEX
8
CUT
10
38.8780
20
22.8500
30
0
0
VERTEX
8
CUT
10
52.8780
20
22.8500
30
0
0
VERTEX
8
CUT
10
53.1870
20
22.8989
30
0
0
VERTEX
8
CUT
10
53.4658
20
23.0410
30
0
0
VERTEX
8
CUT
10
53.6870
20
23.2622
30
0
0
VERTEX
8
CUT
10
53.8291
20
23.5410
30
0
0
VERTEX
8
CUT
10
53.8780
20
23.8500
30
0
0
SEQEND
8
CUT
0
CIRCLE
8
CUT
10
69.6940
20
26.6000
30
0
40
5.2500
0
POLYLINE
8
CUT
66
1
70
1
0
VERTEX
8
CUT
10
121.5290
20
30.8500
30
0
0
VERTEX
8
CUT
10
121.4311
20
31.4680
30
0
0
VERTEX
8
CUT
10
121.1470
20
32.0256
30
0
0
VERTEX
8
CUT
10
120.7046
20
32.4680
30
0
0
VERTEX
8
CUT
10
120.1470
20
32.7521
30
0
0
VERTEX
8
CUT
10
119.5290
20
32.8500
30
0
0
VERTEX
8
CUT
10
86.0290
20
32.8500
30
0
0
VERTEX
8
CUT
10
85.4110
20
32.7521
30
0
0
VERTEX
8
CUT
10
84.8534
20
32.4680
30
0
0
VERTEX
8
CUT
10
84.4110
20
32.0256
30
0
0
VERTEX
8
CUT
10
84.1269
20
31.4680
30
0
0
VERTEX
8
CUT
10
84.0290
20
30.8500
30
0
0
VERTEX
8
CUT
10
84.0290
20
22.3500
30
0
0
VERTEX
8
CUT
10
84.1269
20
21.7320
30
0
0
VERTEX
8
CUT
10
84.4110
20
21.1744
30
0
0
VERTEX
8
CUT
10
84.8534
20
20.7320
30
0
0
VERTEX
8
CUT
10
85.4110
20
20.4479
30
0
0
VERTEX
8
CUT
10
86.0290
20
20.3500
30
0
0
VERTEX
8
CUT
10
119.5290
20
20.3500
30
0
0
VERTEX
8
CUT
10
120.1470
20
20.4479
30
0
0
VERTEX
8
CUT
10
120.7046
20
20.7320
30
0
0
VERTEX
8
CUT
10
121.1470
20
21.1744
30
0
0
VERTEX
8
CUT
10
121.4311
20
21.7320
30
0
0
VERTEX
8
CUT
10
121.5290
20
22.3500
30
0
0
SEQEND
8
CUT
0
CIRCLE
8
CUT
10
80.6140
20
26.6000
30
0
40
1.8000
0
CIRCLE
8
CUT
10
124.9440
20
26.6000
30
0
40
1.8000
0
CIRCLE
8
CUT
10
135.7340
20
26.6000
30
0
40
5.2500
0
CIRCLE
8
CUT
10
148.4340
20
26.6000
30
0
40
5.2500
0
POLYLINE
8
CUT
66
1
70
1
0
VERTEX
8
CUT
10
203.9060
20
30.8500
30
0
0
VERTEX
8
CUT
10
203.8081
20
31.4680
30
0
0
VERTEX
8
CUT
10
203.5240
20
32.0256
30
0
0
VERTEX
8
CUT
10
203.0816
20
32.4680
30
0
0
VERTEX
8
CUT
10
202.5240
20
32.7521
30
0
0
VERTEX
8
CUT
10
201.9060
20
32.8500
30
0
0
VERTEX
8
CUT
10
165.4060
20
32.8500
30
0
0
VERTEX
8
CUT
10
164.7880
20
32.7521
30
0
0
VERTEX
8
CUT
10
164.2304
20
32.4680
30
0
0
VERTEX
8
CUT
10
163.7880
20
32.0256
30
0
0
VERTEX
8
CUT
10
163.5039
20
31.4680
30
0
0
VERTEX
8
CUT
10
163.4060
20
30.8500
30
0
0
VERTEX
8
CUT
10
163.4060
20
22.3500
30
0
0
VERTEX
8
CUT
10
163.5039
20
21.7320
30
0
0
VERTEX
8
CUT
10
163.7880
20
21.1744
30
0
0
VERTEX
8
CUT
10
164.2304
20
20.7320
30
0
0
VERTEX
8
CUT
10
164.7880
20
20.4479
30
0
0
VERTEX
8
CUT
10
165.4060
20
20.3500
30
0
0
VERTEX
8
CUT
10
201.9060
20
20.3500
30
0
0
VERTEX
8
CUT
10
202.5240
20
20.4479
30
0
0
VERTEX
8
CUT
10
203.0816
20
20.7320
30
0
0
VERTEX
8
CUT
10
203.5240
20
21.1744
30
0
0
VERTEX
8
CUT
10
203.8081
20
21.7320
30
0
0
VERTEX
8
CUT
10
203.9060
20
22.3500
30
0
0
SEQEND
8
CUT
0
CIRCLE
8
CUT
10
160.1060
20
26.6000
30
0
40
1.8000
0
CIRCLE
8
CUT
10
207.2060
20
26.6000
30
0
40
1.8000
0
POLYLINE
8
CUT
66
1
70
1
0
VERTEX
8
CUT
10
260.8360
20
30.8500
30
0
0
VERTEX
8
CUT
10
260.7381
20
31.4680
30
0
0
VERTEX
8
CUT
10
260.4540
20
32.0256
30
0
0
VERTEX
8
CUT
10
260.0116
20
32.4680
30
0
0
VERTEX
8
CUT
10
259.4540
20
32.7521
30
0
0
VERTEX
8
CUT
10
258.8360
20
32.8500
30
0
0
VERTEX
8
CUT
10
222.3360
20
32.8500
30
0
0
VERTEX
8
CUT
10
221.7180
20
32.7521
30
0
0
VERTEX
8
CUT
10
221.1604
20
32.4680
30
0
0
VERTEX
8
CUT
10
220.7180
20
32.0256
30
0
0
VERTEX
8
CUT
10
220.4339
20
31.4680
30
0
0
VERTEX
8
CUT
10
220.3360
20
30.8500
30
0
0
VERTEX
8
CUT
10
220.3360
20
22.3500
30
0
0
VERTEX
8
CUT
10
220.4339
20
21.7320
30
0
0
VERTEX
8
CUT
10
220.7180
20
21.1744
30
0
0
VERTEX
8
CUT
10
221.1604
20
20.7320
30
0
0
VERTEX
8
CUT
10
221.7180
20
20.4479
30
0
0
VERTEX
8
CUT
10
222.3360
20
20.3500
30
0
0
VERTEX
8
CUT
10
258.8360
20
20.3500
30
0
0
VERTEX
8
CUT
10
259.4540
20
20.4479
30
0
0
VERTEX
8
CUT
10
260.0116
20
20.7320
30
0
0
VERTEX
8
CUT
10
260.4540
20
21.1744
30
0
0
VERTEX
8
CUT
10
260.7381
20
21.7320
30
0
0
VERTEX
8
CUT
10
260.8360
20
22.3500
30
0
0
SEQEND
8
CUT
0
CIRCLE
8
CUT
10
217.0360
20
26.6000
30
0
40
1.8000
0
CIRCLE
8
CUT
10
264.1360
20
26.6000
30
0
40
1.8000
0
POLYLINE
8
CUT
66
1
70
1
0
VERTEX
8
CUT
10
314.5590
20
30.8500
30
0
0
VERTEX
8
CUT
10
314.4611
20
31.4680
30
0
0
VERTEX
8
CUT
10
314.1770
20
32.0256
30
0
0
VERTEX
8
CUT
10
313.7346
20
32.4680
30
0
0
VERTEX
8
CUT
10
313.1770
20
32.7521
30
0
0
VERTEX
8
CUT
10
312.5590
20
32.8500
30
0
0
VERTEX
8
CUT
10
279.0590
20
32.8500
30
0
0
VERTEX
8
CUT
10
278.4410
20
32.7521
30
0
0
VERTEX
8
CUT
10
277.8834
20
32.4680
30
0
0
VERTEX
8
CUT
10
277.4410
20
32.0256
30
0
0
VERTEX
8
CUT
10
277.1569
20
31.4680
30
0
0
VERTEX
8
CUT
10
277.0590
20
30.8500
30
0
0
VERTEX
8
CUT
10
277.0590
20
22.3500
30
0
0
VERTEX
8
CUT
10
277.1569
20
21.7320
30
0
0
VERTEX
8
CUT
10
277.4410
20
21.1744
30
0
0
VERTEX
8
CUT
10
277.8834
20
20.7320
30
0
0
VERTEX
8
CUT
10
278.4410
20
20.4479
30
0
0
VERTEX
8
CUT
10
279.0590
20
20.3500
30
0
0
VERTEX
8
CUT
10
312.5590
20
20.3500
30
0
0
VERTEX
8
CUT
10
313.1770
20
20.4479
30
0
0
VERTEX
8
CUT
10
313.7346
20
20.7320
30
0
0
VERTEX
8
CUT
10
314.1770
20
21.1744
30
0
0
VERTEX
8
CUT
10
314.4611
20
21.7320
30
0
0
VERTEX
8
CUT
10
314.5590
20
22.3500
30
0
0
SEQEND
8
CUT
0
CIRCLE
8
CUT
10
273.6440
20
26.6000
30
0
40
1.8000
0
CIRCLE
8
CUT
10
317.9740
20
26.6000
30
0
40
1.8000
0
ENDSEC
0
EOF
