0
SECTION
2
HEADER
9
$ACADVER
1
AC1009
9
$MEASUREMENT
70
1
0
ENDSEC
0
SECTION
2
ENTITIES
0
POLYLINE
8
CUT
66
1
70
1
0
VERTEX
8
CUT
10
0.0000
20
0.0000
30
0
0
VERTEX
8
CUT
10
15.8162
20
0.0000
30
0
0
VERTEX
8
CUT
10
15.8162
20
3.0000
30
0
0
VERTEX
8
CUT
10
31.7223
20
3.0000
30
0
0
VERTEX
8
CUT
10
31.7223
20
0.0000
30
0
0
VERTEX
8
CUT
10
47.5085
20
0.0000
30
0
0
VERTEX
8
CUT
10
47.5085
20
3.0000
30
0
0
VERTEX
8
CUT
10
63.4146
20
3.0000
30
0
0
VERTEX
8
CUT
10
63.4146
20
0.0000
30
0
0
VERTEX
8
CUT
10
79.2008
20
0.0000
30
0
0
VERTEX
8
CUT
10
79.2008
20
3.0000
30
0
0
VERTEX
8
CUT
10
95.1069
20
3.0000
30
0
0
VERTEX
8
CUT
10
95.1069
20
0.0000
30
0
0
VERTEX
8
CUT
10
110.8931
20
0.0000
30
0
0
VERTEX
8
CUT
10
110.8931
20
3.0000
30
0
0
VERTEX
8
CUT
10
126.7992
20
3.0000
30
0
0
VERTEX
8
CUT
10
126.7992
20
0.0000
30
0
0
VERTEX
8
CUT
10
142.5854
20
0.0000
30
0
0
VERTEX
8
CUT
10
142.5854
20
3.0000
30
0
0
VERTEX
8
CUT
10
158.4915
20
3.0000
30
0
0
VERTEX
8
CUT
10
158.4915
20
0.0000
30
0
0
VERTEX
8
CUT
10
174.2777
20
0.0000
30
0
0
VERTEX
8
CUT
10
174.2777
20
3.0000
30
0
0
VERTEX
8
CUT
10
190.1838
20
3.0000
30
0
0
VERTEX
8
CUT
10
190.1838
20
0.0000
30
0
0
VERTEX
8
CUT
10
206.0000
20
0.0000
30
0
0
VERTEX
8
CUT
10
206.0000
20
14.3700
30
0
0
VERTEX
8
CUT
10
203.0000
20
14.3700
30
0
0
VERTEX
8
CUT
10
203.0000
20
28.8300
30
0
0
VERTEX
8
CUT
10
206.0000
20
28.8300
30
0
0
VERTEX
8
CUT
10
206.0000
20
43.1700
30
0
0
VERTEX
8
CUT
10
203.0000
20
43.1700
30
0
0
VERTEX
8
CUT
10
203.0000
20
57.6300
30
0
0
VERTEX
8
CUT
10
206.0000
20
57.6300
30
0
0
VERTEX
8
CUT
10
206.0000
20
72.0000
30
0
0
VERTEX
8
CUT
10
190.1838
20
72.0000
30
0
0
VERTEX
8
CUT
10
190.1838
20
69.0000
30
0
0
VERTEX
8
CUT
10
174.2777
20
69.0000
30
0
0
VERTEX
8
CUT
10
174.2777
20
72.0000
30
0
0
VERTEX
8
CUT
10
158.4915
20
72.0000
30
0
0
VERTEX
8
CUT
10
158.4915
20
69.0000
30
0
0
VERTEX
8
CUT
10
142.5854
20
69.0000
30
0
0
VERTEX
8
CUT
10
142.5854
20
72.0000
30
0
0
VERTEX
8
CUT
10
126.7992
20
72.0000
30
0
0
VERTEX
8
CUT
10
126.7992
20
69.0000
30
0
0
VERTEX
8
CUT
10
110.8931
20
69.0000
30
0
0
VERTEX
8
CUT
10
110.8931
20
72.0000
30
0
0
VERTEX
8
CUT
10
95.1069
20
72.0000
30
0
0
VERTEX
8
CUT
10
95.1069
20
69.0000
30
0
0
VERTEX
8
CUT
10
79.2008
20
69.0000
30
0
0
VERTEX
8
CUT
10
79.2008
20
72.0000
30
0
0
VERTEX
8
CUT
10
63.4146
20
72.0000
30
0
0
VERTEX
8
CUT
10
63.4146
20
69.0000
30
0
0
VERTEX
8
CUT
10
47.5085
20
69.0000
30
0
0
VERTEX
8
CUT
10
47.5085
20
72.0000
30
0
0
VERTEX
8
CUT
10
31.7223
20
72.0000
30
0
0
VERTEX
8
CUT
10
31.7223
20
69.0000
30
0
0
VERTEX
8
CUT
10
15.8162
20
69.0000
30
0
0
VERTEX
8
CUT
10
15.8162
20
72.0000
30
0
0
VERTEX
8
CUT
10
0.0000
20
72.0000
30
0
0
VERTEX
8
CUT
10
0.0000
20
57.6300
30
0
0
VERTEX
8
CUT
10
3.0000
20
57.6300
30
0
0
VERTEX
8
CUT
10
3.0000
20
43.1700
30
0
0
VERTEX
8
CUT
10
0.0000
20
43.1700
30
0
0
VERTEX
8
CUT
10
0.0000
20
28.8300
30
0
0
VERTEX
8
CUT
10
3.0000
20
28.8300
30
0
0
VERTEX
8
CUT
10
3.0000
20
14.3700
30
0
0
VERTEX
8
CUT
10
0.0000
20
14.3700
30
0
0
SEQEND
8
CUT
0
POLYLINE
8
CUT
66
1
70
1
0
VERTEX
8
CUT
10
133.8040
20
30.8500
30
0
0
VERTEX
8
CUT
10
133.7061
20
31.4680
30
0
0
VERTEX
8
CUT
10
133.4220
20
32.0256
30
0
0
VERTEX
8
CUT
10
132.9796
20
32.4680
30
0
0
VERTEX
8
CUT
10
132.4220
20
32.7521
30
0
0
VERTEX
8
CUT
10
131.8040
20
32.8500
30
0
0
VERTEX
8
CUT
10
115.3040
20
32.8500
30
0
0
VERTEX
8
CUT
10
114.6860
20
32.7521
30
0
0
VERTEX
8
CUT
10
114.1284
20
32.4680
30
0
0
VERTEX
8
CUT
10
113.6860
20
32.0256
30
0
0
VERTEX
8
CUT
10
113.4019
20
31.4680
30
0
0
VERTEX
8
CUT
10
113.3040
20
30.8500
30
0
0
VERTEX
8
CUT
10
113.3040
20
22.3500
30
0
0
VERTEX
8
CUT
10
113.4019
20
21.7320
30
0
0
VERTEX
8
CUT
10
113.6860
20
21.1744
30
0
0
VERTEX
8
CUT
10
114.1284
20
20.7320
30
0
0
VERTEX
8
CUT
10
114.6860
20
20.4479
30
0
0
VERTEX
8
CUT
10
115.3040
20
20.3500
30
0
0
VERTEX
8
CUT
10
131.8040
20
20.3500
30
0
0
VERTEX
8
CUT
10
132.4220
20
20.4479
30
0
0
VERTEX
8
CUT
10
132.9796
20
20.7320
30
0
0
VERTEX
8
CUT
10
133.4220
20
21.1744
30
0
0
VERTEX
8
CUT
10
133.7061
20
21.7320
30
0
0
VERTEX
8
CUT
10
133.8040
20
22.3500
30
0
0
SEQEND
8
CUT
0
CIRCLE
8
CUT
10
111.0540
20
26.6000
30
0
40
1.8000
0
CIRCLE
8
CUT
10
136.0540
20
26.6000
30
0
40
1.8000
0
POLYLINE
8
CUT
66
1
70
1
0
VERTEX
8
CUT
10
165.8080
20
30.8500
30
0
0
VERTEX
8
CUT
10
165.7101
20
31.4680
30
0
0
VERTEX
8
CUT
10
165.4260
20
32.0256
30
0
0
VERTEX
8
CUT
10
164.9836
20
32.4680
30
0
0
VERTEX
8
CUT
10
164.4260
20
32.7521
30
0
0
VERTEX
8
CUT
10
163.8080
20
32.8500
30
0
0
VERTEX
8
CUT
10
147.3080
20
32.8500
30
0
0
VERTEX
8
CUT
10
146.6900
20
32.7521
30
0
0
VERTEX
8
CUT
10
146.1324
20
32.4680
30
0
0
VERTEX
8
CUT
10
145.6900
20
32.0256
30
0
0
VERTEX
8
CUT
10
145.4059
20
31.4680
30
0
0
VERTEX
8
CUT
10
145.3080
20
30.8500
30
0
0
VERTEX
8
CUT
10
145.3080
20
22.3500
30
0
0
VERTEX
8
CUT
10
145.4059
20
21.7320
30
0
0
VERTEX
8
CUT
10
145.6900
20
21.1744
30
0
0
VERTEX
8
CUT
10
146.1324
20
20.7320
30
0
0
VERTEX
8
CUT
10
146.6900
20
20.4479
30
0
0
VERTEX
8
CUT
10
147.3080
20
20.3500
30
0
0
VERTEX
8
CUT
10
163.8080
20
20.3500
30
0
0
VERTEX
8
CUT
10
164.4260
20
20.4479
30
0
0
VERTEX
8
CUT
10
164.9836
20
20.7320
30
0
0
VERTEX
8
CUT
10
165.4260
20
21.1744
30
0
0
VERTEX
8
CUT
10
165.7101
20
21.7320
30
0
0
VERTEX
8
CUT
10
165.8080
20
22.3500
30
0
0
SEQEND
8
CUT
0
CIRCLE
8
CUT
10
143.0580
20
26.6000
30
0
40
1.8000
0
CIRCLE
8
CUT
10
168.0580
20
26.6000
30
0
40
1.8000
0
POLYLINE
8
CUT
66
1
70
1
0
VERTEX
8
CUT
10
203.0000
20
27.1000
30
0
0
VERTEX
8
CUT
10
202.9021
20
27.7180
30
0
0
VERTEX
8
CUT
10
202.6180
20
28.2756
30
0
0
VERTEX
8
CUT
10
202.1756
20
28.7180
30
0
0
VERTEX
8
CUT
10
201.6180
20
29.0021
30
0
0
VERTEX
8
CUT
10
201.0000
20
29.1000
30
0
0
VERTEX
8
CUT
10
155.0000
20
29.1000
30
0
0
VERTEX
8
CUT
10
154.3820
20
29.0021
30
0
0
VERTEX
8
CUT
10
153.8244
20
28.7180
30
0
0
VERTEX
8
CUT
10
153.3820
20
28.2756
30
0
0
VERTEX
8
CUT
10
153.0979
20
27.7180
30
0
0
VERTEX
8
CUT
10
153.0000
20
27.1000
30
0
0
VERTEX
8
CUT
10
153.0000
20
26.1000
30
0
0
VERTEX
8
CUT
10
153.0979
20
25.4820
30
0
0
VERTEX
8
CUT
10
153.3820
20
24.9244
30
0
0
VERTEX
8
CUT
10
153.8244
20
24.4820
30
0
0
VERTEX
8
CUT
10
154.3820
20
24.1979
30
0
0
VERTEX
8
CUT
10
155.0000
20
24.1000
30
0
0
VERTEX
8
CUT
10
201.0000
20
24.1000
30
0
0
VERTEX
8
CUT
10
201.6180
20
24.1979
30
0
0
VERTEX
8
CUT
10
202.1756
20
24.4820
30
0
0
VERTEX
8
CUT
10
202.6180
20
24.9244
30
0
0
VERTEX
8
CUT
10
202.9021
20
25.4820
30
0
0
VERTEX
8
CUT
10
203.0000
20
26.1000
30
0
0
SEQEND
8
CUT
0
ENDSEC
0
EOF
