0
SECTION
2
HEADER
9
$ACADVER
1
AC1009
9
$MEASUREMENT
70
1
0
ENDSEC
0
SECTION
2
ENTITIES
0
POLYLINE
8
CUT
66
1
70
1
0
VERTEX
8
CUT
10
0.0000
20
0.0000
30
0
0
VERTEX
8
CUT
10
15.8162
20
0.0000
30
0
0
VERTEX
8
CUT
10
15.8162
20
3.0000
30
0
0
VERTEX
8
CUT
10
31.7223
20
3.0000
30
0
0
VERTEX
8
CUT
10
31.7223
20
0.0000
30
0
0
VERTEX
8
CUT
10
47.5085
20
0.0000
30
0
0
VERTEX
8
CUT
10
47.5085
20
3.0000
30
0
0
VERTEX
8
CUT
10
63.4146
20
3.0000
30
0
0
VERTEX
8
CUT
10
63.4146
20
0.0000
30
0
0
VERTEX
8
CUT
10
79.2008
20
0.0000
30
0
0
VERTEX
8
CUT
10
79.2008
20
3.0000
30
0
0
VERTEX
8
CUT
10
95.1069
20
3.0000
30
0
0
VERTEX
8
CUT
10
95.1069
20
0.0000
30
0
0
VERTEX
8
CUT
10
110.8931
20
0.0000
30
0
0
VERTEX
8
CUT
10
110.8931
20
3.0000
30
0
0
VERTEX
8
CUT
10
126.7992
20
3.0000
30
0
0
VERTEX
8
CUT
10
126.7992
20
0.0000
30
0
0
VERTEX
8
CUT
10
142.5854
20
0.0000
30
0
0
VERTEX
8
CUT
10
142.5854
20
3.0000
30
0
0
VERTEX
8
CUT
10
158.4915
20
3.0000
30
0
0
VERTEX
8
CUT
10
158.4915
20
0.0000
30
0
0
VERTEX
8
CUT
10
174.2777
20
0.0000
30
0
0
VERTEX
8
CUT
10
174.2777
20
3.0000
30
0
0
VERTEX
8
CUT
10
190.1838
20
3.0000
30
0
0
VERTEX
8
CUT
10
190.1838
20
0.0000
30
0
0
VERTEX
8
CUT
10
206.0000
20
0.0000
30
0
0
VERTEX
8
CUT
10
206.0000
20
14.3700
30
0
0
VERTEX
8
CUT
10
203.0000
20
14.3700
30
0
0
VERTEX
8
CUT
10
203.0000
20
28.8300
30
0
0
VERTEX
8
CUT
10
206.0000
20
28.8300
30
0
0
VERTEX
8
CUT
10
206.0000
20
43.1700
30
0
0
VERTEX
8
CUT
10
203.0000
20
43.1700
30
0
0
VERTEX
8
CUT
10
203.0000
20
57.6300
30
0
0
VERTEX
8
CUT
10
206.0000
20
57.6300
30
0
0
VERTEX
8
CUT
10
206.0000
20
72.0000
30
0
0
VERTEX
8
CUT
10
190.1838
20
72.0000
30
0
0
VERTEX
8
CUT
10
190.1838
20
69.0000
30
0
0
VERTEX
8
CUT
10
174.2777
20
69.0000
30
0
0
VERTEX
8
CUT
10
174.2777
20
72.0000
30
0
0
VERTEX
8
CUT
10
158.4915
20
72.0000
30
0
0
VERTEX
8
CUT
10
158.4915
20
69.0000
30
0
0
VERTEX
8
CUT
10
142.5854
20
69.0000
30
0
0
VERTEX
8
CUT
10
142.5854
20
72.0000
30
0
0
VERTEX
8
CUT
10
126.7992
20
72.0000
30
0
0
VERTEX
8
CUT
10
126.7992
20
69.0000
30
0
0
VERTEX
8
CUT
10
110.8931
20
69.0000
30
0
0
VERTEX
8
CUT
10
110.8931
20
72.0000
30
0
0
VERTEX
8
CUT
10
95.1069
20
72.0000
30
0
0
VERTEX
8
CUT
10
95.1069
20
69.0000
30
0
0
VERTEX
8
CUT
10
79.2008
20
69.0000
30
0
0
VERTEX
8
CUT
10
79.2008
20
72.0000
30
0
0
VERTEX
8
CUT
10
63.4146
20
72.0000
30
0
0
VERTEX
8
CUT
10
63.4146
20
69.0000
30
0
0
VERTEX
8
CUT
10
47.5085
20
69.0000
30
0
0
VERTEX
8
CUT
10
47.5085
20
72.0000
30
0
0
VERTEX
8
CUT
10
31.7223
20
72.0000
30
0
0
VERTEX
8
CUT
10
31.7223
20
69.0000
30
0
0
VERTEX
8
CUT
10
15.8162
20
69.0000
30
0
0
VERTEX
8
CUT
10
15.8162
20
72.0000
30
0
0
VERTEX
8
CUT
10
0.0000
20
72.0000
30
0
0
VERTEX
8
CUT
10
0.0000
20
57.6300
30
0
0
VERTEX
8
CUT
10
3.0000
20
57.6300
30
0
0
VERTEX
8
CUT
10
3.0000
20
43.1700
30
0
0
VERTEX
8
CUT
10
0.0000
20
43.1700
30
0
0
VERTEX
8
CUT
10
0.0000
20
28.8300
30
0
0
VERTEX
8
CUT
10
3.0000
20
28.8300
30
0
0
VERTEX
8
CUT
10
3.0000
20
14.3700
30
0
0
VERTEX
8
CUT
10
0.0000
20
14.3700
30
0
0
SEQEND
8
CUT
0
POLYLINE
8
CUT
66
1
70
1
0
VERTEX
8
CUT
10
117.8850
20
28.6000
30
0
0
VERTEX
8
CUT
10
117.7871
20
29.2180
30
0
0
VERTEX
8
CUT
10
117.5030
20
29.7756
30
0
0
VERTEX
8
CUT
10
117.0606
20
30.2180
30
0
0
VERTEX
8
CUT
10
116.5030
20
30.5021
30
0
0
VERTEX
8
CUT
10
115.8850
20
30.6000
30
0
0
VERTEX
8
CUT
10
59.8850
20
30.6000
30
0
0
VERTEX
8
CUT
10
59.2670
20
30.5021
30
0
0
VERTEX
8
CUT
10
58.7094
20
30.2180
30
0
0
VERTEX
8
CUT
10
58.2670
20
29.7756
30
0
0
VERTEX
8
CUT
10
57.9829
20
29.2180
30
0
0
VERTEX
8
CUT
10
57.8850
20
28.6000
30
0
0
VERTEX
8
CUT
10
57.8850
20
24.6000
30
0
0
VERTEX
8
CUT
10
57.9829
20
23.9820
30
0
0
VERTEX
8
CUT
10
58.2670
20
23.4244
30
0
0
VERTEX
8
CUT
10
58.7094
20
22.9820
30
0
0
VERTEX
8
CUT
10
59.2670
20
22.6979
30
0
0
VERTEX
8
CUT
10
59.8850
20
22.6000
30
0
0
VERTEX
8
CUT
10
115.8850
20
22.6000
30
0
0
VERTEX
8
CUT
10
116.5030
20
22.6979
30
0
0
VERTEX
8
CUT
10
117.0606
20
22.9820
30
0
0
VERTEX
8
CUT
10
117.5030
20
23.4244
30
0
0
VERTEX
8
CUT
10
117.7871
20
23.9820
30
0
0
VERTEX
8
CUT
10
117.8850
20
24.6000
30
0
0
SEQEND
8
CUT
0
ENDSEC
0
EOF
