0
SECTION
2
HEADER
9
$ACADVER
1
AC1009
9
$MEASUREMENT
70
1
0
ENDSEC
0
SECTION
2
ENTITIES
0
POLYLINE
8
CUT
66
1
70
1
0
VERTEX
8
CUT
10
0.0000
20
0.0000
30
0
0
VERTEX
8
CUT
10
15.6367
20
0.0000
30
0
0
VERTEX
8
CUT
10
15.6367
20
3.0000
30
0
0
VERTEX
8
CUT
10
31.3633
20
3.0000
30
0
0
VERTEX
8
CUT
10
31.3633
20
0.0000
30
0
0
VERTEX
8
CUT
10
46.9700
20
0.0000
30
0
0
VERTEX
8
CUT
10
46.9700
20
3.0000
30
0
0
VERTEX
8
CUT
10
62.6967
20
3.0000
30
0
0
VERTEX
8
CUT
10
62.6967
20
0.0000
30
0
0
VERTEX
8
CUT
10
78.3033
20
0.0000
30
0
0
VERTEX
8
CUT
10
78.3033
20
3.0000
30
0
0
VERTEX
8
CUT
10
94.0300
20
3.0000
30
0
0
VERTEX
8
CUT
10
94.0300
20
0.0000
30
0
0
VERTEX
8
CUT
10
109.6367
20
0.0000
30
0
0
VERTEX
8
CUT
10
109.6367
20
3.0000
30
0
0
VERTEX
8
CUT
10
125.3633
20
3.0000
30
0
0
VERTEX
8
CUT
10
125.3633
20
0.0000
30
0
0
VERTEX
8
CUT
10
140.9700
20
0.0000
30
0
0
VERTEX
8
CUT
10
140.9700
20
3.0000
30
0
0
VERTEX
8
CUT
10
156.6967
20
3.0000
30
0
0
VERTEX
8
CUT
10
156.6967
20
0.0000
30
0
0
VERTEX
8
CUT
10
172.3033
20
0.0000
30
0
0
VERTEX
8
CUT
10
172.3033
20
3.0000
30
0
0
VERTEX
8
CUT
10
188.0300
20
3.0000
30
0
0
VERTEX
8
CUT
10
188.0300
20
0.0000
30
0
0
VERTEX
8
CUT
10
203.6367
20
0.0000
30
0
0
VERTEX
8
CUT
10
203.6367
20
3.0000
30
0
0
VERTEX
8
CUT
10
219.3633
20
3.0000
30
0
0
VERTEX
8
CUT
10
219.3633
20
0.0000
30
0
0
VERTEX
8
CUT
10
234.9700
20
0.0000
30
0
0
VERTEX
8
CUT
10
234.9700
20
3.0000
30
0
0
VERTEX
8
CUT
10
250.6967
20
3.0000
30
0
0
VERTEX
8
CUT
10
250.6967
20
0.0000
30
0
0
VERTEX
8
CUT
10
266.3033
20
0.0000
30
0
0
VERTEX
8
CUT
10
266.3033
20
3.0000
30
0
0
VERTEX
8
CUT
10
282.0300
20
3.0000
30
0
0
VERTEX
8
CUT
10
282.0300
20
0.0000
30
0
0
VERTEX
8
CUT
10
297.6367
20
0.0000
30
0
0
VERTEX
8
CUT
10
297.6367
20
3.0000
30
0
0
VERTEX
8
CUT
10
313.3633
20
3.0000
30
0
0
VERTEX
8
CUT
10
313.3633
20
0.0000
30
0
0
VERTEX
8
CUT
10
329.0000
20
0.0000
30
0
0
VERTEX
8
CUT
10
326.0000
20
0.0000
30
0
0
VERTEX
8
CUT
10
326.0000
20
14.4300
30
0
0
VERTEX
8
CUT
10
329.0000
20
14.4300
30
0
0
VERTEX
8
CUT
10
329.0000
20
28.7700
30
0
0
VERTEX
8
CUT
10
326.0000
20
28.7700
30
0
0
VERTEX
8
CUT
10
326.0000
20
43.2300
30
0
0
VERTEX
8
CUT
10
329.0000
20
43.2300
30
0
0
VERTEX
8
CUT
10
329.0000
20
57.5700
30
0
0
VERTEX
8
CUT
10
326.0000
20
57.5700
30
0
0
VERTEX
8
CUT
10
326.0000
20
72.0000
30
0
0
VERTEX
8
CUT
10
329.0000
20
72.0000
30
0
0
VERTEX
8
CUT
10
313.3633
20
72.0000
30
0
0
VERTEX
8
CUT
10
313.3633
20
69.0000
30
0
0
VERTEX
8
CUT
10
297.6367
20
69.0000
30
0
0
VERTEX
8
CUT
10
297.6367
20
72.0000
30
0
0
VERTEX
8
CUT
10
282.0300
20
72.0000
30
0
0
VERTEX
8
CUT
10
282.0300
20
69.0000
30
0
0
VERTEX
8
CUT
10
266.3033
20
69.0000
30
0
0
VERTEX
8
CUT
10
266.3033
20
72.0000
30
0
0
VERTEX
8
CUT
10
250.6967
20
72.0000
30
0
0
VERTEX
8
CUT
10
250.6967
20
69.0000
30
0
0
VERTEX
8
CUT
10
234.9700
20
69.0000
30
0
0
VERTEX
8
CUT
10
234.9700
20
72.0000
30
0
0
VERTEX
8
CUT
10
219.3633
20
72.0000
30
0
0
VERTEX
8
CUT
10
219.3633
20
69.0000
30
0
0
VERTEX
8
CUT
10
203.6367
20
69.0000
30
0
0
VERTEX
8
CUT
10
203.6367
20
72.0000
30
0
0
VERTEX
8
CUT
10
188.0300
20
72.0000
30
0
0
VERTEX
8
CUT
10
188.0300
20
69.0000
30
0
0
VERTEX
8
CUT
10
172.3033
20
69.0000
30
0
0
VERTEX
8
CUT
10
172.3033
20
72.0000
30
0
0
VERTEX
8
CUT
10
156.6967
20
72.0000
30
0
0
VERTEX
8
CUT
10
156.6967
20
69.0000
30
0
0
VERTEX
8
CUT
10
140.9700
20
69.0000
30
0
0
VERTEX
8
CUT
10
140.9700
20
72.0000
30
0
0
VERTEX
8
CUT
10
125.3633
20
72.0000
30
0
0
VERTEX
8
CUT
10
125.3633
20
69.0000
30
0
0
VERTEX
8
CUT
10
109.6367
20
69.0000
30
0
0
VERTEX
8
CUT
10
109.6367
20
72.0000
30
0
0
VERTEX
8
CUT
10
94.0300
20
72.0000
30
0
0
VERTEX
8
CUT
10
94.0300
20
69.0000
30
0
0
VERTEX
8
CUT
10
78.3033
20
69.0000
30
0
0
VERTEX
8
CUT
10
78.3033
20
72.0000
30
0
0
VERTEX
8
CUT
10
62.6967
20
72.0000
30
0
0
VERTEX
8
CUT
10
62.6967
20
69.0000
30
0
0
VERTEX
8
CUT
10
46.9700
20
69.0000
30
0
0
VERTEX
8
CUT
10
46.9700
20
72.0000
30
0
0
VERTEX
8
CUT
10
31.3633
20
72.0000
30
0
0
VERTEX
8
CUT
10
31.3633
20
69.0000
30
0
0
VERTEX
8
CUT
10
15.6367
20
69.0000
30
0
0
VERTEX
8
CUT
10
15.6367
20
72.0000
30
0
0
VERTEX
8
CUT
10
0.0000
20
72.0000
30
0
0
VERTEX
8
CUT
10
3.0000
20
72.0000
30
0
0
VERTEX
8
CUT
10
3.0000
20
57.5700
30
0
0
VERTEX
8
CUT
10
0.0000
20
57.5700
30
0
0
VERTEX
8
CUT
10
0.0000
20
43.2300
30
0
0
VERTEX
8
CUT
10
3.0000
20
43.2300
30
0
0
VERTEX
8
CUT
10
3.0000
20
28.7700
30
0
0
VERTEX
8
CUT
10
0.0000
20
28.7700
30
0
0
VERTEX
8
CUT
10
0.0000
20
14.4300
30
0
0
VERTEX
8
CUT
10
3.0000
20
14.4300
30
0
0
VERTEX
8
CUT
10
3.0000
20
0.0000
30
0
0
SEQEND
8
CUT
0
POLYLINE
8
CUT
66
1
70
1
0
VERTEX
8
CUT
10
58.0000
20
22.0000
30
0
0
VERTEX
8
CUT
10
57.9266
20
22.4635
30
0
0
VERTEX
8
CUT
10
57.7135
20
22.8817
30
0
0
VERTEX
8
CUT
10
57.3817
20
23.2135
30
0
0
VERTEX
8
CUT
10
56.9635
20
23.4266
30
0
0
VERTEX
8
CUT
10
56.5000
20
23.5000
30
0
0
VERTEX
8
CUT
10
51.5000
20
23.5000
30
0
0
VERTEX
8
CUT
10
51.0365
20
23.4266
30
0
0
VERTEX
8
CUT
10
50.6183
20
23.2135
30
0
0
VERTEX
8
CUT
10
50.2865
20
22.8817
30
0
0
VERTEX
8
CUT
10
50.0734
20
22.4635
30
0
0
VERTEX
8
CUT
10
50.0000
20
22.0000
30
0
0
VERTEX
8
CUT
10
50.0000
20
22.0000
30
0
0
VERTEX
8
CUT
10
50.0734
20
21.5365
30
0
0
VERTEX
8
CUT
10
50.2865
20
21.1183
30
0
0
VERTEX
8
CUT
10
50.6183
20
20.7865
30
0
0
VERTEX
8
CUT
10
51.0365
20
20.5734
30
0
0
VERTEX
8
CUT
10
51.5000
20
20.5000
30
0
0
VERTEX
8
CUT
10
56.5000
20
20.5000
30
0
0
VERTEX
8
CUT
10
56.9635
20
20.5734
30
0
0
VERTEX
8
CUT
10
57.3817
20
20.7865
30
0
0
VERTEX
8
CUT
10
57.7135
20
21.1183
30
0
0
VERTEX
8
CUT
10
57.9266
20
21.5365
30
0
0
VERTEX
8
CUT
10
58.0000
20
22.0000
30
0
0
SEQEND
8
CUT
0
POLYLINE
8
CUT
66
1
70
1
0
VERTEX
8
CUT
10
74.0000
20
22.0000
30
0
0
VERTEX
8
CUT
10
73.9266
20
22.4635
30
0
0
VERTEX
8
CUT
10
73.7135
20
22.8817
30
0
0
VERTEX
8
CUT
10
73.3817
20
23.2135
30
0
0
VERTEX
8
CUT
10
72.9635
20
23.4266
30
0
0
VERTEX
8
CUT
10
72.5000
20
23.5000
30
0
0
VERTEX
8
CUT
10
67.5000
20
23.5000
30
0
0
VERTEX
8
CUT
10
67.0365
20
23.4266
30
0
0
VERTEX
8
CUT
10
66.6183
20
23.2135
30
0
0
VERTEX
8
CUT
10
66.2865
20
22.8817
30
0
0
VERTEX
8
CUT
10
66.0734
20
22.4635
30
0
0
VERTEX
8
CUT
10
66.0000
20
22.0000
30
0
0
VERTEX
8
CUT
10
66.0000
20
22.0000
30
0
0
VERTEX
8
CUT
10
66.0734
20
21.5365
30
0
0
VERTEX
8
CUT
10
66.2865
20
21.1183
30
0
0
VERTEX
8
CUT
10
66.6183
20
20.7865
30
0
0
VERTEX
8
CUT
10
67.0365
20
20.5734
30
0
0
VERTEX
8
CUT
10
67.5000
20
20.5000
30
0
0
VERTEX
8
CUT
10
72.5000
20
20.5000
30
0
0
VERTEX
8
CUT
10
72.9635
20
20.5734
30
0
0
VERTEX
8
CUT
10
73.3817
20
20.7865
30
0
0
VERTEX
8
CUT
10
73.7135
20
21.1183
30
0
0
VERTEX
8
CUT
10
73.9266
20
21.5365
30
0
0
VERTEX
8
CUT
10
74.0000
20
22.0000
30
0
0
SEQEND
8
CUT
0
POLYLINE
8
CUT
66
1
70
1
0
VERTEX
8
CUT
10
90.0000
20
22.0000
30
0
0
VERTEX
8
CUT
10
89.9266
20
22.4635
30
0
0
VERTEX
8
CUT
10
89.7135
20
22.8817
30
0
0
VERTEX
8
CUT
10
89.3817
20
23.2135
30
0
0
VERTEX
8
CUT
10
88.9635
20
23.4266
30
0
0
VERTEX
8
CUT
10
88.5000
20
23.5000
30
0
0
VERTEX
8
CUT
10
83.5000
20
23.5000
30
0
0
VERTEX
8
CUT
10
83.0365
20
23.4266
30
0
0
VERTEX
8
CUT
10
82.6183
20
23.2135
30
0
0
VERTEX
8
CUT
10
82.2865
20
22.8817
30
0
0
VERTEX
8
CUT
10
82.0734
20
22.4635
30
0
0
VERTEX
8
CUT
10
82.0000
20
22.0000
30
0
0
VERTEX
8
CUT
10
82.0000
20
22.0000
30
0
0
VERTEX
8
CUT
10
82.0734
20
21.5365
30
0
0
VERTEX
8
CUT
10
82.2865
20
21.1183
30
0
0
VERTEX
8
CUT
10
82.6183
20
20.7865
30
0
0
VERTEX
8
CUT
10
83.0365
20
20.5734
30
0
0
VERTEX
8
CUT
10
83.5000
20
20.5000
30
0
0
VERTEX
8
CUT
10
88.5000
20
20.5000
30
0
0
VERTEX
8
CUT
10
88.9635
20
20.5734
30
0
0
VERTEX
8
CUT
10
89.3817
20
20.7865
30
0
0
VERTEX
8
CUT
10
89.7135
20
21.1183
30
0
0
VERTEX
8
CUT
10
89.9266
20
21.5365
30
0
0
VERTEX
8
CUT
10
90.0000
20
22.0000
30
0
0
SEQEND
8
CUT
0
POLYLINE
8
CUT
66
1
70
1
0
VERTEX
8
CUT
10
106.0000
20
22.0000
30
0
0
VERTEX
8
CUT
10
105.9266
20
22.4635
30
0
0
VERTEX
8
CUT
10
105.7135
20
22.8817
30
0
0
VERTEX
8
CUT
10
105.3817
20
23.2135
30
0
0
VERTEX
8
CUT
10
104.9635
20
23.4266
30
0
0
VERTEX
8
CUT
10
104.5000
20
23.5000
30
0
0
VERTEX
8
CUT
10
99.5000
20
23.5000
30
0
0
VERTEX
8
CUT
10
99.0365
20
23.4266
30
0
0
VERTEX
8
CUT
10
98.6183
20
23.2135
30
0
0
VERTEX
8
CUT
10
98.2865
20
22.8817
30
0
0
VERTEX
8
CUT
10
98.0734
20
22.4635
30
0
0
VERTEX
8
CUT
10
98.0000
20
22.0000
30
0
0
VERTEX
8
CUT
10
98.0000
20
22.0000
30
0
0
VERTEX
8
CUT
10
98.0734
20
21.5365
30
0
0
VERTEX
8
CUT
10
98.2865
20
21.1183
30
0
0
VERTEX
8
CUT
10
98.6183
20
20.7865
30
0
0
VERTEX
8
CUT
10
99.0365
20
20.5734
30
0
0
VERTEX
8
CUT
10
99.5000
20
20.5000
30
0
0
VERTEX
8
CUT
10
104.5000
20
20.5000
30
0
0
VERTEX
8
CUT
10
104.9635
20
20.5734
30
0
0
VERTEX
8
CUT
10
105.3817
20
20.7865
30
0
0
VERTEX
8
CUT
10
105.7135
20
21.1183
30
0
0
VERTEX
8
CUT
10
105.9266
20
21.5365
30
0
0
VERTEX
8
CUT
10
106.0000
20
22.0000
30
0
0
SEQEND
8
CUT
0
POLYLINE
8
CUT
66
1
70
1
0
VERTEX
8
CUT
10
122.0000
20
22.0000
30
0
0
VERTEX
8
CUT
10
121.9266
20
22.4635
30
0
0
VERTEX
8
CUT
10
121.7135
20
22.8817
30
0
0
VERTEX
8
CUT
10
121.3817
20
23.2135
30
0
0
VERTEX
8
CUT
10
120.9635
20
23.4266
30
0
0
VERTEX
8
CUT
10
120.5000
20
23.5000
30
0
0
VERTEX
8
CUT
10
115.5000
20
23.5000
30
0
0
VERTEX
8
CUT
10
115.0365
20
23.4266
30
0
0
VERTEX
8
CUT
10
114.6183
20
23.2135
30
0
0
VERTEX
8
CUT
10
114.2865
20
22.8817
30
0
0
VERTEX
8
CUT
10
114.0734
20
22.4635
30
0
0
VERTEX
8
CUT
10
114.0000
20
22.0000
30
0
0
VERTEX
8
CUT
10
114.0000
20
22.0000
30
0
0
VERTEX
8
CUT
10
114.0734
20
21.5365
30
0
0
VERTEX
8
CUT
10
114.2865
20
21.1183
30
0
0
VERTEX
8
CUT
10
114.6183
20
20.7865
30
0
0
VERTEX
8
CUT
10
115.0365
20
20.5734
30
0
0
VERTEX
8
CUT
10
115.5000
20
20.5000
30
0
0
VERTEX
8
CUT
10
120.5000
20
20.5000
30
0
0
VERTEX
8
CUT
10
120.9635
20
20.5734
30
0
0
VERTEX
8
CUT
10
121.3817
20
20.7865
30
0
0
VERTEX
8
CUT
10
121.7135
20
21.1183
30
0
0
VERTEX
8
CUT
10
121.9266
20
21.5365
30
0
0
VERTEX
8
CUT
10
122.0000
20
22.0000
30
0
0
SEQEND
8
CUT
0
POLYLINE
8
CUT
66
1
70
1
0
VERTEX
8
CUT
10
138.0000
20
22.0000
30
0
0
VERTEX
8
CUT
10
137.9266
20
22.4635
30
0
0
VERTEX
8
CUT
10
137.7135
20
22.8817
30
0
0
VERTEX
8
CUT
10
137.3817
20
23.2135
30
0
0
VERTEX
8
CUT
10
136.9635
20
23.4266
30
0
0
VERTEX
8
CUT
10
136.5000
20
23.5000
30
0
0
VERTEX
8
CUT
10
131.5000
20
23.5000
30
0
0
VERTEX
8
CUT
10
131.0365
20
23.4266
30
0
0
VERTEX
8
CUT
10
130.6183
20
23.2135
30
0
0
VERTEX
8
CUT
10
130.2865
20
22.8817
30
0
0
VERTEX
8
CUT
10
130.0734
20
22.4635
30
0
0
VERTEX
8
CUT
10
130.0000
20
22.0000
30
0
0
VERTEX
8
CUT
10
130.0000
20
22.0000
30
0
0
VERTEX
8
CUT
10
130.0734
20
21.5365
30
0
0
VERTEX
8
CUT
10
130.2865
20
21.1183
30
0
0
VERTEX
8
CUT
10
130.6183
20
20.7865
30
0
0
VERTEX
8
CUT
10
131.0365
20
20.5734
30
0
0
VERTEX
8
CUT
10
131.5000
20
20.5000
30
0
0
VERTEX
8
CUT
10
136.5000
20
20.5000
30
0
0
VERTEX
8
CUT
10
136.9635
20
20.5734
30
0
0
VERTEX
8
CUT
10
137.3817
20
20.7865
30
0
0
VERTEX
8
CUT
10
137.7135
20
21.1183
30
0
0
VERTEX
8
CUT
10
137.9266
20
21.5365
30
0
0
VERTEX
8
CUT
10
138.0000
20
22.0000
30
0
0
SEQEND
8
CUT
0
POLYLINE
8
CUT
66
1
70
1
0
VERTEX
8
CUT
10
154.0000
20
22.0000
30
0
0
VERTEX
8
CUT
10
153.9266
20
22.4635
30
0
0
VERTEX
8
CUT
10
153.7135
20
22.8817
30
0
0
VERTEX
8
CUT
10
153.3817
20
23.2135
30
0
0
VERTEX
8
CUT
10
152.9635
20
23.4266
30
0
0
VERTEX
8
CUT
10
152.5000
20
23.5000
30
0
0
VERTEX
8
CUT
10
147.5000
20
23.5000
30
0
0
VERTEX
8
CUT
10
147.0365
20
23.4266
30
0
0
VERTEX
8
CUT
10
146.6183
20
23.2135
30
0
0
VERTEX
8
CUT
10
146.2865
20
22.8817
30
0
0
VERTEX
8
CUT
10
146.0734
20
22.4635
30
0
0
VERTEX
8
CUT
10
146.0000
20
22.0000
30
0
0
VERTEX
8
CUT
10
146.0000
20
22.0000
30
0
0
VERTEX
8
CUT
10
146.0734
20
21.5365
30
0
0
VERTEX
8
CUT
10
146.2865
20
21.1183
30
0
0
VERTEX
8
CUT
10
146.6183
20
20.7865
30
0
0
VERTEX
8
CUT
10
147.0365
20
20.5734
30
0
0
VERTEX
8
CUT
10
147.5000
20
20.5000
30
0
0
VERTEX
8
CUT
10
152.5000
20
20.5000
30
0
0
VERTEX
8
CUT
10
152.9635
20
20.5734
30
0
0
VERTEX
8
CUT
10
153.3817
20
20.7865
30
0
0
VERTEX
8
CUT
10
153.7135
20
21.1183
30
0
0
VERTEX
8
CUT
10
153.9266
20
21.5365
30
0
0
VERTEX
8
CUT
10
154.0000
20
22.0000
30
0
0
SEQEND
8
CUT
0
POLYLINE
8
CUT
66
1
70
1
0
VERTEX
8
CUT
10
170.0000
20
22.0000
30
0
0
VERTEX
8
CUT
10
169.9266
20
22.4635
30
0
0
VERTEX
8
CUT
10
169.7135
20
22.8817
30
0
0
VERTEX
8
CUT
10
169.3817
20
23.2135
30
0
0
VERTEX
8
CUT
10
168.9635
20
23.4266
30
0
0
VERTEX
8
CUT
10
168.5000
20
23.5000
30
0
0
VERTEX
8
CUT
10
163.5000
20
23.5000
30
0
0
VERTEX
8
CUT
10
163.0365
20
23.4266
30
0
0
VERTEX
8
CUT
10
162.6183
20
23.2135
30
0
0
VERTEX
8
CUT
10
162.2865
20
22.8817
30
0
0
VERTEX
8
CUT
10
162.0734
20
22.4635
30
0
0
VERTEX
8
CUT
10
162.0000
20
22.0000
30
0
0
VERTEX
8
CUT
10
162.0000
20
22.0000
30
0
0
VERTEX
8
CUT
10
162.0734
20
21.5365
30
0
0
VERTEX
8
CUT
10
162.2865
20
21.1183
30
0
0
VERTEX
8
CUT
10
162.6183
20
20.7865
30
0
0
VERTEX
8
CUT
10
163.0365
20
20.5734
30
0
0
VERTEX
8
CUT
10
163.5000
20
20.5000
30
0
0
VERTEX
8
CUT
10
168.5000
20
20.5000
30
0
0
VERTEX
8
CUT
10
168.9635
20
20.5734
30
0
0
VERTEX
8
CUT
10
169.3817
20
20.7865
30
0
0
VERTEX
8
CUT
10
169.7135
20
21.1183
30
0
0
VERTEX
8
CUT
10
169.9266
20
21.5365
30
0
0
VERTEX
8
CUT
10
170.0000
20
22.0000
30
0
0
SEQEND
8
CUT
0
POLYLINE
8
CUT
66
1
70
1
0
VERTEX
8
CUT
10
186.0000
20
22.0000
30
0
0
VERTEX
8
CUT
10
185.9266
20
22.4635
30
0
0
VERTEX
8
CUT
10
185.7135
20
22.8817
30
0
0
VERTEX
8
CUT
10
185.3817
20
23.2135
30
0
0
VERTEX
8
CUT
10
184.9635
20
23.4266
30
0
0
VERTEX
8
CUT
10
184.5000
20
23.5000
30
0
0
VERTEX
8
CUT
10
179.5000
20
23.5000
30
0
0
VERTEX
8
CUT
10
179.0365
20
23.4266
30
0
0
VERTEX
8
CUT
10
178.6183
20
23.2135
30
0
0
VERTEX
8
CUT
10
178.2865
20
22.8817
30
0
0
VERTEX
8
CUT
10
178.0734
20
22.4635
30
0
0
VERTEX
8
CUT
10
178.0000
20
22.0000
30
0
0
VERTEX
8
CUT
10
178.0000
20
22.0000
30
0
0
VERTEX
8
CUT
10
178.0734
20
21.5365
30
0
0
VERTEX
8
CUT
10
178.2865
20
21.1183
30
0
0
VERTEX
8
CUT
10
178.6183
20
20.7865
30
0
0
VERTEX
8
CUT
10
179.0365
20
20.5734
30
0
0
VERTEX
8
CUT
10
179.5000
20
20.5000
30
0
0
VERTEX
8
CUT
10
184.5000
20
20.5000
30
0
0
VERTEX
8
CUT
10
184.9635
20
20.5734
30
0
0
VERTEX
8
CUT
10
185.3817
20
20.7865
30
0
0
VERTEX
8
CUT
10
185.7135
20
21.1183
30
0
0
VERTEX
8
CUT
10
185.9266
20
21.5365
30
0
0
VERTEX
8
CUT
10
186.0000
20
22.0000
30
0
0
SEQEND
8
CUT
0
POLYLINE
8
CUT
66
1
70
1
0
VERTEX
8
CUT
10
202.0000
20
22.0000
30
0
0
VERTEX
8
CUT
10
201.9266
20
22.4635
30
0
0
VERTEX
8
CUT
10
201.7135
20
22.8817
30
0
0
VERTEX
8
CUT
10
201.3817
20
23.2135
30
0
0
VERTEX
8
CUT
10
200.9635
20
23.4266
30
0
0
VERTEX
8
CUT
10
200.5000
20
23.5000
30
0
0
VERTEX
8
CUT
10
195.5000
20
23.5000
30
0
0
VERTEX
8
CUT
10
195.0365
20
23.4266
30
0
0
VERTEX
8
CUT
10
194.6183
20
23.2135
30
0
0
VERTEX
8
CUT
10
194.2865
20
22.8817
30
0
0
VERTEX
8
CUT
10
194.0734
20
22.4635
30
0
0
VERTEX
8
CUT
10
194.0000
20
22.0000
30
0
0
VERTEX
8
CUT
10
194.0000
20
22.0000
30
0
0
VERTEX
8
CUT
10
194.0734
20
21.5365
30
0
0
VERTEX
8
CUT
10
194.2865
20
21.1183
30
0
0
VERTEX
8
CUT
10
194.6183
20
20.7865
30
0
0
VERTEX
8
CUT
10
195.0365
20
20.5734
30
0
0
VERTEX
8
CUT
10
195.5000
20
20.5000
30
0
0
VERTEX
8
CUT
10
200.5000
20
20.5000
30
0
0
VERTEX
8
CUT
10
200.9635
20
20.5734
30
0
0
VERTEX
8
CUT
10
201.3817
20
20.7865
30
0
0
VERTEX
8
CUT
10
201.7135
20
21.1183
30
0
0
VERTEX
8
CUT
10
201.9266
20
21.5365
30
0
0
VERTEX
8
CUT
10
202.0000
20
22.0000
30
0
0
SEQEND
8
CUT
0
POLYLINE
8
CUT
66
1
70
1
0
VERTEX
8
CUT
10
218.0000
20
22.0000
30
0
0
VERTEX
8
CUT
10
217.9266
20
22.4635
30
0
0
VERTEX
8
CUT
10
217.7135
20
22.8817
30
0
0
VERTEX
8
CUT
10
217.3817
20
23.2135
30
0
0
VERTEX
8
CUT
10
216.9635
20
23.4266
30
0
0
VERTEX
8
CUT
10
216.5000
20
23.5000
30
0
0
VERTEX
8
CUT
10
211.5000
20
23.5000
30
0
0
VERTEX
8
CUT
10
211.0365
20
23.4266
30
0
0
VERTEX
8
CUT
10
210.6183
20
23.2135
30
0
0
VERTEX
8
CUT
10
210.2865
20
22.8817
30
0
0
VERTEX
8
CUT
10
210.0734
20
22.4635
30
0
0
VERTEX
8
CUT
10
210.0000
20
22.0000
30
0
0
VERTEX
8
CUT
10
210.0000
20
22.0000
30
0
0
VERTEX
8
CUT
10
210.0734
20
21.5365
30
0
0
VERTEX
8
CUT
10
210.2865
20
21.1183
30
0
0
VERTEX
8
CUT
10
210.6183
20
20.7865
30
0
0
VERTEX
8
CUT
10
211.0365
20
20.5734
30
0
0
VERTEX
8
CUT
10
211.5000
20
20.5000
30
0
0
VERTEX
8
CUT
10
216.5000
20
20.5000
30
0
0
VERTEX
8
CUT
10
216.9635
20
20.5734
30
0
0
VERTEX
8
CUT
10
217.3817
20
20.7865
30
0
0
VERTEX
8
CUT
10
217.7135
20
21.1183
30
0
0
VERTEX
8
CUT
10
217.9266
20
21.5365
30
0
0
VERTEX
8
CUT
10
218.0000
20
22.0000
30
0
0
SEQEND
8
CUT
0
POLYLINE
8
CUT
66
1
70
1
0
VERTEX
8
CUT
10
256.0000
20
48.5000
30
0
0
VERTEX
8
CUT
10
255.9511
20
48.8090
30
0
0
VERTEX
8
CUT
10
255.8090
20
49.0878
30
0
0
VERTEX
8
CUT
10
255.5878
20
49.3090
30
0
0
VERTEX
8
CUT
10
255.3090
20
49.4511
30
0
0
VERTEX
8
CUT
10
255.0000
20
49.5000
30
0
0
VERTEX
8
CUT
10
229.0000
20
49.5000
30
0
0
VERTEX
8
CUT
10
228.6910
20
49.4511
30
0
0
VERTEX
8
CUT
10
228.4122
20
49.3090
30
0
0
VERTEX
8
CUT
10
228.1910
20
49.0878
30
0
0
VERTEX
8
CUT
10
228.0489
20
48.8090
30
0
0
VERTEX
8
CUT
10
228.0000
20
48.5000
30
0
0
VERTEX
8
CUT
10
228.0000
20
35.5000
30
0
0
VERTEX
8
CUT
10
228.0489
20
35.1910
30
0
0
VERTEX
8
CUT
10
228.1910
20
34.9122
30
0
0
VERTEX
8
CUT
10
228.4122
20
34.6910
30
0
0
VERTEX
8
CUT
10
228.6910
20
34.5489
30
0
0
VERTEX
8
CUT
10
229.0000
20
34.5000
30
0
0
VERTEX
8
CUT
10
255.0000
20
34.5000
30
0
0
VERTEX
8
CUT
10
255.3090
20
34.5489
30
0
0
VERTEX
8
CUT
10
255.5878
20
34.6910
30
0
0
VERTEX
8
CUT
10
255.8090
20
34.9122
30
0
0
VERTEX
8
CUT
10
255.9511
20
35.1910
30
0
0
VERTEX
8
CUT
10
256.0000
20
35.5000
30
0
0
SEQEND
8
CUT
0
CIRCLE
8
CUT
10
276.0000
20
42.0000
30
0
40
3.7500
0
CIRCLE
8
CUT
10
299.0000
20
22.0000
30
0
40
1.6000
0
CIRCLE
8
CUT
10
310.0000
20
22.0000
30
0
40
1.6000
0
ENDSEC
0
EOF
