0
SECTION
2
HEADER
9
$ACADVER
1
AC1009
9
$MEASUREMENT
70
1
0
ENDSEC
0
SECTION
2
ENTITIES
0
POLYLINE
8
CUT
66
1
70
1
0
VERTEX
8
CUT
10
120.0000
20
92.0000
30
0
0
VERTEX
8
CUT
10
119.8532
20
92.9271
30
0
0
VERTEX
8
CUT
10
119.4271
20
93.7634
30
0
0
VERTEX
8
CUT
10
118.7634
20
94.4271
30
0
0
VERTEX
8
CUT
10
117.9271
20
94.8532
30
0
0
VERTEX
8
CUT
10
117.0000
20
95.0000
30
0
0
VERTEX
8
CUT
10
3.0000
20
95.0000
30
0
0
VERTEX
8
CUT
10
2.0729
20
94.8532
30
0
0
VERTEX
8
CUT
10
1.2366
20
94.4271
30
0
0
VERTEX
8
CUT
10
0.5729
20
93.7634
30
0
0
VERTEX
8
CUT
10
0.1468
20
92.9271
30
0
0
VERTEX
8
CUT
10
0.0000
20
92.0000
30
0
0
VERTEX
8
CUT
10
0.0000
20
3.0000
30
0
0
VERTEX
8
CUT
10
0.1468
20
2.0729
30
0
0
VERTEX
8
CUT
10
0.5729
20
1.2366
30
0
0
VERTEX
8
CUT
10
1.2366
20
0.5729
30
0
0
VERTEX
8
CUT
10
2.0729
20
0.1468
30
0
0
VERTEX
8
CUT
10
3.0000
20
0.0000
30
0
0
VERTEX
8
CUT
10
117.0000
20
0.0000
30
0
0
VERTEX
8
CUT
10
117.9271
20
0.1468
30
0
0
VERTEX
8
CUT
10
118.7634
20
0.5729
30
0
0
VERTEX
8
CUT
10
119.4271
20
1.2366
30
0
0
VERTEX
8
CUT
10
119.8532
20
2.0729
30
0
0
VERTEX
8
CUT
10
120.0000
20
3.0000
30
0
0
SEQEND
8
CUT
0
CIRCLE
8
CUT
10
114.9120
20
11.3520
30
0
40
1.7000
0
CIRCLE
8
CUT
10
77.0660
20
85.3930
30
0
40
1.7000
0
POLYLINE
8
CUT
66
1
70
1
0
VERTEX
8
CUT
10
27.0000
20
14.0000
30
0
0
VERTEX
8
CUT
10
26.9168
20
14.5253
30
0
0
VERTEX
8
CUT
10
26.6753
20
14.9992
30
0
0
VERTEX
8
CUT
10
26.2992
20
15.3753
30
0
0
VERTEX
8
CUT
10
25.8253
20
15.6168
30
0
0
VERTEX
8
CUT
10
25.3000
20
15.7000
30
0
0
VERTEX
8
CUT
10
14.7000
20
15.7000
30
0
0
VERTEX
8
CUT
10
14.1747
20
15.6168
30
0
0
VERTEX
8
CUT
10
13.7008
20
15.3753
30
0
0
VERTEX
8
CUT
10
13.3247
20
14.9992
30
0
0
VERTEX
8
CUT
10
13.0832
20
14.5253
30
0
0
VERTEX
8
CUT
10
13.0000
20
14.0000
30
0
0
VERTEX
8
CUT
10
13.0000
20
14.0000
30
0
0
VERTEX
8
CUT
10
13.0832
20
13.4747
30
0
0
VERTEX
8
CUT
10
13.3247
20
13.0008
30
0
0
VERTEX
8
CUT
10
13.7008
20
12.6247
30
0
0
VERTEX
8
CUT
10
14.1747
20
12.3832
30
0
0
VERTEX
8
CUT
10
14.7000
20
12.3000
30
0
0
VERTEX
8
CUT
10
25.3000
20
12.3000
30
0
0
VERTEX
8
CUT
10
25.8253
20
12.3832
30
0
0
VERTEX
8
CUT
10
26.2992
20
12.6247
30
0
0
VERTEX
8
CUT
10
26.6753
20
13.0008
30
0
0
VERTEX
8
CUT
10
26.9168
20
13.4747
30
0
0
VERTEX
8
CUT
10
27.0000
20
14.0000
30
0
0
SEQEND
8
CUT
0
POLYLINE
8
CUT
66
1
70
1
0
VERTEX
8
CUT
10
27.0000
20
81.0000
30
0
0
VERTEX
8
CUT
10
26.9168
20
81.5253
30
0
0
VERTEX
8
CUT
10
26.6753
20
81.9992
30
0
0
VERTEX
8
CUT
10
26.2992
20
82.3753
30
0
0
VERTEX
8
CUT
10
25.8253
20
82.6168
30
0
0
VERTEX
8
CUT
10
25.3000
20
82.7000
30
0
0
VERTEX
8
CUT
10
14.7000
20
82.7000
30
0
0
VERTEX
8
CUT
10
14.1747
20
82.6168
30
0
0
VERTEX
8
CUT
10
13.7008
20
82.3753
30
0
0
VERTEX
8
CUT
10
13.3247
20
81.9992
30
0
0
VERTEX
8
CUT
10
13.0832
20
81.5253
30
0
0
VERTEX
8
CUT
10
13.0000
20
81.0000
30
0
0
VERTEX
8
CUT
10
13.0000
20
81.0000
30
0
0
VERTEX
8
CUT
10
13.0832
20
80.4747
30
0
0
VERTEX
8
CUT
10
13.3247
20
80.0008
30
0
0
VERTEX
8
CUT
10
13.7008
20
79.6247
30
0
0
VERTEX
8
CUT
10
14.1747
20
79.3832
30
0
0
VERTEX
8
CUT
10
14.7000
20
79.3000
30
0
0
VERTEX
8
CUT
10
25.3000
20
79.3000
30
0
0
VERTEX
8
CUT
10
25.8253
20
79.3832
30
0
0
VERTEX
8
CUT
10
26.2992
20
79.6247
30
0
0
VERTEX
8
CUT
10
26.6753
20
80.0008
30
0
0
VERTEX
8
CUT
10
26.9168
20
80.4747
30
0
0
VERTEX
8
CUT
10
27.0000
20
81.0000
30
0
0
SEQEND
8
CUT
0
POLYLINE
8
CUT
66
1
70
1
0
VERTEX
8
CUT
10
107.0000
20
14.0000
30
0
0
VERTEX
8
CUT
10
106.9168
20
14.5253
30
0
0
VERTEX
8
CUT
10
106.6753
20
14.9992
30
0
0
VERTEX
8
CUT
10
106.2992
20
15.3753
30
0
0
VERTEX
8
CUT
10
105.8253
20
15.6168
30
0
0
VERTEX
8
CUT
10
105.3000
20
15.7000
30
0
0
VERTEX
8
CUT
10
94.7000
20
15.7000
30
0
0
VERTEX
8
CUT
10
94.1747
20
15.6168
30
0
0
VERTEX
8
CUT
10
93.7008
20
15.3753
30
0
0
VERTEX
8
CUT
10
93.3247
20
14.9992
30
0
0
VERTEX
8
CUT
10
93.0832
20
14.5253
30
0
0
VERTEX
8
CUT
10
93.0000
20
14.0000
30
0
0
VERTEX
8
CUT
10
93.0000
20
14.0000
30
0
0
VERTEX
8
CUT
10
93.0832
20
13.4747
30
0
0
VERTEX
8
CUT
10
93.3247
20
13.0008
30
0
0
VERTEX
8
CUT
10
93.7008
20
12.6247
30
0
0
VERTEX
8
CUT
10
94.1747
20
12.3832
30
0
0
VERTEX
8
CUT
10
94.7000
20
12.3000
30
0
0
VERTEX
8
CUT
10
105.3000
20
12.3000
30
0
0
VERTEX
8
CUT
10
105.8253
20
12.3832
30
0
0
VERTEX
8
CUT
10
106.2992
20
12.6247
30
0
0
VERTEX
8
CUT
10
106.6753
20
13.0008
30
0
0
VERTEX
8
CUT
10
106.9168
20
13.4747
30
0
0
VERTEX
8
CUT
10
107.0000
20
14.0000
30
0
0
SEQEND
8
CUT
0
POLYLINE
8
CUT
66
1
70
1
0
VERTEX
8
CUT
10
107.0000
20
81.0000
30
0
0
VERTEX
8
CUT
10
106.9168
20
81.5253
30
0
0
VERTEX
8
CUT
10
106.6753
20
81.9992
30
0
0
VERTEX
8
CUT
10
106.2992
20
82.3753
30
0
0
VERTEX
8
CUT
10
105.8253
20
82.6168
30
0
0
VERTEX
8
CUT
10
105.3000
20
82.7000
30
0
0
VERTEX
8
CUT
10
94.7000
20
82.7000
30
0
0
VERTEX
8
CUT
10
94.1747
20
82.6168
30
0
0
VERTEX
8
CUT
10
93.7008
20
82.3753
30
0
0
VERTEX
8
CUT
10
93.3247
20
81.9992
30
0
0
VERTEX
8
CUT
10
93.0832
20
81.5253
30
0
0
VERTEX
8
CUT
10
93.0000
20
81.0000
30
0
0
VERTEX
8
CUT
10
93.0000
20
81.0000
30
0
0
VERTEX
8
CUT
10
93.0832
20
80.4747
30
0
0
VERTEX
8
CUT
10
93.3247
20
80.0008
30
0
0
VERTEX
8
CUT
10
93.7008
20
79.6247
30
0
0
VERTEX
8
CUT
10
94.1747
20
79.3832
30
0
0
VERTEX
8
CUT
10
94.7000
20
79.3000
30
0
0
VERTEX
8
CUT
10
105.3000
20
79.3000
30
0
0
VERTEX
8
CUT
10
105.8253
20
79.3832
30
0
0
VERTEX
8
CUT
10
106.2992
20
79.6247
30
0
0
VERTEX
8
CUT
10
106.6753
20
80.0008
30
0
0
VERTEX
8
CUT
10
106.9168
20
80.4747
30
0
0
VERTEX
8
CUT
10
107.0000
20
81.0000
30
0
0
SEQEND
8
CUT
0
POLYLINE
8
CUT
66
1
70
1
0
VERTEX
8
CUT
10
66.0000
20
8.0000
30
0
0
VERTEX
8
CUT
10
65.9266
20
8.4635
30
0
0
VERTEX
8
CUT
10
65.7135
20
8.8817
30
0
0
VERTEX
8
CUT
10
65.3817
20
9.2135
30
0
0
VERTEX
8
CUT
10
64.9635
20
9.4266
30
0
0
VERTEX
8
CUT
10
64.5000
20
9.5000
30
0
0
VERTEX
8
CUT
10
55.5000
20
9.5000
30
0
0
VERTEX
8
CUT
10
55.0365
20
9.4266
30
0
0
VERTEX
8
CUT
10
54.6183
20
9.2135
30
0
0
VERTEX
8
CUT
10
54.2865
20
8.8817
30
0
0
VERTEX
8
CUT
10
54.0734
20
8.4635
30
0
0
VERTEX
8
CUT
10
54.0000
20
8.0000
30
0
0
VERTEX
8
CUT
10
54.0000
20
8.0000
30
0
0
VERTEX
8
CUT
10
54.0734
20
7.5365
30
0
0
VERTEX
8
CUT
10
54.2865
20
7.1183
30
0
0
VERTEX
8
CUT
10
54.6183
20
6.7865
30
0
0
VERTEX
8
CUT
10
55.0365
20
6.5734
30
0
0
VERTEX
8
CUT
10
55.5000
20
6.5000
30
0
0
VERTEX
8
CUT
10
64.5000
20
6.5000
30
0
0
VERTEX
8
CUT
10
64.9635
20
6.5734
30
0
0
VERTEX
8
CUT
10
65.3817
20
6.7865
30
0
0
VERTEX
8
CUT
10
65.7135
20
7.1183
30
0
0
VERTEX
8
CUT
10
65.9266
20
7.5365
30
0
0
VERTEX
8
CUT
10
66.0000
20
8.0000
30
0
0
SEQEND
8
CUT
0
POLYLINE
8
CUT
66
1
70
1
0
VERTEX
8
CUT
10
66.0000
20
87.0000
30
0
0
VERTEX
8
CUT
10
65.9266
20
87.4635
30
0
0
VERTEX
8
CUT
10
65.7135
20
87.8817
30
0
0
VERTEX
8
CUT
10
65.3817
20
88.2135
30
0
0
VERTEX
8
CUT
10
64.9635
20
88.4266
30
0
0
VERTEX
8
CUT
10
64.5000
20
88.5000
30
0
0
VERTEX
8
CUT
10
55.5000
20
88.5000
30
0
0
VERTEX
8
CUT
10
55.0365
20
88.4266
30
0
0
VERTEX
8
CUT
10
54.6183
20
88.2135
30
0
0
VERTEX
8
CUT
10
54.2865
20
87.8817
30
0
0
VERTEX
8
CUT
10
54.0734
20
87.4635
30
0
0
VERTEX
8
CUT
10
54.0000
20
87.0000
30
0
0
VERTEX
8
CUT
10
54.0000
20
87.0000
30
0
0
VERTEX
8
CUT
10
54.0734
20
86.5365
30
0
0
VERTEX
8
CUT
10
54.2865
20
86.1183
30
0
0
VERTEX
8
CUT
10
54.6183
20
85.7865
30
0
0
VERTEX
8
CUT
10
55.0365
20
85.5734
30
0
0
VERTEX
8
CUT
10
55.5000
20
85.5000
30
0
0
VERTEX
8
CUT
10
64.5000
20
85.5000
30
0
0
VERTEX
8
CUT
10
64.9635
20
85.5734
30
0
0
VERTEX
8
CUT
10
65.3817
20
85.7865
30
0
0
VERTEX
8
CUT
10
65.7135
20
86.1183
30
0
0
VERTEX
8
CUT
10
65.9266
20
86.5365
30
0
0
VERTEX
8
CUT
10
66.0000
20
87.0000
30
0
0
SEQEND
8
CUT
0
ENDSEC
0
EOF
