0
SECTION
2
HEADER
9
$ACADVER
1
AC1009
9
$MEASUREMENT
70
1
0
ENDSEC
0
SECTION
2
ENTITIES
0
POLYLINE
8
CUT
66
1
70
1
0
VERTEX
8
CUT
10
329.0000
20
203.0000
30
0
0
VERTEX
8
CUT
10
328.8532
20
203.9271
30
0
0
VERTEX
8
CUT
10
328.4271
20
204.7634
30
0
0
VERTEX
8
CUT
10
327.7634
20
205.4271
30
0
0
VERTEX
8
CUT
10
326.9271
20
205.8532
30
0
0
VERTEX
8
CUT
10
326.0000
20
206.0000
30
0
0
VERTEX
8
CUT
10
3.0000
20
206.0000
30
0
0
VERTEX
8
CUT
10
2.0729
20
205.8532
30
0
0
VERTEX
8
CUT
10
1.2366
20
205.4271
30
0
0
VERTEX
8
CUT
10
0.5729
20
204.7634
30
0
0
VERTEX
8
CUT
10
0.1468
20
203.9271
30
0
0
VERTEX
8
CUT
10
0.0000
20
203.0000
30
0
0
VERTEX
8
CUT
10
0.0000
20
3.0000
30
0
0
VERTEX
8
CUT
10
0.1468
20
2.0729
30
0
0
VERTEX
8
CUT
10
0.5729
20
1.2366
30
0
0
VERTEX
8
CUT
10
1.2366
20
0.5729
30
0
0
VERTEX
8
CUT
10
2.0729
20
0.1468
30
0
0
VERTEX
8
CUT
10
3.0000
20
0.0000
30
0
0
VERTEX
8
CUT
10
326.0000
20
0.0000
30
0
0
VERTEX
8
CUT
10
326.9271
20
0.1468
30
0
0
VERTEX
8
CUT
10
327.7634
20
0.5729
30
0
0
VERTEX
8
CUT
10
328.4271
20
1.2366
30
0
0
VERTEX
8
CUT
10
328.8532
20
2.0729
30
0
0
VERTEX
8
CUT
10
329.0000
20
3.0000
30
0
0
SEQEND
8
CUT
0
CIRCLE
8
CUT
10
7.0000
20
7.0000
30
0
40
1.7000
0
CIRCLE
8
CUT
10
322.0000
20
7.0000
30
0
40
1.7000
0
CIRCLE
8
CUT
10
322.0000
20
199.0000
30
0
40
1.7000
0
CIRCLE
8
CUT
10
7.0000
20
199.0000
30
0
40
1.7000
0
POLYLINE
8
CUT
66
1
70
1
0
VERTEX
8
CUT
10
117.0000
20
40.0000
30
0
0
VERTEX
8
CUT
10
116.9266
20
40.4635
30
0
0
VERTEX
8
CUT
10
116.7135
20
40.8817
30
0
0
VERTEX
8
CUT
10
116.3817
20
41.2135
30
0
0
VERTEX
8
CUT
10
115.9635
20
41.4266
30
0
0
VERTEX
8
CUT
10
115.5000
20
41.5000
30
0
0
VERTEX
8
CUT
10
56.5000
20
41.5000
30
0
0
VERTEX
8
CUT
10
56.0365
20
41.4266
30
0
0
VERTEX
8
CUT
10
55.6183
20
41.2135
30
0
0
VERTEX
8
CUT
10
55.2865
20
40.8817
30
0
0
VERTEX
8
CUT
10
55.0734
20
40.4635
30
0
0
VERTEX
8
CUT
10
55.0000
20
40.0000
30
0
0
VERTEX
8
CUT
10
55.0000
20
40.0000
30
0
0
VERTEX
8
CUT
10
55.0734
20
39.5365
30
0
0
VERTEX
8
CUT
10
55.2865
20
39.1183
30
0
0
VERTEX
8
CUT
10
55.6183
20
38.7865
30
0
0
VERTEX
8
CUT
10
56.0365
20
38.5734
30
0
0
VERTEX
8
CUT
10
56.5000
20
38.5000
30
0
0
VERTEX
8
CUT
10
115.5000
20
38.5000
30
0
0
VERTEX
8
CUT
10
115.9635
20
38.5734
30
0
0
VERTEX
8
CUT
10
116.3817
20
38.7865
30
0
0
VERTEX
8
CUT
10
116.7135
20
39.1183
30
0
0
VERTEX
8
CUT
10
116.9266
20
39.5365
30
0
0
VERTEX
8
CUT
10
117.0000
20
40.0000
30
0
0
SEQEND
8
CUT
0
POLYLINE
8
CUT
66
1
70
1
0
VERTEX
8
CUT
10
117.0000
20
47.0000
30
0
0
VERTEX
8
CUT
10
116.9266
20
47.4635
30
0
0
VERTEX
8
CUT
10
116.7135
20
47.8817
30
0
0
VERTEX
8
CUT
10
116.3817
20
48.2135
30
0
0
VERTEX
8
CUT
10
115.9635
20
48.4266
30
0
0
VERTEX
8
CUT
10
115.5000
20
48.5000
30
0
0
VERTEX
8
CUT
10
56.5000
20
48.5000
30
0
0
VERTEX
8
CUT
10
56.0365
20
48.4266
30
0
0
VERTEX
8
CUT
10
55.6183
20
48.2135
30
0
0
VERTEX
8
CUT
10
55.2865
20
47.8817
30
0
0
VERTEX
8
CUT
10
55.0734
20
47.4635
30
0
0
VERTEX
8
CUT
10
55.0000
20
47.0000
30
0
0
VERTEX
8
CUT
10
55.0000
20
47.0000
30
0
0
VERTEX
8
CUT
10
55.0734
20
46.5365
30
0
0
VERTEX
8
CUT
10
55.2865
20
46.1183
30
0
0
VERTEX
8
CUT
10
55.6183
20
45.7865
30
0
0
VERTEX
8
CUT
10
56.0365
20
45.5734
30
0
0
VERTEX
8
CUT
10
56.5000
20
45.5000
30
0
0
VERTEX
8
CUT
10
115.5000
20
45.5000
30
0
0
VERTEX
8
CUT
10
115.9635
20
45.5734
30
0
0
VERTEX
8
CUT
10
116.3817
20
45.7865
30
0
0
VERTEX
8
CUT
10
116.7135
20
46.1183
30
0
0
VERTEX
8
CUT
10
116.9266
20
46.5365
30
0
0
VERTEX
8
CUT
10
117.0000
20
47.0000
30
0
0
SEQEND
8
CUT
0
POLYLINE
8
CUT
66
1
70
1
0
VERTEX
8
CUT
10
117.0000
20
54.0000
30
0
0
VERTEX
8
CUT
10
116.9266
20
54.4635
30
0
0
VERTEX
8
CUT
10
116.7135
20
54.8817
30
0
0
VERTEX
8
CUT
10
116.3817
20
55.2135
30
0
0
VERTEX
8
CUT
10
115.9635
20
55.4266
30
0
0
VERTEX
8
CUT
10
115.5000
20
55.5000
30
0
0
VERTEX
8
CUT
10
56.5000
20
55.5000
30
0
0
VERTEX
8
CUT
10
56.0365
20
55.4266
30
0
0
VERTEX
8
CUT
10
55.6183
20
55.2135
30
0
0
VERTEX
8
CUT
10
55.2865
20
54.8817
30
0
0
VERTEX
8
CUT
10
55.0734
20
54.4635
30
0
0
VERTEX
8
CUT
10
55.0000
20
54.0000
30
0
0
VERTEX
8
CUT
10
55.0000
20
54.0000
30
0
0
VERTEX
8
CUT
10
55.0734
20
53.5365
30
0
0
VERTEX
8
CUT
10
55.2865
20
53.1183
30
0
0
VERTEX
8
CUT
10
55.6183
20
52.7865
30
0
0
VERTEX
8
CUT
10
56.0365
20
52.5734
30
0
0
VERTEX
8
CUT
10
56.5000
20
52.5000
30
0
0
VERTEX
8
CUT
10
115.5000
20
52.5000
30
0
0
VERTEX
8
CUT
10
115.9635
20
52.5734
30
0
0
VERTEX
8
CUT
10
116.3817
20
52.7865
30
0
0
VERTEX
8
CUT
10
116.7135
20
53.1183
30
0
0
VERTEX
8
CUT
10
116.9266
20
53.5365
30
0
0
VERTEX
8
CUT
10
117.0000
20
54.0000
30
0
0
SEQEND
8
CUT
0
POLYLINE
8
CUT
66
1
70
1
0
VERTEX
8
CUT
10
117.0000
20
61.0000
30
0
0
VERTEX
8
CUT
10
116.9266
20
61.4635
30
0
0
VERTEX
8
CUT
10
116.7135
20
61.8817
30
0
0
VERTEX
8
CUT
10
116.3817
20
62.2135
30
0
0
VERTEX
8
CUT
10
115.9635
20
62.4266
30
0
0
VERTEX
8
CUT
10
115.5000
20
62.5000
30
0
0
VERTEX
8
CUT
10
56.5000
20
62.5000
30
0
0
VERTEX
8
CUT
10
56.0365
20
62.4266
30
0
0
VERTEX
8
CUT
10
55.6183
20
62.2135
30
0
0
VERTEX
8
CUT
10
55.2865
20
61.8817
30
0
0
VERTEX
8
CUT
10
55.0734
20
61.4635
30
0
0
VERTEX
8
CUT
10
55.0000
20
61.0000
30
0
0
VERTEX
8
CUT
10
55.0000
20
61.0000
30
0
0
VERTEX
8
CUT
10
55.0734
20
60.5365
30
0
0
VERTEX
8
CUT
10
55.2865
20
60.1183
30
0
0
VERTEX
8
CUT
10
55.6183
20
59.7865
30
0
0
VERTEX
8
CUT
10
56.0365
20
59.5734
30
0
0
VERTEX
8
CUT
10
56.5000
20
59.5000
30
0
0
VERTEX
8
CUT
10
115.5000
20
59.5000
30
0
0
VERTEX
8
CUT
10
115.9635
20
59.5734
30
0
0
VERTEX
8
CUT
10
116.3817
20
59.7865
30
0
0
VERTEX
8
CUT
10
116.7135
20
60.1183
30
0
0
VERTEX
8
CUT
10
116.9266
20
60.5365
30
0
0
VERTEX
8
CUT
10
117.0000
20
61.0000
30
0
0
SEQEND
8
CUT
0
POLYLINE
8
CUT
66
1
70
1
0
VERTEX
8
CUT
10
117.0000
20
68.0000
30
0
0
VERTEX
8
CUT
10
116.9266
20
68.4635
30
0
0
VERTEX
8
CUT
10
116.7135
20
68.8817
30
0
0
VERTEX
8
CUT
10
116.3817
20
69.2135
30
0
0
VERTEX
8
CUT
10
115.9635
20
69.4266
30
0
0
VERTEX
8
CUT
10
115.5000
20
69.5000
30
0
0
VERTEX
8
CUT
10
56.5000
20
69.5000
30
0
0
VERTEX
8
CUT
10
56.0365
20
69.4266
30
0
0
VERTEX
8
CUT
10
55.6183
20
69.2135
30
0
0
VERTEX
8
CUT
10
55.2865
20
68.8817
30
0
0
VERTEX
8
CUT
10
55.0734
20
68.4635
30
0
0
VERTEX
8
CUT
10
55.0000
20
68.0000
30
0
0
VERTEX
8
CUT
10
55.0000
20
68.0000
30
0
0
VERTEX
8
CUT
10
55.0734
20
67.5365
30
0
0
VERTEX
8
CUT
10
55.2865
20
67.1183
30
0
0
VERTEX
8
CUT
10
55.6183
20
66.7865
30
0
0
VERTEX
8
CUT
10
56.0365
20
66.5734
30
0
0
VERTEX
8
CUT
10
56.5000
20
66.5000
30
0
0
VERTEX
8
CUT
10
115.5000
20
66.5000
30
0
0
VERTEX
8
CUT
10
115.9635
20
66.5734
30
0
0
VERTEX
8
CUT
10
116.3817
20
66.7865
30
0
0
VERTEX
8
CUT
10
116.7135
20
67.1183
30
0
0
VERTEX
8
CUT
10
116.9266
20
67.5365
30
0
0
VERTEX
8
CUT
10
117.0000
20
68.0000
30
0
0
SEQEND
8
CUT
0
POLYLINE
8
CUT
66
1
70
1
0
VERTEX
8
CUT
10
117.0000
20
75.0000
30
0
0
VERTEX
8
CUT
10
116.9266
20
75.4635
30
0
0
VERTEX
8
CUT
10
116.7135
20
75.8817
30
0
0
VERTEX
8
CUT
10
116.3817
20
76.2135
30
0
0
VERTEX
8
CUT
10
115.9635
20
76.4266
30
0
0
VERTEX
8
CUT
10
115.5000
20
76.5000
30
0
0
VERTEX
8
CUT
10
56.5000
20
76.5000
30
0
0
VERTEX
8
CUT
10
56.0365
20
76.4266
30
0
0
VERTEX
8
CUT
10
55.6183
20
76.2135
30
0
0
VERTEX
8
CUT
10
55.2865
20
75.8817
30
0
0
VERTEX
8
CUT
10
55.0734
20
75.4635
30
0
0
VERTEX
8
CUT
10
55.0000
20
75.0000
30
0
0
VERTEX
8
CUT
10
55.0000
20
75.0000
30
0
0
VERTEX
8
CUT
10
55.0734
20
74.5365
30
0
0
VERTEX
8
CUT
10
55.2865
20
74.1183
30
0
0
VERTEX
8
CUT
10
55.6183
20
73.7865
30
0
0
VERTEX
8
CUT
10
56.0365
20
73.5734
30
0
0
VERTEX
8
CUT
10
56.5000
20
73.5000
30
0
0
VERTEX
8
CUT
10
115.5000
20
73.5000
30
0
0
VERTEX
8
CUT
10
115.9635
20
73.5734
30
0
0
VERTEX
8
CUT
10
116.3817
20
73.7865
30
0
0
VERTEX
8
CUT
10
116.7135
20
74.1183
30
0
0
VERTEX
8
CUT
10
116.9266
20
74.5365
30
0
0
VERTEX
8
CUT
10
117.0000
20
75.0000
30
0
0
SEQEND
8
CUT
0
POLYLINE
8
CUT
66
1
70
1
0
VERTEX
8
CUT
10
117.0000
20
82.0000
30
0
0
VERTEX
8
CUT
10
116.9266
20
82.4635
30
0
0
VERTEX
8
CUT
10
116.7135
20
82.8817
30
0
0
VERTEX
8
CUT
10
116.3817
20
83.2135
30
0
0
VERTEX
8
CUT
10
115.9635
20
83.4266
30
0
0
VERTEX
8
CUT
10
115.5000
20
83.5000
30
0
0
VERTEX
8
CUT
10
56.5000
20
83.5000
30
0
0
VERTEX
8
CUT
10
56.0365
20
83.4266
30
0
0
VERTEX
8
CUT
10
55.6183
20
83.2135
30
0
0
VERTEX
8
CUT
10
55.2865
20
82.8817
30
0
0
VERTEX
8
CUT
10
55.0734
20
82.4635
30
0
0
VERTEX
8
CUT
10
55.0000
20
82.0000
30
0
0
VERTEX
8
CUT
10
55.0000
20
82.0000
30
0
0
VERTEX
8
CUT
10
55.0734
20
81.5365
30
0
0
VERTEX
8
CUT
10
55.2865
20
81.1183
30
0
0
VERTEX
8
CUT
10
55.6183
20
80.7865
30
0
0
VERTEX
8
CUT
10
56.0365
20
80.5734
30
0
0
VERTEX
8
CUT
10
56.5000
20
80.5000
30
0
0
VERTEX
8
CUT
10
115.5000
20
80.5000
30
0
0
VERTEX
8
CUT
10
115.9635
20
80.5734
30
0
0
VERTEX
8
CUT
10
116.3817
20
80.7865
30
0
0
VERTEX
8
CUT
10
116.7135
20
81.1183
30
0
0
VERTEX
8
CUT
10
116.9266
20
81.5365
30
0
0
VERTEX
8
CUT
10
117.0000
20
82.0000
30
0
0
SEQEND
8
CUT
0
POLYLINE
8
CUT
66
1
70
1
0
VERTEX
8
CUT
10
117.0000
20
89.0000
30
0
0
VERTEX
8
CUT
10
116.9266
20
89.4635
30
0
0
VERTEX
8
CUT
10
116.7135
20
89.8817
30
0
0
VERTEX
8
CUT
10
116.3817
20
90.2135
30
0
0
VERTEX
8
CUT
10
115.9635
20
90.4266
30
0
0
VERTEX
8
CUT
10
115.5000
20
90.5000
30
0
0
VERTEX
8
CUT
10
56.5000
20
90.5000
30
0
0
VERTEX
8
CUT
10
56.0365
20
90.4266
30
0
0
VERTEX
8
CUT
10
55.6183
20
90.2135
30
0
0
VERTEX
8
CUT
10
55.2865
20
89.8817
30
0
0
VERTEX
8
CUT
10
55.0734
20
89.4635
30
0
0
VERTEX
8
CUT
10
55.0000
20
89.0000
30
0
0
VERTEX
8
CUT
10
55.0000
20
89.0000
30
0
0
VERTEX
8
CUT
10
55.0734
20
88.5365
30
0
0
VERTEX
8
CUT
10
55.2865
20
88.1183
30
0
0
VERTEX
8
CUT
10
55.6183
20
87.7865
30
0
0
VERTEX
8
CUT
10
56.0365
20
87.5734
30
0
0
VERTEX
8
CUT
10
56.5000
20
87.5000
30
0
0
VERTEX
8
CUT
10
115.5000
20
87.5000
30
0
0
VERTEX
8
CUT
10
115.9635
20
87.5734
30
0
0
VERTEX
8
CUT
10
116.3817
20
87.7865
30
0
0
VERTEX
8
CUT
10
116.7135
20
88.1183
30
0
0
VERTEX
8
CUT
10
116.9266
20
88.5365
30
0
0
VERTEX
8
CUT
10
117.0000
20
89.0000
30
0
0
SEQEND
8
CUT
0
POLYLINE
8
CUT
66
1
70
1
0
VERTEX
8
CUT
10
296.0000
20
121.0000
30
0
0
VERTEX
8
CUT
10
295.9266
20
121.4635
30
0
0
VERTEX
8
CUT
10
295.7135
20
121.8817
30
0
0
VERTEX
8
CUT
10
295.3817
20
122.2135
30
0
0
VERTEX
8
CUT
10
294.9635
20
122.4266
30
0
0
VERTEX
8
CUT
10
294.5000
20
122.5000
30
0
0
VERTEX
8
CUT
10
213.5000
20
122.5000
30
0
0
VERTEX
8
CUT
10
213.0365
20
122.4266
30
0
0
VERTEX
8
CUT
10
212.6183
20
122.2135
30
0
0
VERTEX
8
CUT
10
212.2865
20
121.8817
30
0
0
VERTEX
8
CUT
10
212.0734
20
121.4635
30
0
0
VERTEX
8
CUT
10
212.0000
20
121.0000
30
0
0
VERTEX
8
CUT
10
212.0000
20
121.0000
30
0
0
VERTEX
8
CUT
10
212.0734
20
120.5365
30
0
0
VERTEX
8
CUT
10
212.2865
20
120.1183
30
0
0
VERTEX
8
CUT
10
212.6183
20
119.7865
30
0
0
VERTEX
8
CUT
10
213.0365
20
119.5734
30
0
0
VERTEX
8
CUT
10
213.5000
20
119.5000
30
0
0
VERTEX
8
CUT
10
294.5000
20
119.5000
30
0
0
VERTEX
8
CUT
10
294.9635
20
119.5734
30
0
0
VERTEX
8
CUT
10
295.3817
20
119.7865
30
0
0
VERTEX
8
CUT
10
295.7135
20
120.1183
30
0
0
VERTEX
8
CUT
10
295.9266
20
120.5365
30
0
0
VERTEX
8
CUT
10
296.0000
20
121.0000
30
0
0
SEQEND
8
CUT
0
POLYLINE
8
CUT
66
1
70
1
0
VERTEX
8
CUT
10
296.0000
20
129.0000
30
0
0
VERTEX
8
CUT
10
295.9266
20
129.4635
30
0
0
VERTEX
8
CUT
10
295.7135
20
129.8817
30
0
0
VERTEX
8
CUT
10
295.3817
20
130.2135
30
0
0
VERTEX
8
CUT
10
294.9635
20
130.4266
30
0
0
VERTEX
8
CUT
10
294.5000
20
130.5000
30
0
0
VERTEX
8
CUT
10
213.5000
20
130.5000
30
0
0
VERTEX
8
CUT
10
213.0365
20
130.4266
30
0
0
VERTEX
8
CUT
10
212.6183
20
130.2135
30
0
0
VERTEX
8
CUT
10
212.2865
20
129.8817
30
0
0
VERTEX
8
CUT
10
212.0734
20
129.4635
30
0
0
VERTEX
8
CUT
10
212.0000
20
129.0000
30
0
0
VERTEX
8
CUT
10
212.0000
20
129.0000
30
0
0
VERTEX
8
CUT
10
212.0734
20
128.5365
30
0
0
VERTEX
8
CUT
10
212.2865
20
128.1183
30
0
0
VERTEX
8
CUT
10
212.6183
20
127.7865
30
0
0
VERTEX
8
CUT
10
213.0365
20
127.5734
30
0
0
VERTEX
8
CUT
10
213.5000
20
127.5000
30
0
0
VERTEX
8
CUT
10
294.5000
20
127.5000
30
0
0
VERTEX
8
CUT
10
294.9635
20
127.5734
30
0
0
VERTEX
8
CUT
10
295.3817
20
127.7865
30
0
0
VERTEX
8
CUT
10
295.7135
20
128.1183
30
0
0
VERTEX
8
CUT
10
295.9266
20
128.5365
30
0
0
VERTEX
8
CUT
10
296.0000
20
129.0000
30
0
0
SEQEND
8
CUT
0
POLYLINE
8
CUT
66
1
70
1
0
VERTEX
8
CUT
10
296.0000
20
137.0000
30
0
0
VERTEX
8
CUT
10
295.9266
20
137.4635
30
0
0
VERTEX
8
CUT
10
295.7135
20
137.8817
30
0
0
VERTEX
8
CUT
10
295.3817
20
138.2135
30
0
0
VERTEX
8
CUT
10
294.9635
20
138.4266
30
0
0
VERTEX
8
CUT
10
294.5000
20
138.5000
30
0
0
VERTEX
8
CUT
10
213.5000
20
138.5000
30
0
0
VERTEX
8
CUT
10
213.0365
20
138.4266
30
0
0
VERTEX
8
CUT
10
212.6183
20
138.2135
30
0
0
VERTEX
8
CUT
10
212.2865
20
137.8817
30
0
0
VERTEX
8
CUT
10
212.0734
20
137.4635
30
0
0
VERTEX
8
CUT
10
212.0000
20
137.0000
30
0
0
VERTEX
8
CUT
10
212.0000
20
137.0000
30
0
0
VERTEX
8
CUT
10
212.0734
20
136.5365
30
0
0
VERTEX
8
CUT
10
212.2865
20
136.1183
30
0
0
VERTEX
8
CUT
10
212.6183
20
135.7865
30
0
0
VERTEX
8
CUT
10
213.0365
20
135.5734
30
0
0
VERTEX
8
CUT
10
213.5000
20
135.5000
30
0
0
VERTEX
8
CUT
10
294.5000
20
135.5000
30
0
0
VERTEX
8
CUT
10
294.9635
20
135.5734
30
0
0
VERTEX
8
CUT
10
295.3817
20
135.7865
30
0
0
VERTEX
8
CUT
10
295.7135
20
136.1183
30
0
0
VERTEX
8
CUT
10
295.9266
20
136.5365
30
0
0
VERTEX
8
CUT
10
296.0000
20
137.0000
30
0
0
SEQEND
8
CUT
0
POLYLINE
8
CUT
66
1
70
1
0
VERTEX
8
CUT
10
296.0000
20
145.0000
30
0
0
VERTEX
8
CUT
10
295.9266
20
145.4635
30
0
0
VERTEX
8
CUT
10
295.7135
20
145.8817
30
0
0
VERTEX
8
CUT
10
295.3817
20
146.2135
30
0
0
VERTEX
8
CUT
10
294.9635
20
146.4266
30
0
0
VERTEX
8
CUT
10
294.5000
20
146.5000
30
0
0
VERTEX
8
CUT
10
213.5000
20
146.5000
30
0
0
VERTEX
8
CUT
10
213.0365
20
146.4266
30
0
0
VERTEX
8
CUT
10
212.6183
20
146.2135
30
0
0
VERTEX
8
CUT
10
212.2865
20
145.8817
30
0
0
VERTEX
8
CUT
10
212.0734
20
145.4635
30
0
0
VERTEX
8
CUT
10
212.0000
20
145.0000
30
0
0
VERTEX
8
CUT
10
212.0000
20
145.0000
30
0
0
VERTEX
8
CUT
10
212.0734
20
144.5365
30
0
0
VERTEX
8
CUT
10
212.2865
20
144.1183
30
0
0
VERTEX
8
CUT
10
212.6183
20
143.7865
30
0
0
VERTEX
8
CUT
10
213.0365
20
143.5734
30
0
0
VERTEX
8
CUT
10
213.5000
20
143.5000
30
0
0
VERTEX
8
CUT
10
294.5000
20
143.5000
30
0
0
VERTEX
8
CUT
10
294.9635
20
143.5734
30
0
0
VERTEX
8
CUT
10
295.3817
20
143.7865
30
0
0
VERTEX
8
CUT
10
295.7135
20
144.1183
30
0
0
VERTEX
8
CUT
10
295.9266
20
144.5365
30
0
0
VERTEX
8
CUT
10
296.0000
20
145.0000
30
0
0
SEQEND
8
CUT
0
POLYLINE
8
CUT
66
1
70
1
0
VERTEX
8
CUT
10
296.0000
20
153.0000
30
0
0
VERTEX
8
CUT
10
295.9266
20
153.4635
30
0
0
VERTEX
8
CUT
10
295.7135
20
153.8817
30
0
0
VERTEX
8
CUT
10
295.3817
20
154.2135
30
0
0
VERTEX
8
CUT
10
294.9635
20
154.4266
30
0
0
VERTEX
8
CUT
10
294.5000
20
154.5000
30
0
0
VERTEX
8
CUT
10
213.5000
20
154.5000
30
0
0
VERTEX
8
CUT
10
213.0365
20
154.4266
30
0
0
VERTEX
8
CUT
10
212.6183
20
154.2135
30
0
0
VERTEX
8
CUT
10
212.2865
20
153.8817
30
0
0
VERTEX
8
CUT
10
212.0734
20
153.4635
30
0
0
VERTEX
8
CUT
10
212.0000
20
153.0000
30
0
0
VERTEX
8
CUT
10
212.0000
20
153.0000
30
0
0
VERTEX
8
CUT
10
212.0734
20
152.5365
30
0
0
VERTEX
8
CUT
10
212.2865
20
152.1183
30
0
0
VERTEX
8
CUT
10
212.6183
20
151.7865
30
0
0
VERTEX
8
CUT
10
213.0365
20
151.5734
30
0
0
VERTEX
8
CUT
10
213.5000
20
151.5000
30
0
0
VERTEX
8
CUT
10
294.5000
20
151.5000
30
0
0
VERTEX
8
CUT
10
294.9635
20
151.5734
30
0
0
VERTEX
8
CUT
10
295.3817
20
151.7865
30
0
0
VERTEX
8
CUT
10
295.7135
20
152.1183
30
0
0
VERTEX
8
CUT
10
295.9266
20
152.5365
30
0
0
VERTEX
8
CUT
10
296.0000
20
153.0000
30
0
0
SEQEND
8
CUT
0
POLYLINE
8
CUT
66
1
70
1
0
VERTEX
8
CUT
10
296.0000
20
161.0000
30
0
0
VERTEX
8
CUT
10
295.9266
20
161.4635
30
0
0
VERTEX
8
CUT
10
295.7135
20
161.8817
30
0
0
VERTEX
8
CUT
10
295.3817
20
162.2135
30
0
0
VERTEX
8
CUT
10
294.9635
20
162.4266
30
0
0
VERTEX
8
CUT
10
294.5000
20
162.5000
30
0
0
VERTEX
8
CUT
10
213.5000
20
162.5000
30
0
0
VERTEX
8
CUT
10
213.0365
20
162.4266
30
0
0
VERTEX
8
CUT
10
212.6183
20
162.2135
30
0
0
VERTEX
8
CUT
10
212.2865
20
161.8817
30
0
0
VERTEX
8
CUT
10
212.0734
20
161.4635
30
0
0
VERTEX
8
CUT
10
212.0000
20
161.0000
30
0
0
VERTEX
8
CUT
10
212.0000
20
161.0000
30
0
0
VERTEX
8
CUT
10
212.0734
20
160.5365
30
0
0
VERTEX
8
CUT
10
212.2865
20
160.1183
30
0
0
VERTEX
8
CUT
10
212.6183
20
159.7865
30
0
0
VERTEX
8
CUT
10
213.0365
20
159.5734
30
0
0
VERTEX
8
CUT
10
213.5000
20
159.5000
30
0
0
VERTEX
8
CUT
10
294.5000
20
159.5000
30
0
0
VERTEX
8
CUT
10
294.9635
20
159.5734
30
0
0
VERTEX
8
CUT
10
295.3817
20
159.7865
30
0
0
VERTEX
8
CUT
10
295.7135
20
160.1183
30
0
0
VERTEX
8
CUT
10
295.9266
20
160.5365
30
0
0
VERTEX
8
CUT
10
296.0000
20
161.0000
30
0
0
SEQEND
8
CUT
0
POLYLINE
8
CUT
66
1
70
1
0
VERTEX
8
CUT
10
296.0000
20
169.0000
30
0
0
VERTEX
8
CUT
10
295.9266
20
169.4635
30
0
0
VERTEX
8
CUT
10
295.7135
20
169.8817
30
0
0
VERTEX
8
CUT
10
295.3817
20
170.2135
30
0
0
VERTEX
8
CUT
10
294.9635
20
170.4266
30
0
0
VERTEX
8
CUT
10
294.5000
20
170.5000
30
0
0
VERTEX
8
CUT
10
213.5000
20
170.5000
30
0
0
VERTEX
8
CUT
10
213.0365
20
170.4266
30
0
0
VERTEX
8
CUT
10
212.6183
20
170.2135
30
0
0
VERTEX
8
CUT
10
212.2865
20
169.8817
30
0
0
VERTEX
8
CUT
10
212.0734
20
169.4635
30
0
0
VERTEX
8
CUT
10
212.0000
20
169.0000
30
0
0
VERTEX
8
CUT
10
212.0000
20
169.0000
30
0
0
VERTEX
8
CUT
10
212.0734
20
168.5365
30
0
0
VERTEX
8
CUT
10
212.2865
20
168.1183
30
0
0
VERTEX
8
CUT
10
212.6183
20
167.7865
30
0
0
VERTEX
8
CUT
10
213.0365
20
167.5734
30
0
0
VERTEX
8
CUT
10
213.5000
20
167.5000
30
0
0
VERTEX
8
CUT
10
294.5000
20
167.5000
30
0
0
VERTEX
8
CUT
10
294.9635
20
167.5734
30
0
0
VERTEX
8
CUT
10
295.3817
20
167.7865
30
0
0
VERTEX
8
CUT
10
295.7135
20
168.1183
30
0
0
VERTEX
8
CUT
10
295.9266
20
168.5365
30
0
0
VERTEX
8
CUT
10
296.0000
20
169.0000
30
0
0
SEQEND
8
CUT
0
POLYLINE
8
CUT
66
1
70
1
0
VERTEX
8
CUT
10
296.0000
20
177.0000
30
0
0
VERTEX
8
CUT
10
295.9266
20
177.4635
30
0
0
VERTEX
8
CUT
10
295.7135
20
177.8817
30
0
0
VERTEX
8
CUT
10
295.3817
20
178.2135
30
0
0
VERTEX
8
CUT
10
294.9635
20
178.4266
30
0
0
VERTEX
8
CUT
10
294.5000
20
178.5000
30
0
0
VERTEX
8
CUT
10
213.5000
20
178.5000
30
0
0
VERTEX
8
CUT
10
213.0365
20
178.4266
30
0
0
VERTEX
8
CUT
10
212.6183
20
178.2135
30
0
0
VERTEX
8
CUT
10
212.2865
20
177.8817
30
0
0
VERTEX
8
CUT
10
212.0734
20
177.4635
30
0
0
VERTEX
8
CUT
10
212.0000
20
177.0000
30
0
0
VERTEX
8
CUT
10
212.0000
20
177.0000
30
0
0
VERTEX
8
CUT
10
212.0734
20
176.5365
30
0
0
VERTEX
8
CUT
10
212.2865
20
176.1183
30
0
0
VERTEX
8
CUT
10
212.6183
20
175.7865
30
0
0
VERTEX
8
CUT
10
213.0365
20
175.5734
30
0
0
VERTEX
8
CUT
10
213.5000
20
175.5000
30
0
0
VERTEX
8
CUT
10
294.5000
20
175.5000
30
0
0
VERTEX
8
CUT
10
294.9635
20
175.5734
30
0
0
VERTEX
8
CUT
10
295.3817
20
175.7865
30
0
0
VERTEX
8
CUT
10
295.7135
20
176.1183
30
0
0
VERTEX
8
CUT
10
295.9266
20
176.5365
30
0
0
VERTEX
8
CUT
10
296.0000
20
177.0000
30
0
0
SEQEND
8
CUT
0
ENDSEC
0
EOF
