0
SECTION
2
HEADER
9
$ACADVER
1
AC1009
9
$MEASUREMENT
70
1
0
ENDSEC
0
SECTION
2
ENTITIES
0
POLYLINE
8
CUT
66
1
70
1
0
VERTEX
8
CUT
10
206.0000
20
69.0000
30
0
0
VERTEX
8
CUT
10
205.8532
20
69.9271
30
0
0
VERTEX
8
CUT
10
205.4271
20
70.7634
30
0
0
VERTEX
8
CUT
10
204.7634
20
71.4271
30
0
0
VERTEX
8
CUT
10
203.9271
20
71.8532
30
0
0
VERTEX
8
CUT
10
203.0000
20
72.0000
30
0
0
VERTEX
8
CUT
10
3.0000
20
72.0000
30
0
0
VERTEX
8
CUT
10
2.0729
20
71.8532
30
0
0
VERTEX
8
CUT
10
1.2366
20
71.4271
30
0
0
VERTEX
8
CUT
10
0.5729
20
70.7634
30
0
0
VERTEX
8
CUT
10
0.1468
20
69.9271
30
0
0
VERTEX
8
CUT
10
0.0000
20
69.0000
30
0
0
VERTEX
8
CUT
10
0.0000
20
3.0000
30
0
0
VERTEX
8
CUT
10
0.1468
20
2.0729
30
0
0
VERTEX
8
CUT
10
0.5729
20
1.2366
30
0
0
VERTEX
8
CUT
10
1.2366
20
0.5729
30
0
0
VERTEX
8
CUT
10
2.0729
20
0.1468
30
0
0
VERTEX
8
CUT
10
3.0000
20
0.0000
30
0
0
VERTEX
8
CUT
10
203.0000
20
0.0000
30
0
0
VERTEX
8
CUT
10
203.9271
20
0.1468
30
0
0
VERTEX
8
CUT
10
204.7634
20
0.5729
30
0
0
VERTEX
8
CUT
10
205.4271
20
1.2366
30
0
0
VERTEX
8
CUT
10
205.8532
20
2.0729
30
0
0
VERTEX
8
CUT
10
206.0000
20
3.0000
30
0
0
SEQEND
8
CUT
0
CIRCLE
8
CUT
10
7.0000
20
7.0000
30
0
40
1.7000
0
CIRCLE
8
CUT
10
199.0000
20
7.0000
30
0
40
1.7000
0
CIRCLE
8
CUT
10
199.0000
20
65.0000
30
0
40
1.7000
0
CIRCLE
8
CUT
10
7.0000
20
65.0000
30
0
40
1.7000
0
POLYLINE
8
CUT
66
1
70
1
0
VERTEX
8
CUT
10
133.8040
20
30.8500
30
0
0
VERTEX
8
CUT
10
133.7061
20
31.4680
30
0
0
VERTEX
8
CUT
10
133.4220
20
32.0256
30
0
0
VERTEX
8
CUT
10
132.9796
20
32.4680
30
0
0
VERTEX
8
CUT
10
132.4220
20
32.7521
30
0
0
VERTEX
8
CUT
10
131.8040
20
32.8500
30
0
0
VERTEX
8
CUT
10
115.3040
20
32.8500
30
0
0
VERTEX
8
CUT
10
114.6860
20
32.7521
30
0
0
VERTEX
8
CUT
10
114.1284
20
32.4680
30
0
0
VERTEX
8
CUT
10
113.6860
20
32.0256
30
0
0
VERTEX
8
CUT
10
113.4019
20
31.4680
30
0
0
VERTEX
8
CUT
10
113.3040
20
30.8500
30
0
0
VERTEX
8
CUT
10
113.3040
20
22.3500
30
0
0
VERTEX
8
CUT
10
113.4019
20
21.7320
30
0
0
VERTEX
8
CUT
10
113.6860
20
21.1744
30
0
0
VERTEX
8
CUT
10
114.1284
20
20.7320
30
0
0
VERTEX
8
CUT
10
114.6860
20
20.4479
30
0
0
VERTEX
8
CUT
10
115.3040
20
20.3500
30
0
0
VERTEX
8
CUT
10
131.8040
20
20.3500
30
0
0
VERTEX
8
CUT
10
132.4220
20
20.4479
30
0
0
VERTEX
8
CUT
10
132.9796
20
20.7320
30
0
0
VERTEX
8
CUT
10
133.4220
20
21.1744
30
0
0
VERTEX
8
CUT
10
133.7061
20
21.7320
30
0
0
VERTEX
8
CUT
10
133.8040
20
22.3500
30
0
0
SEQEND
8
CUT
0
CIRCLE
8
CUT
10
111.0540
20
26.6000
30
0
40
1.8000
0
CIRCLE
8
CUT
10
136.0540
20
26.6000
30
0
40
1.8000
0
POLYLINE
8
CUT
66
1
70
1
0
VERTEX
8
CUT
10
165.8080
20
30.8500
30
0
0
VERTEX
8
CUT
10
165.7101
20
31.4680
30
0
0
VERTEX
8
CUT
10
165.4260
20
32.0256
30
0
0
VERTEX
8
CUT
10
164.9836
20
32.4680
30
0
0
VERTEX
8
CUT
10
164.4260
20
32.7521
30
0
0
VERTEX
8
CUT
10
163.8080
20
32.8500
30
0
0
VERTEX
8
CUT
10
147.3080
20
32.8500
30
0
0
VERTEX
8
CUT
10
146.6900
20
32.7521
30
0
0
VERTEX
8
CUT
10
146.1324
20
32.4680
30
0
0
VERTEX
8
CUT
10
145.6900
20
32.0256
30
0
0
VERTEX
8
CUT
10
145.4059
20
31.4680
30
0
0
VERTEX
8
CUT
10
145.3080
20
30.8500
30
0
0
VERTEX
8
CUT
10
145.3080
20
22.3500
30
0
0
VERTEX
8
CUT
10
145.4059
20
21.7320
30
0
0
VERTEX
8
CUT
10
145.6900
20
21.1744
30
0
0
VERTEX
8
CUT
10
146.1324
20
20.7320
30
0
0
VERTEX
8
CUT
10
146.6900
20
20.4479
30
0
0
VERTEX
8
CUT
10
147.3080
20
20.3500
30
0
0
VERTEX
8
CUT
10
163.8080
20
20.3500
30
0
0
VERTEX
8
CUT
10
164.4260
20
20.4479
30
0
0
VERTEX
8
CUT
10
164.9836
20
20.7320
30
0
0
VERTEX
8
CUT
10
165.4260
20
21.1744
30
0
0
VERTEX
8
CUT
10
165.7101
20
21.7320
30
0
0
VERTEX
8
CUT
10
165.8080
20
22.3500
30
0
0
SEQEND
8
CUT
0
CIRCLE
8
CUT
10
143.0580
20
26.6000
30
0
40
1.8000
0
CIRCLE
8
CUT
10
168.0580
20
26.6000
30
0
40
1.8000
0
ENDSEC
0
EOF
