0
SECTION
2
HEADER
9
$ACADVER
1
AC1009
9
$MEASUREMENT
70
1
0
ENDSEC
0
SECTION
2
ENTITIES
0
POLYLINE
8
CUT
66
1
70
1
0
VERTEX
8
CUT
10
206.0000
20
69.0000
30
0
0
VERTEX
8
CUT
10
205.8532
20
69.9271
30
0
0
VERTEX
8
CUT
10
205.4271
20
70.7634
30
0
0
VERTEX
8
CUT
10
204.7634
20
71.4271
30
0
0
VERTEX
8
CUT
10
203.9271
20
71.8532
30
0
0
VERTEX
8
CUT
10
203.0000
20
72.0000
30
0
0
VERTEX
8
CUT
10
3.0000
20
72.0000
30
0
0
VERTEX
8
CUT
10
2.0729
20
71.8532
30
0
0
VERTEX
8
CUT
10
1.2366
20
71.4271
30
0
0
VERTEX
8
CUT
10
0.5729
20
70.7634
30
0
0
VERTEX
8
CUT
10
0.1468
20
69.9271
30
0
0
VERTEX
8
CUT
10
0.0000
20
69.0000
30
0
0
VERTEX
8
CUT
10
0.0000
20
3.0000
30
0
0
VERTEX
8
CUT
10
0.1468
20
2.0729
30
0
0
VERTEX
8
CUT
10
0.5729
20
1.2366
30
0
0
VERTEX
8
CUT
10
1.2366
20
0.5729
30
0
0
VERTEX
8
CUT
10
2.0729
20
0.1468
30
0
0
VERTEX
8
CUT
10
3.0000
20
0.0000
30
0
0
VERTEX
8
CUT
10
203.0000
20
0.0000
30
0
0
VERTEX
8
CUT
10
203.9271
20
0.1468
30
0
0
VERTEX
8
CUT
10
204.7634
20
0.5729
30
0
0
VERTEX
8
CUT
10
205.4271
20
1.2366
30
0
0
VERTEX
8
CUT
10
205.8532
20
2.0729
30
0
0
VERTEX
8
CUT
10
206.0000
20
3.0000
30
0
0
SEQEND
8
CUT
0
CIRCLE
8
CUT
10
7.0000
20
7.0000
30
0
40
1.7000
0
CIRCLE
8
CUT
10
199.0000
20
7.0000
30
0
40
1.7000
0
CIRCLE
8
CUT
10
199.0000
20
65.0000
30
0
40
1.7000
0
CIRCLE
8
CUT
10
7.0000
20
65.0000
30
0
40
1.7000
0
POLYLINE
8
CUT
66
1
70
1
0
VERTEX
8
CUT
10
117.8850
20
28.6000
30
0
0
VERTEX
8
CUT
10
117.7871
20
29.2180
30
0
0
VERTEX
8
CUT
10
117.5030
20
29.7756
30
0
0
VERTEX
8
CUT
10
117.0606
20
30.2180
30
0
0
VERTEX
8
CUT
10
116.5030
20
30.5021
30
0
0
VERTEX
8
CUT
10
115.8850
20
30.6000
30
0
0
VERTEX
8
CUT
10
59.8850
20
30.6000
30
0
0
VERTEX
8
CUT
10
59.2670
20
30.5021
30
0
0
VERTEX
8
CUT
10
58.7094
20
30.2180
30
0
0
VERTEX
8
CUT
10
58.2670
20
29.7756
30
0
0
VERTEX
8
CUT
10
57.9829
20
29.2180
30
0
0
VERTEX
8
CUT
10
57.8850
20
28.6000
30
0
0
VERTEX
8
CUT
10
57.8850
20
24.6000
30
0
0
VERTEX
8
CUT
10
57.9829
20
23.9820
30
0
0
VERTEX
8
CUT
10
58.2670
20
23.4244
30
0
0
VERTEX
8
CUT
10
58.7094
20
22.9820
30
0
0
VERTEX
8
CUT
10
59.2670
20
22.6979
30
0
0
VERTEX
8
CUT
10
59.8850
20
22.6000
30
0
0
VERTEX
8
CUT
10
115.8850
20
22.6000
30
0
0
VERTEX
8
CUT
10
116.5030
20
22.6979
30
0
0
VERTEX
8
CUT
10
117.0606
20
22.9820
30
0
0
VERTEX
8
CUT
10
117.5030
20
23.4244
30
0
0
VERTEX
8
CUT
10
117.7871
20
23.9820
30
0
0
VERTEX
8
CUT
10
117.8850
20
24.6000
30
0
0
SEQEND
8
CUT
0
ENDSEC
0
EOF
