0
SECTION
2
HEADER
9
$ACADVER
1
AC1009
9
$MEASUREMENT
70
1
0
ENDSEC
0
SECTION
2
ENTITIES
0
POLYLINE
8
CUT
66
1
70
1
0
VERTEX
8
CUT
10
329.0000
20
69.0000
30
0
0
VERTEX
8
CUT
10
328.8532
20
69.9271
30
0
0
VERTEX
8
CUT
10
328.4271
20
70.7634
30
0
0
VERTEX
8
CUT
10
327.7634
20
71.4271
30
0
0
VERTEX
8
CUT
10
326.9271
20
71.8532
30
0
0
VERTEX
8
CUT
10
326.0000
20
72.0000
30
0
0
VERTEX
8
CUT
10
3.0000
20
72.0000
30
0
0
VERTEX
8
CUT
10
2.0729
20
71.8532
30
0
0
VERTEX
8
CUT
10
1.2366
20
71.4271
30
0
0
VERTEX
8
CUT
10
0.5729
20
70.7634
30
0
0
VERTEX
8
CUT
10
0.1468
20
69.9271
30
0
0
VERTEX
8
CUT
10
0.0000
20
69.0000
30
0
0
VERTEX
8
CUT
10
0.0000
20
3.0000
30
0
0
VERTEX
8
CUT
10
0.1468
20
2.0729
30
0
0
VERTEX
8
CUT
10
0.5729
20
1.2366
30
0
0
VERTEX
8
CUT
10
1.2366
20
0.5729
30
0
0
VERTEX
8
CUT
10
2.0729
20
0.1468
30
0
0
VERTEX
8
CUT
10
3.0000
20
0.0000
30
0
0
VERTEX
8
CUT
10
326.0000
20
0.0000
30
0
0
VERTEX
8
CUT
10
326.9271
20
0.1468
30
0
0
VERTEX
8
CUT
10
327.7634
20
0.5729
30
0
0
VERTEX
8
CUT
10
328.4271
20
1.2366
30
0
0
VERTEX
8
CUT
10
328.8532
20
2.0729
30
0
0
VERTEX
8
CUT
10
329.0000
20
3.0000
30
0
0
SEQEND
8
CUT
0
CIRCLE
8
CUT
10
7.0000
20
7.0000
30
0
40
1.7000
0
CIRCLE
8
CUT
10
322.0000
20
7.0000
30
0
40
1.7000
0
CIRCLE
8
CUT
10
322.0000
20
65.0000
30
0
40
1.7000
0
CIRCLE
8
CUT
10
7.0000
20
65.0000
30
0
40
1.7000
0
POLYLINE
8
CUT
66
1
70
1
0
VERTEX
8
CUT
10
58.0000
20
22.0000
30
0
0
VERTEX
8
CUT
10
57.9266
20
22.4635
30
0
0
VERTEX
8
CUT
10
57.7135
20
22.8817
30
0
0
VERTEX
8
CUT
10
57.3817
20
23.2135
30
0
0
VERTEX
8
CUT
10
56.9635
20
23.4266
30
0
0
VERTEX
8
CUT
10
56.5000
20
23.5000
30
0
0
VERTEX
8
CUT
10
51.5000
20
23.5000
30
0
0
VERTEX
8
CUT
10
51.0365
20
23.4266
30
0
0
VERTEX
8
CUT
10
50.6183
20
23.2135
30
0
0
VERTEX
8
CUT
10
50.2865
20
22.8817
30
0
0
VERTEX
8
CUT
10
50.0734
20
22.4635
30
0
0
VERTEX
8
CUT
10
50.0000
20
22.0000
30
0
0
VERTEX
8
CUT
10
50.0000
20
22.0000
30
0
0
VERTEX
8
CUT
10
50.0734
20
21.5365
30
0
0
VERTEX
8
CUT
10
50.2865
20
21.1183
30
0
0
VERTEX
8
CUT
10
50.6183
20
20.7865
30
0
0
VERTEX
8
CUT
10
51.0365
20
20.5734
30
0
0
VERTEX
8
CUT
10
51.5000
20
20.5000
30
0
0
VERTEX
8
CUT
10
56.5000
20
20.5000
30
0
0
VERTEX
8
CUT
10
56.9635
20
20.5734
30
0
0
VERTEX
8
CUT
10
57.3817
20
20.7865
30
0
0
VERTEX
8
CUT
10
57.7135
20
21.1183
30
0
0
VERTEX
8
CUT
10
57.9266
20
21.5365
30
0
0
VERTEX
8
CUT
10
58.0000
20
22.0000
30
0
0
SEQEND
8
CUT
0
POLYLINE
8
CUT
66
1
70
1
0
VERTEX
8
CUT
10
74.0000
20
22.0000
30
0
0
VERTEX
8
CUT
10
73.9266
20
22.4635
30
0
0
VERTEX
8
CUT
10
73.7135
20
22.8817
30
0
0
VERTEX
8
CUT
10
73.3817
20
23.2135
30
0
0
VERTEX
8
CUT
10
72.9635
20
23.4266
30
0
0
VERTEX
8
CUT
10
72.5000
20
23.5000
30
0
0
VERTEX
8
CUT
10
67.5000
20
23.5000
30
0
0
VERTEX
8
CUT
10
67.0365
20
23.4266
30
0
0
VERTEX
8
CUT
10
66.6183
20
23.2135
30
0
0
VERTEX
8
CUT
10
66.2865
20
22.8817
30
0
0
VERTEX
8
CUT
10
66.0734
20
22.4635
30
0
0
VERTEX
8
CUT
10
66.0000
20
22.0000
30
0
0
VERTEX
8
CUT
10
66.0000
20
22.0000
30
0
0
VERTEX
8
CUT
10
66.0734
20
21.5365
30
0
0
VERTEX
8
CUT
10
66.2865
20
21.1183
30
0
0
VERTEX
8
CUT
10
66.6183
20
20.7865
30
0
0
VERTEX
8
CUT
10
67.0365
20
20.5734
30
0
0
VERTEX
8
CUT
10
67.5000
20
20.5000
30
0
0
VERTEX
8
CUT
10
72.5000
20
20.5000
30
0
0
VERTEX
8
CUT
10
72.9635
20
20.5734
30
0
0
VERTEX
8
CUT
10
73.3817
20
20.7865
30
0
0
VERTEX
8
CUT
10
73.7135
20
21.1183
30
0
0
VERTEX
8
CUT
10
73.9266
20
21.5365
30
0
0
VERTEX
8
CUT
10
74.0000
20
22.0000
30
0
0
SEQEND
8
CUT
0
POLYLINE
8
CUT
66
1
70
1
0
VERTEX
8
CUT
10
90.0000
20
22.0000
30
0
0
VERTEX
8
CUT
10
89.9266
20
22.4635
30
0
0
VERTEX
8
CUT
10
89.7135
20
22.8817
30
0
0
VERTEX
8
CUT
10
89.3817
20
23.2135
30
0
0
VERTEX
8
CUT
10
88.9635
20
23.4266
30
0
0
VERTEX
8
CUT
10
88.5000
20
23.5000
30
0
0
VERTEX
8
CUT
10
83.5000
20
23.5000
30
0
0
VERTEX
8
CUT
10
83.0365
20
23.4266
30
0
0
VERTEX
8
CUT
10
82.6183
20
23.2135
30
0
0
VERTEX
8
CUT
10
82.2865
20
22.8817
30
0
0
VERTEX
8
CUT
10
82.0734
20
22.4635
30
0
0
VERTEX
8
CUT
10
82.0000
20
22.0000
30
0
0
VERTEX
8
CUT
10
82.0000
20
22.0000
30
0
0
VERTEX
8
CUT
10
82.0734
20
21.5365
30
0
0
VERTEX
8
CUT
10
82.2865
20
21.1183
30
0
0
VERTEX
8
CUT
10
82.6183
20
20.7865
30
0
0
VERTEX
8
CUT
10
83.0365
20
20.5734
30
0
0
VERTEX
8
CUT
10
83.5000
20
20.5000
30
0
0
VERTEX
8
CUT
10
88.5000
20
20.5000
30
0
0
VERTEX
8
CUT
10
88.9635
20
20.5734
30
0
0
VERTEX
8
CUT
10
89.3817
20
20.7865
30
0
0
VERTEX
8
CUT
10
89.7135
20
21.1183
30
0
0
VERTEX
8
CUT
10
89.9266
20
21.5365
30
0
0
VERTEX
8
CUT
10
90.0000
20
22.0000
30
0
0
SEQEND
8
CUT
0
POLYLINE
8
CUT
66
1
70
1
0
VERTEX
8
CUT
10
106.0000
20
22.0000
30
0
0
VERTEX
8
CUT
10
105.9266
20
22.4635
30
0
0
VERTEX
8
CUT
10
105.7135
20
22.8817
30
0
0
VERTEX
8
CUT
10
105.3817
20
23.2135
30
0
0
VERTEX
8
CUT
10
104.9635
20
23.4266
30
0
0
VERTEX
8
CUT
10
104.5000
20
23.5000
30
0
0
VERTEX
8
CUT
10
99.5000
20
23.5000
30
0
0
VERTEX
8
CUT
10
99.0365
20
23.4266
30
0
0
VERTEX
8
CUT
10
98.6183
20
23.2135
30
0
0
VERTEX
8
CUT
10
98.2865
20
22.8817
30
0
0
VERTEX
8
CUT
10
98.0734
20
22.4635
30
0
0
VERTEX
8
CUT
10
98.0000
20
22.0000
30
0
0
VERTEX
8
CUT
10
98.0000
20
22.0000
30
0
0
VERTEX
8
CUT
10
98.0734
20
21.5365
30
0
0
VERTEX
8
CUT
10
98.2865
20
21.1183
30
0
0
VERTEX
8
CUT
10
98.6183
20
20.7865
30
0
0
VERTEX
8
CUT
10
99.0365
20
20.5734
30
0
0
VERTEX
8
CUT
10
99.5000
20
20.5000
30
0
0
VERTEX
8
CUT
10
104.5000
20
20.5000
30
0
0
VERTEX
8
CUT
10
104.9635
20
20.5734
30
0
0
VERTEX
8
CUT
10
105.3817
20
20.7865
30
0
0
VERTEX
8
CUT
10
105.7135
20
21.1183
30
0
0
VERTEX
8
CUT
10
105.9266
20
21.5365
30
0
0
VERTEX
8
CUT
10
106.0000
20
22.0000
30
0
0
SEQEND
8
CUT
0
POLYLINE
8
CUT
66
1
70
1
0
VERTEX
8
CUT
10
122.0000
20
22.0000
30
0
0
VERTEX
8
CUT
10
121.9266
20
22.4635
30
0
0
VERTEX
8
CUT
10
121.7135
20
22.8817
30
0
0
VERTEX
8
CUT
10
121.3817
20
23.2135
30
0
0
VERTEX
8
CUT
10
120.9635
20
23.4266
30
0
0
VERTEX
8
CUT
10
120.5000
20
23.5000
30
0
0
VERTEX
8
CUT
10
115.5000
20
23.5000
30
0
0
VERTEX
8
CUT
10
115.0365
20
23.4266
30
0
0
VERTEX
8
CUT
10
114.6183
20
23.2135
30
0
0
VERTEX
8
CUT
10
114.2865
20
22.8817
30
0
0
VERTEX
8
CUT
10
114.0734
20
22.4635
30
0
0
VERTEX
8
CUT
10
114.0000
20
22.0000
30
0
0
VERTEX
8
CUT
10
114.0000
20
22.0000
30
0
0
VERTEX
8
CUT
10
114.0734
20
21.5365
30
0
0
VERTEX
8
CUT
10
114.2865
20
21.1183
30
0
0
VERTEX
8
CUT
10
114.6183
20
20.7865
30
0
0
VERTEX
8
CUT
10
115.0365
20
20.5734
30
0
0
VERTEX
8
CUT
10
115.5000
20
20.5000
30
0
0
VERTEX
8
CUT
10
120.5000
20
20.5000
30
0
0
VERTEX
8
CUT
10
120.9635
20
20.5734
30
0
0
VERTEX
8
CUT
10
121.3817
20
20.7865
30
0
0
VERTEX
8
CUT
10
121.7135
20
21.1183
30
0
0
VERTEX
8
CUT
10
121.9266
20
21.5365
30
0
0
VERTEX
8
CUT
10
122.0000
20
22.0000
30
0
0
SEQEND
8
CUT
0
POLYLINE
8
CUT
66
1
70
1
0
VERTEX
8
CUT
10
138.0000
20
22.0000
30
0
0
VERTEX
8
CUT
10
137.9266
20
22.4635
30
0
0
VERTEX
8
CUT
10
137.7135
20
22.8817
30
0
0
VERTEX
8
CUT
10
137.3817
20
23.2135
30
0
0
VERTEX
8
CUT
10
136.9635
20
23.4266
30
0
0
VERTEX
8
CUT
10
136.5000
20
23.5000
30
0
0
VERTEX
8
CUT
10
131.5000
20
23.5000
30
0
0
VERTEX
8
CUT
10
131.0365
20
23.4266
30
0
0
VERTEX
8
CUT
10
130.6183
20
23.2135
30
0
0
VERTEX
8
CUT
10
130.2865
20
22.8817
30
0
0
VERTEX
8
CUT
10
130.0734
20
22.4635
30
0
0
VERTEX
8
CUT
10
130.0000
20
22.0000
30
0
0
VERTEX
8
CUT
10
130.0000
20
22.0000
30
0
0
VERTEX
8
CUT
10
130.0734
20
21.5365
30
0
0
VERTEX
8
CUT
10
130.2865
20
21.1183
30
0
0
VERTEX
8
CUT
10
130.6183
20
20.7865
30
0
0
VERTEX
8
CUT
10
131.0365
20
20.5734
30
0
0
VERTEX
8
CUT
10
131.5000
20
20.5000
30
0
0
VERTEX
8
CUT
10
136.5000
20
20.5000
30
0
0
VERTEX
8
CUT
10
136.9635
20
20.5734
30
0
0
VERTEX
8
CUT
10
137.3817
20
20.7865
30
0
0
VERTEX
8
CUT
10
137.7135
20
21.1183
30
0
0
VERTEX
8
CUT
10
137.9266
20
21.5365
30
0
0
VERTEX
8
CUT
10
138.0000
20
22.0000
30
0
0
SEQEND
8
CUT
0
POLYLINE
8
CUT
66
1
70
1
0
VERTEX
8
CUT
10
154.0000
20
22.0000
30
0
0
VERTEX
8
CUT
10
153.9266
20
22.4635
30
0
0
VERTEX
8
CUT
10
153.7135
20
22.8817
30
0
0
VERTEX
8
CUT
10
153.3817
20
23.2135
30
0
0
VERTEX
8
CUT
10
152.9635
20
23.4266
30
0
0
VERTEX
8
CUT
10
152.5000
20
23.5000
30
0
0
VERTEX
8
CUT
10
147.5000
20
23.5000
30
0
0
VERTEX
8
CUT
10
147.0365
20
23.4266
30
0
0
VERTEX
8
CUT
10
146.6183
20
23.2135
30
0
0
VERTEX
8
CUT
10
146.2865
20
22.8817
30
0
0
VERTEX
8
CUT
10
146.0734
20
22.4635
30
0
0
VERTEX
8
CUT
10
146.0000
20
22.0000
30
0
0
VERTEX
8
CUT
10
146.0000
20
22.0000
30
0
0
VERTEX
8
CUT
10
146.0734
20
21.5365
30
0
0
VERTEX
8
CUT
10
146.2865
20
21.1183
30
0
0
VERTEX
8
CUT
10
146.6183
20
20.7865
30
0
0
VERTEX
8
CUT
10
147.0365
20
20.5734
30
0
0
VERTEX
8
CUT
10
147.5000
20
20.5000
30
0
0
VERTEX
8
CUT
10
152.5000
20
20.5000
30
0
0
VERTEX
8
CUT
10
152.9635
20
20.5734
30
0
0
VERTEX
8
CUT
10
153.3817
20
20.7865
30
0
0
VERTEX
8
CUT
10
153.7135
20
21.1183
30
0
0
VERTEX
8
CUT
10
153.9266
20
21.5365
30
0
0
VERTEX
8
CUT
10
154.0000
20
22.0000
30
0
0
SEQEND
8
CUT
0
POLYLINE
8
CUT
66
1
70
1
0
VERTEX
8
CUT
10
170.0000
20
22.0000
30
0
0
VERTEX
8
CUT
10
169.9266
20
22.4635
30
0
0
VERTEX
8
CUT
10
169.7135
20
22.8817
30
0
0
VERTEX
8
CUT
10
169.3817
20
23.2135
30
0
0
VERTEX
8
CUT
10
168.9635
20
23.4266
30
0
0
VERTEX
8
CUT
10
168.5000
20
23.5000
30
0
0
VERTEX
8
CUT
10
163.5000
20
23.5000
30
0
0
VERTEX
8
CUT
10
163.0365
20
23.4266
30
0
0
VERTEX
8
CUT
10
162.6183
20
23.2135
30
0
0
VERTEX
8
CUT
10
162.2865
20
22.8817
30
0
0
VERTEX
8
CUT
10
162.0734
20
22.4635
30
0
0
VERTEX
8
CUT
10
162.0000
20
22.0000
30
0
0
VERTEX
8
CUT
10
162.0000
20
22.0000
30
0
0
VERTEX
8
CUT
10
162.0734
20
21.5365
30
0
0
VERTEX
8
CUT
10
162.2865
20
21.1183
30
0
0
VERTEX
8
CUT
10
162.6183
20
20.7865
30
0
0
VERTEX
8
CUT
10
163.0365
20
20.5734
30
0
0
VERTEX
8
CUT
10
163.5000
20
20.5000
30
0
0
VERTEX
8
CUT
10
168.5000
20
20.5000
30
0
0
VERTEX
8
CUT
10
168.9635
20
20.5734
30
0
0
VERTEX
8
CUT
10
169.3817
20
20.7865
30
0
0
VERTEX
8
CUT
10
169.7135
20
21.1183
30
0
0
VERTEX
8
CUT
10
169.9266
20
21.5365
30
0
0
VERTEX
8
CUT
10
170.0000
20
22.0000
30
0
0
SEQEND
8
CUT
0
POLYLINE
8
CUT
66
1
70
1
0
VERTEX
8
CUT
10
186.0000
20
22.0000
30
0
0
VERTEX
8
CUT
10
185.9266
20
22.4635
30
0
0
VERTEX
8
CUT
10
185.7135
20
22.8817
30
0
0
VERTEX
8
CUT
10
185.3817
20
23.2135
30
0
0
VERTEX
8
CUT
10
184.9635
20
23.4266
30
0
0
VERTEX
8
CUT
10
184.5000
20
23.5000
30
0
0
VERTEX
8
CUT
10
179.5000
20
23.5000
30
0
0
VERTEX
8
CUT
10
179.0365
20
23.4266
30
0
0
VERTEX
8
CUT
10
178.6183
20
23.2135
30
0
0
VERTEX
8
CUT
10
178.2865
20
22.8817
30
0
0
VERTEX
8
CUT
10
178.0734
20
22.4635
30
0
0
VERTEX
8
CUT
10
178.0000
20
22.0000
30
0
0
VERTEX
8
CUT
10
178.0000
20
22.0000
30
0
0
VERTEX
8
CUT
10
178.0734
20
21.5365
30
0
0
VERTEX
8
CUT
10
178.2865
20
21.1183
30
0
0
VERTEX
8
CUT
10
178.6183
20
20.7865
30
0
0
VERTEX
8
CUT
10
179.0365
20
20.5734
30
0
0
VERTEX
8
CUT
10
179.5000
20
20.5000
30
0
0
VERTEX
8
CUT
10
184.5000
20
20.5000
30
0
0
VERTEX
8
CUT
10
184.9635
20
20.5734
30
0
0
VERTEX
8
CUT
10
185.3817
20
20.7865
30
0
0
VERTEX
8
CUT
10
185.7135
20
21.1183
30
0
0
VERTEX
8
CUT
10
185.9266
20
21.5365
30
0
0
VERTEX
8
CUT
10
186.0000
20
22.0000
30
0
0
SEQEND
8
CUT
0
POLYLINE
8
CUT
66
1
70
1
0
VERTEX
8
CUT
10
202.0000
20
22.0000
30
0
0
VERTEX
8
CUT
10
201.9266
20
22.4635
30
0
0
VERTEX
8
CUT
10
201.7135
20
22.8817
30
0
0
VERTEX
8
CUT
10
201.3817
20
23.2135
30
0
0
VERTEX
8
CUT
10
200.9635
20
23.4266
30
0
0
VERTEX
8
CUT
10
200.5000
20
23.5000
30
0
0
VERTEX
8
CUT
10
195.5000
20
23.5000
30
0
0
VERTEX
8
CUT
10
195.0365
20
23.4266
30
0
0
VERTEX
8
CUT
10
194.6183
20
23.2135
30
0
0
VERTEX
8
CUT
10
194.2865
20
22.8817
30
0
0
VERTEX
8
CUT
10
194.0734
20
22.4635
30
0
0
VERTEX
8
CUT
10
194.0000
20
22.0000
30
0
0
VERTEX
8
CUT
10
194.0000
20
22.0000
30
0
0
VERTEX
8
CUT
10
194.0734
20
21.5365
30
0
0
VERTEX
8
CUT
10
194.2865
20
21.1183
30
0
0
VERTEX
8
CUT
10
194.6183
20
20.7865
30
0
0
VERTEX
8
CUT
10
195.0365
20
20.5734
30
0
0
VERTEX
8
CUT
10
195.5000
20
20.5000
30
0
0
VERTEX
8
CUT
10
200.5000
20
20.5000
30
0
0
VERTEX
8
CUT
10
200.9635
20
20.5734
30
0
0
VERTEX
8
CUT
10
201.3817
20
20.7865
30
0
0
VERTEX
8
CUT
10
201.7135
20
21.1183
30
0
0
VERTEX
8
CUT
10
201.9266
20
21.5365
30
0
0
VERTEX
8
CUT
10
202.0000
20
22.0000
30
0
0
SEQEND
8
CUT
0
POLYLINE
8
CUT
66
1
70
1
0
VERTEX
8
CUT
10
218.0000
20
22.0000
30
0
0
VERTEX
8
CUT
10
217.9266
20
22.4635
30
0
0
VERTEX
8
CUT
10
217.7135
20
22.8817
30
0
0
VERTEX
8
CUT
10
217.3817
20
23.2135
30
0
0
VERTEX
8
CUT
10
216.9635
20
23.4266
30
0
0
VERTEX
8
CUT
10
216.5000
20
23.5000
30
0
0
VERTEX
8
CUT
10
211.5000
20
23.5000
30
0
0
VERTEX
8
CUT
10
211.0365
20
23.4266
30
0
0
VERTEX
8
CUT
10
210.6183
20
23.2135
30
0
0
VERTEX
8
CUT
10
210.2865
20
22.8817
30
0
0
VERTEX
8
CUT
10
210.0734
20
22.4635
30
0
0
VERTEX
8
CUT
10
210.0000
20
22.0000
30
0
0
VERTEX
8
CUT
10
210.0000
20
22.0000
30
0
0
VERTEX
8
CUT
10
210.0734
20
21.5365
30
0
0
VERTEX
8
CUT
10
210.2865
20
21.1183
30
0
0
VERTEX
8
CUT
10
210.6183
20
20.7865
30
0
0
VERTEX
8
CUT
10
211.0365
20
20.5734
30
0
0
VERTEX
8
CUT
10
211.5000
20
20.5000
30
0
0
VERTEX
8
CUT
10
216.5000
20
20.5000
30
0
0
VERTEX
8
CUT
10
216.9635
20
20.5734
30
0
0
VERTEX
8
CUT
10
217.3817
20
20.7865
30
0
0
VERTEX
8
CUT
10
217.7135
20
21.1183
30
0
0
VERTEX
8
CUT
10
217.9266
20
21.5365
30
0
0
VERTEX
8
CUT
10
218.0000
20
22.0000
30
0
0
SEQEND
8
CUT
0
POLYLINE
8
CUT
66
1
70
1
0
VERTEX
8
CUT
10
234.0000
20
22.0000
30
0
0
VERTEX
8
CUT
10
233.9266
20
22.4635
30
0
0
VERTEX
8
CUT
10
233.7135
20
22.8817
30
0
0
VERTEX
8
CUT
10
233.3817
20
23.2135
30
0
0
VERTEX
8
CUT
10
232.9635
20
23.4266
30
0
0
VERTEX
8
CUT
10
232.5000
20
23.5000
30
0
0
VERTEX
8
CUT
10
227.5000
20
23.5000
30
0
0
VERTEX
8
CUT
10
227.0365
20
23.4266
30
0
0
VERTEX
8
CUT
10
226.6183
20
23.2135
30
0
0
VERTEX
8
CUT
10
226.2865
20
22.8817
30
0
0
VERTEX
8
CUT
10
226.0734
20
22.4635
30
0
0
VERTEX
8
CUT
10
226.0000
20
22.0000
30
0
0
VERTEX
8
CUT
10
226.0000
20
22.0000
30
0
0
VERTEX
8
CUT
10
226.0734
20
21.5365
30
0
0
VERTEX
8
CUT
10
226.2865
20
21.1183
30
0
0
VERTEX
8
CUT
10
226.6183
20
20.7865
30
0
0
VERTEX
8
CUT
10
227.0365
20
20.5734
30
0
0
VERTEX
8
CUT
10
227.5000
20
20.5000
30
0
0
VERTEX
8
CUT
10
232.5000
20
20.5000
30
0
0
VERTEX
8
CUT
10
232.9635
20
20.5734
30
0
0
VERTEX
8
CUT
10
233.3817
20
20.7865
30
0
0
VERTEX
8
CUT
10
233.7135
20
21.1183
30
0
0
VERTEX
8
CUT
10
233.9266
20
21.5365
30
0
0
VERTEX
8
CUT
10
234.0000
20
22.0000
30
0
0
SEQEND
8
CUT
0
POLYLINE
8
CUT
66
1
70
1
0
VERTEX
8
CUT
10
250.0000
20
22.0000
30
0
0
VERTEX
8
CUT
10
249.9266
20
22.4635
30
0
0
VERTEX
8
CUT
10
249.7135
20
22.8817
30
0
0
VERTEX
8
CUT
10
249.3817
20
23.2135
30
0
0
VERTEX
8
CUT
10
248.9635
20
23.4266
30
0
0
VERTEX
8
CUT
10
248.5000
20
23.5000
30
0
0
VERTEX
8
CUT
10
243.5000
20
23.5000
30
0
0
VERTEX
8
CUT
10
243.0365
20
23.4266
30
0
0
VERTEX
8
CUT
10
242.6183
20
23.2135
30
0
0
VERTEX
8
CUT
10
242.2865
20
22.8817
30
0
0
VERTEX
8
CUT
10
242.0734
20
22.4635
30
0
0
VERTEX
8
CUT
10
242.0000
20
22.0000
30
0
0
VERTEX
8
CUT
10
242.0000
20
22.0000
30
0
0
VERTEX
8
CUT
10
242.0734
20
21.5365
30
0
0
VERTEX
8
CUT
10
242.2865
20
21.1183
30
0
0
VERTEX
8
CUT
10
242.6183
20
20.7865
30
0
0
VERTEX
8
CUT
10
243.0365
20
20.5734
30
0
0
VERTEX
8
CUT
10
243.5000
20
20.5000
30
0
0
VERTEX
8
CUT
10
248.5000
20
20.5000
30
0
0
VERTEX
8
CUT
10
248.9635
20
20.5734
30
0
0
VERTEX
8
CUT
10
249.3817
20
20.7865
30
0
0
VERTEX
8
CUT
10
249.7135
20
21.1183
30
0
0
VERTEX
8
CUT
10
249.9266
20
21.5365
30
0
0
VERTEX
8
CUT
10
250.0000
20
22.0000
30
0
0
SEQEND
8
CUT
0
POLYLINE
8
CUT
66
1
70
1
0
VERTEX
8
CUT
10
266.0000
20
22.0000
30
0
0
VERTEX
8
CUT
10
265.9266
20
22.4635
30
0
0
VERTEX
8
CUT
10
265.7135
20
22.8817
30
0
0
VERTEX
8
CUT
10
265.3817
20
23.2135
30
0
0
VERTEX
8
CUT
10
264.9635
20
23.4266
30
0
0
VERTEX
8
CUT
10
264.5000
20
23.5000
30
0
0
VERTEX
8
CUT
10
259.5000
20
23.5000
30
0
0
VERTEX
8
CUT
10
259.0365
20
23.4266
30
0
0
VERTEX
8
CUT
10
258.6183
20
23.2135
30
0
0
VERTEX
8
CUT
10
258.2865
20
22.8817
30
0
0
VERTEX
8
CUT
10
258.0734
20
22.4635
30
0
0
VERTEX
8
CUT
10
258.0000
20
22.0000
30
0
0
VERTEX
8
CUT
10
258.0000
20
22.0000
30
0
0
VERTEX
8
CUT
10
258.0734
20
21.5365
30
0
0
VERTEX
8
CUT
10
258.2865
20
21.1183
30
0
0
VERTEX
8
CUT
10
258.6183
20
20.7865
30
0
0
VERTEX
8
CUT
10
259.0365
20
20.5734
30
0
0
VERTEX
8
CUT
10
259.5000
20
20.5000
30
0
0
VERTEX
8
CUT
10
264.5000
20
20.5000
30
0
0
VERTEX
8
CUT
10
264.9635
20
20.5734
30
0
0
VERTEX
8
CUT
10
265.3817
20
20.7865
30
0
0
VERTEX
8
CUT
10
265.7135
20
21.1183
30
0
0
VERTEX
8
CUT
10
265.9266
20
21.5365
30
0
0
VERTEX
8
CUT
10
266.0000
20
22.0000
30
0
0
SEQEND
8
CUT
0
CIRCLE
8
CUT
10
299.0000
20
22.0000
30
0
40
1.6000
0
CIRCLE
8
CUT
10
310.0000
20
22.0000
30
0
40
1.6000
0
ENDSEC
0
EOF
